<?xml version="1.0" encoding="UTF-8" standalone="no"?>
<!-- Created with Inkscape (http://www.inkscape.org/) -->

<svg
   xmlns:dc="http://purl.org/dc/elements/1.1/"
   xmlns:cc="http://creativecommons.org/ns#"
   xmlns:rdf="http://www.w3.org/1999/02/22-rdf-syntax-ns#"
   xmlns:svg="http://www.w3.org/2000/svg"
   xmlns="http://www.w3.org/2000/svg"
   xmlns:sodipodi="http://sodipodi.sourceforge.net/DTD/sodipodi-0.dtd"
   xmlns:inkscape="http://www.inkscape.org/namespaces/inkscape"
   width="210mm"
   height="180mm"
   viewBox="0 0 744.09449 637.79528"
   id="svg2"
   version="1.1"
   inkscape:version="0.91 r13725"
   sodipodi:docname="FC.svg">
  <defs
     id="defs4" />
  <sodipodi:namedview
     id="base"
     pagecolor="#ffffff"
     bordercolor="#666666"
     borderopacity="1.0"
     inkscape:pageopacity="0.0"
     inkscape:pageshadow="2"
     inkscape:zoom="3.959798"
     inkscape:cx="553.34145"
     inkscape:cy="244.51401"
     inkscape:document-units="px"
     inkscape:current-layer="g9901"
     showgrid="false"
     inkscape:window-width="2880"
     inkscape:window-height="1577"
     inkscape:window-x="0"
     inkscape:window-y="0"
     inkscape:window-maximized="1" />
  <metadata
     id="metadata7">
    <rdf:RDF>
      <cc:Work
         rdf:about="">
        <dc:format>image/svg+xml</dc:format>
        <dc:type
           rdf:resource="http://purl.org/dc/dcmitype/StillImage" />
        <dc:title />
      </cc:Work>
    </rdf:RDF>
  </metadata>
  <g
     inkscape:label="Layer 1"
     inkscape:groupmode="layer"
     id="layer1"
     transform="translate(0,-414.56693)">
    <g
       id="g9901"
       transform="matrix(1.7908843,0,0,1.563484,-1125.9026,25.770136)">
      <text
         id="text9489"
         y="482.82999"
         x="685.43799"
         style="font-style:normal;font-weight:normal;font-size:12.80000019px;font-family:sans-serif;text-anchor:start;fill:#000000"
         font-size="12.8">
        <tspan
           id="tspan9491"
           y="482.82999"
           x="685.43799" />
      </text>
      <text
         id="text9891"
         y="605.57397"
         x="760.104"
         style="font-style:normal;font-weight:normal;font-size:12.80000019px;font-family:sans-serif;text-anchor:start;fill:#000000"
         font-size="12.8">
        <tspan
           id="tspan9893"
           y="605.57397"
           x="760.104" />
      </text>
      <g
         id="g5573"
         transform="matrix(0.76831479,0,0,0.9426268,-238.10696,-459.13917)">
        <text
           id="text5147"
           y="985.09198"
           x="1217.77"
           style="font-style:normal;font-weight:normal;font-size:12.80000019px;font-family:sans-serif;text-anchor:start;fill:#000000"
           font-size="12.8">
          <tspan
             id="tspan5149"
             y="985.09198"
             x="1217.77" />
        </text>
        <text
           id="text5151"
           y="1076.28"
           x="1284.28"
           style="font-style:italic;font-weight:700;font-size:11.7968998px;font-family:sans-serif;text-anchor:start;fill:#000000"
           font-size="11.7969">
          <tspan
             id="tspan5153"
             y="1076.28"
             x="1284.28">thread D</tspan>
        </text>
        <g
           id="g5155">
          <rect
             id="rect5157"
             height="39.803501"
             width="184.295"
             y="1088.5601"
             x="1218.77"
             style="fill:#ffffff" />
          <rect
             id="rect5159"
             height="39.803501"
             width="184.295"
             y="1088.5601"
             x="1218.77"
             style="fill:none;fill-opacity:0;stroke:#000000;stroke-width:2" />
        </g>
        <line
           id="line5161"
           y2="1129.25"
           x2="1306.85"
           y1="1088.6899"
           x1="1306.4"
           style="fill:none;fill-opacity:0;stroke:#000000;stroke-width:2" />
        <text
           id="text5163"
           y="1067.48"
           x="1258.6899"
           style="font-style:normal;font-weight:normal;font-size:12.80000019px;font-family:sans-serif;text-anchor:start;fill:#000000"
           font-size="12.8">
          <tspan
             id="tspan5165"
             y="1067.48"
             x="1258.6899" />
        </text>
        <text
           id="text5167"
           y="1112.52"
           x="1234.88"
           style="font-style:italic;font-weight:700;font-size:11.7968998px;font-family:sans-serif;text-anchor:start;fill:#000000"
           font-size="11.7969">
          <tspan
             id="tspan5169"
             y="1112.52"
             x="1234.88">request</tspan>
        </text>
        <text
           id="text5171"
           y="1112.01"
           x="1342.98"
           style="font-style:italic;font-weight:700;font-size:11.7968998px;font-family:sans-serif;text-anchor:start;fill:#000000"
           font-size="11.7969">
          <tspan
             id="tspan5173"
             y="1112.01"
             x="1342.98">age</tspan>
        </text>
        <text
           id="text5175"
           y="993.89801"
           x="1284.28"
           style="font-style:italic;font-weight:700;font-size:11.7968998px;font-family:sans-serif;text-anchor:start;fill:#000000"
           font-size="11.7969">
          <tspan
             id="tspan5177"
             y="993.89801"
             x="1284.28">thread C</tspan>
        </text>
        <g
           id="g5179">
          <rect
             id="rect5181"
             height="39.803501"
             width="184.295"
             y="1006.17"
             x="1218.77"
             style="fill:#ffffff" />
          <rect
             id="rect5183"
             height="39.803501"
             width="184.295"
             y="1006.17"
             x="1218.77"
             style="fill:none;fill-opacity:0;stroke:#000000;stroke-width:2" />
        </g>
        <line
           id="line5185"
           y2="1046.86"
           x2="1306.85"
           y1="1006.31"
           x1="1306.4"
           style="fill:none;fill-opacity:0;stroke:#000000;stroke-width:2" />
        <text
           id="text5187"
           y="1030.14"
           x="1234.88"
           style="font-style:italic;font-weight:700;font-size:11.7968998px;font-family:sans-serif;text-anchor:start;fill:#000000"
           font-size="11.7969">
          <tspan
             id="tspan5189"
             y="1030.14"
             x="1234.88">request</tspan>
        </text>
        <text
           id="text5191"
           y="1029.62"
           x="1342.98"
           style="font-style:italic;font-weight:700;font-size:11.7968998px;font-family:sans-serif;text-anchor:start;fill:#000000"
           font-size="11.7969">
          <tspan
             id="tspan5193"
             y="1029.62"
             x="1342.98">age</tspan>
        </text>
        <text
           id="text5195"
           y="908.98999"
           x="1284.28"
           style="font-style:italic;font-weight:700;font-size:11.7968998px;font-family:sans-serif;text-anchor:start;fill:#000000"
           font-size="11.7969">
          <tspan
             id="tspan5197"
             y="908.98999"
             x="1284.28">thread B</tspan>
        </text>
        <g
           id="g5199">
          <rect
             id="rect5201"
             height="39.803501"
             width="184.295"
             y="921.26398"
             x="1218.77"
             style="fill:#ffffff" />
          <rect
             id="rect5203"
             height="39.803501"
             width="184.295"
             y="921.26398"
             x="1218.77"
             style="fill:none;fill-opacity:0;stroke:#000000;stroke-width:2" />
        </g>
        <line
           id="line5205"
           y2="961.95203"
           x2="1306.85"
           y1="921.39801"
           x1="1306.4"
           style="fill:none;fill-opacity:0;stroke:#000000;stroke-width:2" />
        <text
           id="text5207"
           y="900.18402"
           x="1258.6899"
           style="font-style:normal;font-weight:normal;font-size:12.80000019px;font-family:sans-serif;text-anchor:start;fill:#000000"
           font-size="12.8">
          <tspan
             id="tspan5209"
             y="900.18402"
             x="1258.6899" />
        </text>
        <text
           id="text5211"
           y="945.22601"
           x="1234.88"
           style="font-style:italic;font-weight:700;font-size:11.7968998px;font-family:sans-serif;text-anchor:start;fill:#000000"
           font-size="11.7969">
          <tspan
             id="tspan5213"
             y="945.22601"
             x="1234.88">request</tspan>
        </text>
        <text
           id="text5215"
           y="944.71399"
           x="1342.98"
           style="font-style:italic;font-weight:700;font-size:11.7968998px;font-family:sans-serif;text-anchor:start;fill:#000000"
           font-size="11.7969">
          <tspan
             id="tspan5217"
             y="944.71399"
             x="1342.98">age</tspan>
        </text>
        <text
           id="text5219"
           y="823.65997"
           x="1284.28"
           style="font-style:italic;font-weight:700;font-size:11.7968998px;font-family:sans-serif;text-anchor:start;fill:#000000"
           font-size="11.7969">
          <tspan
             id="tspan5221"
             y="823.65997"
             x="1284.28">thread A</tspan>
        </text>
        <g
           id="g5223">
          <rect
             id="rect5225"
             height="39.803501"
             width="184.295"
             y="835.93402"
             x="1218.77"
             style="fill:#fcc869" />
          <rect
             id="rect5227"
             height="39.803501"
             width="184.295"
             y="835.93402"
             x="1218.77"
             style="fill:none;fill-opacity:0;stroke:#000000;stroke-width:2" />
        </g>
        <line
           id="line5229"
           y2="876.62201"
           x2="1306.85"
           y1="836.07001"
           x1="1306.4"
           style="fill:none;fill-opacity:0;stroke:#000000;stroke-width:2" />
        <text
           id="text5231"
           y="814.854"
           x="1258.6899"
           style="font-style:normal;font-weight:normal;font-size:12.80000019px;font-family:sans-serif;text-anchor:start;fill:#000000"
           font-size="12.8">
          <tspan
             id="tspan5233"
             y="814.854"
             x="1258.6899" />
        </text>
        <text
           id="text5235"
           y="859.89801"
           x="1234.88"
           style="font-style:italic;font-weight:700;font-size:11.7968998px;font-family:sans-serif;text-anchor:start;fill:#000000"
           font-size="11.7969">
          <tspan
             id="tspan5237"
             y="859.89801"
             x="1234.88">request</tspan>
        </text>
        <text
           id="text5239"
           y="859.38599"
           x="1342.98"
           style="font-style:italic;font-weight:700;font-size:11.7968998px;font-family:sans-serif;text-anchor:start;fill:#000000"
           font-size="11.7969">
          <tspan
             id="tspan5241"
             y="859.38599"
             x="1342.98">age</tspan>
        </text>
        <g
           id="g5243">
          <rect
             id="rect5245"
             height="39.803501"
             width="184.295"
             y="836.242"
             x="1441.3101"
             style="fill:#ffffff" />
          <rect
             id="rect5247"
             height="39.803501"
             width="184.295"
             y="836.242"
             x="1441.3101"
             style="fill:none;fill-opacity:0;stroke:#000000;stroke-width:2" />
        </g>
        <line
           id="line5249"
           y2="876.92999"
           x2="1529.38"
           y1="836.37799"
           x1="1528.9301"
           style="fill:none;fill-opacity:0;stroke:#000000;stroke-width:2" />
        <text
           id="text5251"
           y="860.20599"
           x="1457.41"
           style="font-style:italic;font-weight:700;font-size:11.7968998px;font-family:sans-serif;text-anchor:start;fill:#000000"
           font-size="11.7969">
          <tspan
             id="tspan5253"
             y="860.20599"
             x="1457.41">Master</tspan>
          <tspan
             id="tspan5255"
             y="874.95203"
             x="1457.41" />
          <tspan
             id="tspan5257"
             y="889.698"
             x="1457.41">top</tspan>
        </text>
        <g
           id="g5259">
          <path
             id="path5261"
             d="m 1570.06,846.868 0,-1.974 0.4,-1.594 0.39,-0.998 0.79,-1.186 0.78,-0.802 1.4,-1.2 0.79,-0.394 0.99,-0.393 0.99,-0.193 0.79,0 1.19,0.193 0.79,0.196 1.58,0.591 1.19,1.2 0.8,0.802 0.79,1.383 0.39,1.2 0.4,1.58 0,0.605 0,1.186 -2.38,-0.202 0,-0.984 0,-0.605 -0.2,-0.989 -0.39,-0.591 -0.39,-0.802 -0.41,-0.595 -0.58,-0.595 -0.8,-0.403 -0.79,-0.394 -0.6,-0.197 -0.79,0 -0.99,0 -0.78,0.403 -1.2,0.792 -0.79,0.989 -0.59,1.196 -0.2,0.989 -0.39,1.195 0.18,1.196 -2.36,-0.605 z"
             style="fill:#b7b79d"
             inkscape:connector-curvature="0" />
          <path
             id="path5263"
             d="m 1564.71,854.622 4.55,-4.369 21.19,0 -4.56,4.369 -21.18,0 z"
             style="fill:#c9c9b6"
             inkscape:connector-curvature="0" />
          <path
             id="path5265"
             d="m 1564.71,854.622 4.55,-4.369 21.19,0 -4.56,4.369 -21.18,0"
             style="fill:none;fill-opacity:0;stroke:#494936;stroke-width:0.02"
             inkscape:connector-curvature="0" />
          <path
             id="path5267"
             d="m 1585.89,870.533 4.76,-4.584 0,-15.897 -4.76,4.767 0,15.714 z"
             style="fill:#7a7a5a"
             inkscape:connector-curvature="0" />
          <path
             id="path5269"
             d="m 1585.89,870.533 4.76,-4.584 0,-15.897 -4.76,4.767 0,15.714"
             style="fill:none;fill-opacity:0;stroke:#494936;stroke-width:0.02"
             inkscape:connector-curvature="0" />
          <path
             id="path5271"
             d="m 1564.71,854.622 0,16.104 21.18,0 0,-16.104 -21.18,0 z"
             style="fill:#b7b79d"
             inkscape:connector-curvature="0" />
          <path
             id="path5273"
             d="m 1564.71,854.622 0,16.104 21.18,0 0,-16.104 -21.18,0"
             style="fill:none;fill-opacity:0;stroke:#494936;stroke-width:0.02"
             inkscape:connector-curvature="0" />
          <path
             id="path5275"
             d="m 1578.36,861.383 0,-0.121 0,-0.126 -0.02,-0.116 -0.02,-0.116 -0.03,-0.126 -0.03,-0.112 -0.04,-0.116 -0.04,-0.108 -0.05,-0.112 -0.06,-0.102 -0.06,-0.103 -0.07,-0.108 -0.07,-0.089 -0.08,-0.099 -0.08,-0.094 -0.08,-0.085 -0.09,-0.076 -0.09,-0.081 -0.1,-0.067 -0.1,-0.063 -0.11,-0.067 -0.11,-0.049 -0.11,-0.054 -0.11,-0.044 -0.11,-0.041 -0.11,-0.036 -0.12,-0.017 -0.12,-0.023 -0.12,-0.022 -0.12,0 -0.12,-0.009 0,0 -0.11,0.009 -0.13,0 -0.12,0.022 -0.12,0.023 -0.12,0.017 -0.11,0.036 -0.11,0.041 -0.11,0.044 -0.12,0.054 -0.1,0.049 -0.11,0.067 -0.1,0.063 -0.09,0.067 -0.09,0.081 -0.1,0.076 -0.09,0.085 -0.07,0.094 -0.08,0.099 -0.07,0.089 -0.06,0.108 -0.07,0.103 -0.06,0.102 -0.05,0.112 -0.04,0.108 -0.04,0.116 -0.03,0.112 -0.03,0.126 -0.02,0.116 -0.01,0.116 -0.02,0.126 0,0.121 0,0 0,0.116 0.02,0.121 0.01,0.121 0.02,0.121 0.03,0.112 0.03,0.116 0.04,0.116 0.04,0.108 0.05,0.112 0.06,0.107 0.07,0.108 0.06,0.094 0.07,0.103 0.08,0.089 0.07,0.09 0.09,0.085 0.1,0.08 0.09,0.081 0.09,0.071 0.1,0.068 0.11,0.058 0.1,0.054 0.12,0.053 0.11,0.05 0.11,0.035 0.11,0.032 0.12,0.027 0.12,0.022 0.12,0.013 0.13,0.009 0.11,0.005 0,0 0.12,-0.005 0.12,-0.009 0.12,-0.013 0.12,-0.022 0.12,-0.027 0.11,-0.032 0.11,-0.035 0.11,-0.05 0.11,-0.053 0.11,-0.054 0.11,-0.058 0.1,-0.068 0.1,-0.071 0.09,-0.081 0.09,-0.08 0.08,-0.085 0.08,-0.09 0.08,-0.089 0.07,-0.103 0.07,-0.094 0.06,-0.108 0.06,-0.107 0.05,-0.112 0.04,-0.108 0.04,-0.116 0.03,-0.116 0.03,-0.112 0.02,-0.121 0.02,-0.121 0,-0.121 0,-0.116 z"
             style="fill:#000000"
             inkscape:connector-curvature="0" />
          <path
             id="path5277"
             d="m 1578.17,861.186 0,-0.126 -0.02,-0.116 -0.01,-0.121 -0.01,-0.116 -0.03,-0.126 -0.04,-0.112 -0.04,-0.112 -0.05,-0.112 -0.04,-0.111 -0.06,-0.103 -0.06,-0.103 -0.07,-0.108 -0.06,-0.094 -0.07,-0.098 -0.09,-0.09 -0.09,-0.081 -0.09,-0.085 -0.09,-0.076 -0.1,-0.067 -0.1,-0.071 -0.1,-0.063 -0.1,-0.058 -0.12,-0.05 -0.11,-0.04 -0.11,-0.036 -0.12,-0.044 -0.11,-0.023 -0.12,-0.022 -0.13,-0.009 -0.11,-0.014 -0.13,0 0,0 -0.12,0 -0.11,0.014 -0.12,0.009 -0.12,0.022 -0.11,0.023 -0.13,0.044 -0.11,0.036 -0.11,0.04 -0.11,0.05 -0.1,0.058 -0.11,0.063 -0.09,0.071 -0.1,0.067 -0.09,0.076 -0.09,0.085 -0.09,0.081 -0.08,0.09 -0.09,0.098 -0.06,0.094 -0.07,0.108 -0.05,0.103 -0.07,0.103 -0.05,0.111 -0.04,0.112 -0.03,0.112 -0.04,0.112 -0.03,0.126 -0.02,0.116 -0.01,0.121 -0.02,0.116 0,0.126 0,0 0,0.12 0.02,0.117 0.01,0.121 0.02,0.121 0.03,0.12 0.04,0.112 0.03,0.112 0.04,0.112 0.05,0.112 0.07,0.108 0.05,0.107 0.07,0.108 0.06,0.089 0.09,0.09 0.08,0.098 0.09,0.081 0.09,0.076 0.09,0.08 0.1,0.076 0.09,0.063 0.11,0.067 0.1,0.058 0.11,0.041 0.11,0.049 0.11,0.036 0.13,0.04 0.11,0.023 0.12,0.022 0.12,0.013 0.11,0.014 0.12,0 0,0 0.13,0 0.11,-0.014 0.13,-0.013 0.12,-0.022 0.11,-0.023 0.12,-0.04 0.11,-0.036 0.11,-0.049 0.12,-0.041 0.1,-0.058 0.1,-0.067 0.1,-0.063 0.1,-0.076 0.09,-0.08 0.09,-0.076 0.09,-0.081 0.09,-0.098 0.07,-0.09 0.06,-0.089 0.07,-0.108 0.06,-0.107 0.06,-0.108 0.04,-0.112 0.05,-0.112 0.04,-0.112 0.04,-0.112 0.03,-0.12 0.01,-0.121 0.01,-0.121 0.02,-0.117 0,-0.12"
             style="fill:none;fill-opacity:0;stroke:#000000;stroke-width:0.02"
             inkscape:connector-curvature="0" />
          <path
             id="path5279"
             d="m 1575.21,860.792 1.38,0 0,7.149 -1.38,0 0,-7.149 z"
             style="fill:#000000"
             inkscape:connector-curvature="0" />
          <path
             id="path5281"
             d="m 1575.21,860.792 1.38,0 0,7.145 -1.38,0 0,-7.145"
             style="fill:none;fill-opacity:0;stroke:#000000;stroke-width:0.02"
             inkscape:connector-curvature="0" />
          <path
             id="path5283"
             d="m 1570.06,852.63 2.36,-2.18 2.39,0 -2.39,2.18 -2.36,0 z"
             style="fill:#93936c"
             inkscape:connector-curvature="0" />
          <path
             id="path5285"
             d="m 1582.34,852.63 2.36,-2.18 2.38,0 -2.38,2.18 -2.36,0 z"
             style="fill:#93936c"
             inkscape:connector-curvature="0" />
          <path
             id="path5287"
             d="m 1584.7,852.63 0,-0.031 0,-0.045 -0.01,-0.04 -0.01,-0.036 -0.02,-0.045 -0.01,-0.036 -0.02,-0.04 -0.02,-0.036 -0.03,-0.036 -0.03,-0.031 -0.04,-0.045 -0.03,-0.031 -0.04,-0.027 -0.05,-0.036 -0.04,-0.026 -0.04,-0.027 -0.04,-0.027 -0.06,-0.023 -0.05,-0.031 -0.06,-0.027 -0.05,-0.018 -0.06,-0.018 -0.06,-0.018 -0.07,-0.008 -0.05,-0.018 -0.06,-0.005 -0.07,-0.009 -0.06,-0.013 -0.07,-0.005 -0.06,0 -0.07,0 0,0 -0.06,0 -0.07,0 -0.07,0.005 -0.06,0.013 -0.06,0.009 -0.06,0.005 -0.07,0.018 -0.06,0.008 -0.06,0.018 -0.06,0.018 -0.06,0.018 -0.05,0.027 -0.05,0.031 -0.05,0.023 -0.05,0.027 -0.04,0.027 -0.05,0.026 -0.03,0.036 -0.04,0.027 -0.04,0.031 -0.03,0.045 -0.04,0.031 -0.03,0.036 -0.02,0.036 -0.02,0.04 -0.02,0.036 -0.01,0.045 -0.01,0.036 -0.02,0.04 0,0.045 0,0.031 0,0 0,0.045 0,0.036 0.02,0.045 0.01,0.04 0.01,0.031 0.02,0.045 0.02,0.036 0.02,0.045 0.03,0.031 0.04,0.036 0.03,0.036 0.04,0.035 0.04,0.032 0.03,0.031 0.05,0.031 0.04,0.027 0.05,0.027 0.05,0.022 0.05,0.027 0.05,0.018 0.06,0.023 0.06,0.022 0.06,0.013 0.06,0.018 0.07,0.009 0.06,0.014 0.06,0.004 0.06,0.005 0.07,0.013 0.07,0.005 0.06,0 0,0 0.07,0 0.06,-0.005 0.07,-0.013 0.06,-0.005 0.07,-0.004 0.06,-0.014 0.05,-0.009 0.07,-0.018 0.06,-0.013 0.06,-0.022 0.05,-0.023 0.06,-0.018 0.05,-0.027 0.06,-0.022 0.04,-0.027 0.04,-0.027 0.04,-0.031 0.05,-0.031 0.04,-0.032 0.03,-0.035 0.04,-0.036 0.03,-0.036 0.03,-0.031 0.02,-0.045 0.02,-0.036 0.01,-0.045 0.02,-0.031 0.01,-0.04 0.01,-0.045 0,-0.036 0,-0.045 z"
             style="fill:#b7b79d"
             inkscape:connector-curvature="0" />
          <path
             id="path5289"
             d="m 1584.51,852.442 0,-0.04 0,-0.045 -0.02,-0.036 0,-0.036 -0.02,-0.049 -0.01,-0.036 -0.02,-0.04 -0.02,-0.036 -0.03,-0.035 -0.03,-0.027 -0.03,-0.045 -0.03,-0.036 -0.03,-0.027 -0.05,-0.027 -0.04,-0.035 -0.04,-0.027 -0.04,-0.023 -0.05,-0.031 -0.05,-0.022 -0.05,-0.027 -0.06,-0.023 -0.05,-0.009 -0.04,-0.022 -0.06,-0.009 -0.06,-0.022 -0.06,-0.009 -0.06,-0.014 -0.06,-0.004 -0.06,0 -0.06,-0.005 -0.06,0 0,0 -0.06,0 -0.06,0.005 -0.06,0 -0.06,0.004 -0.06,0.014 -0.07,0.009 -0.05,0.022 -0.06,0.009 -0.05,0.022 -0.05,0.009 -0.06,0.023 -0.04,0.027 -0.04,0.022 -0.05,0.031 -0.05,0.023 -0.04,0.027 -0.05,0.035 -0.03,0.027 -0.04,0.027 -0.02,0.036 -0.04,0.045 -0.03,0.027 -0.02,0.035 -0.02,0.036 -0.03,0.04 -0.01,0.036 -0.01,0.049 -0.01,0.036 -0.02,0.036 0,0.045 0,0.04 0,0 0,0.036 0,0.04 0.02,0.045 0.01,0.036 0.01,0.049 0.01,0.031 0.03,0.036 0.02,0.045 0.02,0.036 0.03,0.027 0.04,0.036 0.02,0.044 0.04,0.027 0.03,0.032 0.05,0.031 0.04,0.027 0.05,0.022 0.05,0.031 0.04,0.027 0.04,0.023 0.06,0.018 0.05,0.013 0.05,0.013 0.06,0.018 0.05,0.009 0.07,0.023 0.06,0 0.06,0.018 0.06,0 0.06,0.004 0.06,0 0,0 0.06,0 0.06,-0.004 0.06,0 0.06,-0.018 0.06,0 0.06,-0.023 0.06,-0.009 0.06,-0.018 0.04,-0.013 0.05,-0.013 0.06,-0.018 0.05,-0.023 0.05,-0.027 0.05,-0.031 0.04,-0.022 0.04,-0.027 0.04,-0.031 0.05,-0.032 0.03,-0.027 0.03,-0.044 0.03,-0.036 0.03,-0.027 0.03,-0.036 0.02,-0.045 0.02,-0.036 0.01,-0.031 0.02,-0.049 0,-0.036 0.02,-0.045 0,-0.04 0,-0.036"
             style="fill:none;fill-opacity:0;stroke:#494936;stroke-width:0.02"
             inkscape:connector-curvature="0" />
          <path
             id="path5291"
             d="m 1584.69,846.474 0,-0.425 -0.04,-0.416 -0.04,-0.421 -0.08,-0.421 -0.08,-0.407 -0.1,-0.408 -0.13,-0.398 -0.13,-0.399 -0.16,-0.376 -0.18,-0.371 -0.18,-0.381 -0.21,-0.344 -0.22,-0.336 -0.24,-0.336 -0.26,-0.304 -0.26,-0.305 -0.27,-0.282 -0.29,-0.273 -0.32,-0.246 -0.3,-0.233 -0.32,-0.215 -0.35,-0.197 -0.33,-0.174 -0.35,-0.153 -0.35,-0.138 -0.37,-0.126 -0.37,-0.089 -0.37,-0.076 -0.37,-0.045 -0.37,-0.045 -0.38,0 -0.37,0 -0.38,0.045 -0.38,0.045 -0.36,0.076 -0.36,0.089 -0.37,0.126 -0.35,0.138 -0.35,0.153 -0.35,0.174 -0.33,0.197 -0.32,0.215 -0.31,0.233 -0.31,0.246 -0.29,0.273 -0.28,0.282 -0.26,0.305 -0.26,0.304 -0.24,0.336 -0.21,0.336 -0.21,0.344 -0.19,0.381 -0.17,0.371 -0.16,0.376 -0.14,0.399 -0.13,0.398 -0.09,0.408 -0.1,0.407 -0.07,0.421 -0.04,0.421 -0.03,0.416 -0.01,0.425"
             style="fill:none;fill-opacity:0;stroke:#494936;stroke-width:0.02"
             inkscape:connector-curvature="0" />
          <path
             id="path5293"
             d="m 1582.34,846.868 2.17,0 0,5.762 -2.17,0 0,-5.762 z"
             style="fill:#b7b79d"
             inkscape:connector-curvature="0" />
          <path
             id="path5295"
             d="m 1584.51,852.433 0,-5.959"
             style="fill:none;fill-opacity:0;stroke:#494936;stroke-width:0.02"
             inkscape:connector-curvature="0" />
          <path
             id="path5297"
             d="m 1582.13,852.433 0,-5.959"
             style="fill:none;fill-opacity:0;stroke:#000000;stroke-width:0.02"
             inkscape:connector-curvature="0" />
          <path
             id="path5299"
             d="m 1572.42,852.63 0,-0.031 0,-0.045 -0.02,-0.04 0,-0.036 -0.02,-0.045 -0.02,-0.036 -0.02,-0.04 -0.02,-0.036 -0.03,-0.036 -0.03,-0.031 -0.04,-0.045 -0.03,-0.031 -0.04,-0.027 -0.04,-0.036 -0.04,-0.026 -0.04,-0.027 -0.06,-0.027 -0.05,-0.023 -0.06,-0.031 -0.05,-0.027 -0.05,-0.018 -0.06,-0.018 -0.06,-0.018 -0.06,-0.008 -0.07,-0.018 -0.06,-0.005 -0.06,-0.009 -0.06,-0.013 -0.07,-0.005 -0.06,0 -0.06,0 0,0 -0.07,0 -0.07,0 -0.07,0.005 -0.05,0.013 -0.06,0.009 -0.07,0.005 -0.06,0.018 -0.06,0.008 -0.06,0.018 -0.06,0.018 -0.06,0.018 -0.05,0.027 -0.05,0.031 -0.06,0.023 -0.04,0.027 -0.05,0.027 -0.04,0.026 -0.04,0.036 -0.04,0.027 -0.03,0.031 -0.04,0.045 -0.04,0.031 -0.02,0.036 -0.02,0.036 -0.02,0.04 -0.02,0.036 -0.02,0.045 -0.01,0.036 -0.01,0.04 0,0.045 0,0.031 0,0 0,0.045 0,0.036 0.01,0.045 0.01,0.04 0.02,0.031 0.02,0.045 0.02,0.036 0.02,0.045 0.02,0.031 0.04,0.036 0.04,0.036 0.03,0.035 0.04,0.032 0.04,0.031 0.04,0.031 0.05,0.027 0.04,0.027 0.06,0.022 0.05,0.027 0.05,0.018 0.06,0.023 0.06,0.022 0.06,0.013 0.06,0.018 0.06,0.009 0.07,0.014 0.06,0.004 0.05,0.005 0.07,0.013 0.07,0.005 0.07,0 0,0 0.06,0 0.06,-0.005 0.07,-0.013 0.06,-0.005 0.06,-0.004 0.06,-0.014 0.07,-0.009 0.06,-0.018 0.06,-0.013 0.06,-0.022 0.05,-0.023 0.05,-0.018 0.06,-0.027 0.05,-0.022 0.06,-0.027 0.04,-0.027 0.04,-0.031 0.04,-0.031 0.04,-0.032 0.03,-0.035 0.04,-0.036 0.03,-0.036 0.03,-0.031 0.02,-0.045 0.02,-0.036 0.02,-0.045 0.02,-0.031 0,-0.04 0.02,-0.045 0,-0.036 0,-0.045 z"
             style="fill:#b7b79d"
             inkscape:connector-curvature="0" />
          <path
             id="path5301"
             d="m 1572.24,852.442 0,-0.04 -0.02,-0.045 0,-0.036 -0.01,-0.036 -0.01,-0.049 -0.02,-0.036 -0.02,-0.04 -0.02,-0.036 -0.03,-0.035 -0.02,-0.027 -0.03,-0.045 -0.03,-0.036 -0.04,-0.027 -0.04,-0.027 -0.05,-0.035 -0.04,-0.027 -0.04,-0.023 -0.05,-0.031 -0.04,-0.022 -0.05,-0.027 -0.06,-0.023 -0.05,-0.009 -0.06,-0.022 -0.06,-0.009 -0.05,-0.022 -0.06,-0.009 -0.06,-0.014 -0.05,-0.004 -0.06,0 -0.07,-0.005 -0.06,0 0,0 -0.06,0 -0.05,0.005 -0.06,0 -0.07,0.004 -0.05,0.014 -0.06,0.009 -0.05,0.022 -0.06,0.009 -0.06,0.022 -0.05,0.009 -0.05,0.023 -0.05,0.027 -0.05,0.022 -0.06,0.031 -0.04,0.023 -0.03,0.027 -0.05,0.035 -0.04,0.027 -0.04,0.027 -0.03,0.036 -0.03,0.045 -0.03,0.027 -0.02,0.035 -0.02,0.036 -0.02,0.04 -0.02,0.036 -0.02,0.049 0,0.036 -0.01,0.036 -0.01,0.045 0,0.04 0,0 0,0.036 0.01,0.04 0.01,0.045 0,0.036 0.02,0.049 0.02,0.031 0.02,0.036 0.02,0.045 0.02,0.036 0.03,0.027 0.03,0.036 0.03,0.044 0.04,0.027 0.04,0.032 0.05,0.031 0.03,0.027 0.04,0.022 0.06,0.031 0.05,0.027 0.05,0.023 0.05,0.018 0.05,0.013 0.06,0.013 0.06,0.018 0.05,0.009 0.06,0.023 0.05,0 0.07,0.018 0.06,0 0.05,0.004 0.06,0 0,0 0.06,0 0.07,-0.004 0.06,0 0.05,-0.018 0.06,0 0.06,-0.023 0.05,-0.009 0.06,-0.018 0.06,-0.013 0.05,-0.013 0.06,-0.018 0.05,-0.023 0.04,-0.027 0.05,-0.031 0.04,-0.022 0.04,-0.027 0.05,-0.031 0.04,-0.032 0.04,-0.027 0.03,-0.044 0.03,-0.036 0.02,-0.027 0.03,-0.036 0.02,-0.045 0.02,-0.036 0.02,-0.031 0.01,-0.049 0.01,-0.036 0,-0.045 0.02,-0.04 0,-0.036"
             style="fill:none;fill-opacity:0;stroke:#494936;stroke-width:0.02"
             inkscape:connector-curvature="0" />
          <path
             id="path5303"
             d="m 1570.06,846.868 2.18,0 0,5.762 -2.18,0 0,-5.762 z"
             style="fill:#7a7a5a"
             inkscape:connector-curvature="0" />
          <path
             id="path5305"
             d="m 1582.32,846.864 0,-0.313 -0.02,-0.314 -0.03,-0.322 -0.04,-0.305 -0.06,-0.308 -0.07,-0.309 -0.08,-0.296 -0.09,-0.295 -0.11,-0.291 -0.11,-0.278 -0.13,-0.277 -0.13,-0.269 -0.15,-0.26 -0.15,-0.25 -0.17,-0.229 -0.18,-0.224 -0.18,-0.223 -0.2,-0.202 -0.19,-0.192 -0.21,-0.184 -0.22,-0.17 -0.22,-0.143 -0.23,-0.139 -0.22,-0.112 -0.24,-0.112 -0.24,-0.094 -0.25,-0.081 -0.25,-0.067 -0.24,-0.04 -0.25,-0.036 -0.25,-0.018 -0.26,0 -0.25,0.018 -0.24,0.036 -0.26,0.04 -0.24,0.067 -0.25,0.081 -0.25,0.094 -0.22,0.112 -0.23,0.112 -0.24,0.139 -0.21,0.143 -0.22,0.17 -0.2,0.184 -0.2,0.192 -0.2,0.202 -0.19,0.223 -0.17,0.224 -0.16,0.229 -0.15,0.25 -0.16,0.26 -0.13,0.269 -0.13,0.277 -0.11,0.278 -0.11,0.291 -0.09,0.295 -0.08,0.296 -0.06,0.309 -0.07,0.308 -0.05,0.305 -0.02,0.322 -0.02,0.314 0,0.313"
             style="fill:none;fill-opacity:0;stroke:#494936;stroke-width:0.02"
             inkscape:connector-curvature="0" />
          <path
             id="path5307"
             d="m 1570.06,846.868 2.18,0 0,5.762 -2.18,0 0,-5.762 z"
             style="fill:#b7b79d"
             inkscape:connector-curvature="0" />
          <path
             id="path5309"
             d="m 1569.85,852.433 0,-5.959"
             style="fill:none;fill-opacity:0;stroke:#494936;stroke-width:0.02"
             inkscape:connector-curvature="0" />
          <path
             id="path5311"
             d="m 1572.24,852.433 0,-5.959"
             style="fill:none;fill-opacity:0;stroke:#000000;stroke-width:0.02"
             inkscape:connector-curvature="0" />
          <path
             id="path5313"
             d="m 1577.05,838.725 -0.35,-0.005 -0.35,0.023 -0.35,0.04 -0.36,0.054 -0.33,0.098 -0.34,0.112 -0.33,0.126 -0.33,0.161 -0.32,0.17 -0.32,0.197 -0.3,0.219 -0.29,0.233 -0.28,0.264 -0.28,0.273 -0.26,0.296 -0.23,0.309 -0.24,0.327 -0.22,0.34 -0.21,0.362 -0.18,0.363 -0.18,0.381"
             style="fill:none;fill-opacity:0;stroke:#dbdbce;stroke-width:0.63999999"
             inkscape:connector-curvature="0" />
        </g>
        <g
           id="g5315">
          <path
             id="path5317"
             d="m 1217.78,855.836 c -31.51,0 -55.93,49.732 -9.53,85.013"
             style="fill:none;fill-opacity:0;stroke:#000000;stroke-width:2;stroke-dasharray:4"
             inkscape:connector-curvature="0" />
          <polygon
             id="polygon5319"
             points="1208.25,940.849 1209.28,935.355 1214.22,945.388 1203.23,943.315 "
             style="fill:#000000" />
          <polygon
             id="polygon5321"
             points="1208.25,940.849 1209.28,935.355 1214.22,945.388 1203.23,943.315 "
             style="fill:none;fill-opacity:0;stroke:#000000;stroke-width:2" />
        </g>
        <g
           id="g5323">
          <path
             id="path5325"
             d="m 1218.77,961.066 c -31.51,0 -54.14,23.834 -7.75,59.114"
             style="fill:none;fill-opacity:0;stroke:#000000;stroke-width:2;stroke-dasharray:4"
             inkscape:connector-curvature="0" />
          <polygon
             id="polygon5327"
             points="1211.02,1020.18 1212.06,1014.69 1216.99,1024.72 1206.01,1022.65 "
             style="fill:#000000" />
          <polygon
             id="polygon5329"
             points="1211.02,1020.18 1212.06,1014.69 1216.99,1024.72 1206.01,1022.65 "
             style="fill:none;fill-opacity:0;stroke:#000000;stroke-width:2" />
        </g>
        <g
           id="g5331">
          <path
             id="path5333"
             d="m 1217.6,1042.43 c -31.51,0 -54.14,23.83 -7.75,59.11"
             style="fill:none;fill-opacity:0;stroke:#000000;stroke-width:2;stroke-dasharray:4"
             inkscape:connector-curvature="0" />
          <polygon
             id="polygon5335"
             points="1209.85,1101.54 1210.89,1096.05 1215.82,1106.08 1204.84,1104.01 "
             style="fill:#000000" />
          <polygon
             id="polygon5337"
             points="1209.85,1101.54 1210.89,1096.05 1215.82,1106.08 1204.84,1104.01 "
             style="fill:none;fill-opacity:0;stroke:#000000;stroke-width:2" />
        </g>
        <text
           id="text5339"
           y="820.71198"
           x="1142.75"
           style="font-style:normal;font-weight:normal;font-size:12.80000019px;font-family:sans-serif;text-anchor:start;fill:#000000"
           font-size="12.8">
          <tspan
             id="tspan5341"
             y="820.71198"
             x="1142.75">Combiner thread</tspan>
        </text>
        <g
           id="g5343">
          <line
             id="line5345"
             y2="818.203"
             x2="1271.0601"
             y1="816.71198"
             x1="1256.75"
             style="fill:none;fill-opacity:0;stroke:#000000;stroke-width:2" />
          <polygon
             id="polygon5347"
             points="1271.06,818.203 1269.1,812.971 1278.52,818.98 1268.06,822.917 "
             style="fill:#000000" />
          <polygon
             id="polygon5349"
             points="1271.06,818.203 1269.1,812.971 1278.52,818.98 1268.06,822.917 "
             style="fill:none;fill-opacity:0;stroke:#000000;stroke-width:2" />
        </g>
        <g
           id="g5351">
          <path
             id="path5353"
             d="m 1338.35,834.95 c 86.82,-66.124 152.48,21.22 216.63,21.22"
             style="fill:none;fill-opacity:0;stroke:#000000;stroke-width:2"
             inkscape:connector-curvature="0" />
          <polygon
             id="polygon5355"
             points="1554.98,856.17 1552.48,851.17 1562.48,856.17 1552.48,861.17 "
             style="fill:#000000" />
          <polygon
             id="polygon5357"
             points="1554.98,856.17 1552.48,851.17 1562.48,856.17 1552.48,861.17 "
             style="fill:none;fill-opacity:0;stroke:#000000;stroke-width:2" />
        </g>
        <g
           id="g5359">
          <rect
             id="rect5361"
             height="39.803501"
             width="184.295"
             y="940.716"
             x="1460.01"
             style="fill:#ffffff" />
          <rect
             id="rect5363"
             height="39.803501"
             width="184.295"
             y="940.716"
             x="1460.01"
             style="fill:none;fill-opacity:0;stroke:#000000;stroke-width:2" />
        </g>
        <text
           id="text5365"
           y="965.19"
           x="1480.1801"
           style="font-style:italic;font-weight:700;font-size:11.7968998px;font-family:sans-serif;text-anchor:start;fill:#000000"
           font-size="11.7969">
          <tspan
             id="tspan5367"
             y="965.19"
             x="1480.1801">Publication List HEAD</tspan>
        </text>
        <g
           id="g5369">
          <path
             id="path5371"
             d="m 1405.75,857.71 a 11.0016,11.0016 0 1 0 9.06,-15.799"
             style="fill:none;fill-opacity:0;stroke:#000000;stroke-width:2"
             inkscape:connector-curvature="0" />
          <polygon
             id="polygon5373"
             points="1414.54,838.232 1419.86,839.926 1409.31,843.607 1412.7,832.953 "
             style="fill:#000000" />
          <polygon
             id="polygon5375"
             points="1414.54,838.232 1419.86,839.926 1409.31,843.607 1412.7,832.953 "
             style="fill:none;fill-opacity:0;stroke:#000000;stroke-width:2" />
        </g>
        <g
           id="g5377">
          <path
             id="path5379"
             d="m 1411.45,949.184 a 11.0016,11.0016 0 1 0 9.06,-15.799"
             style="fill:none;fill-opacity:0;stroke:#000000;stroke-width:2"
             inkscape:connector-curvature="0" />
          <polygon
             id="polygon5381"
             points="1420.24,929.706 1425.56,931.4 1415.01,935.081 1418.4,924.427 "
             style="fill:#000000" />
          <polygon
             id="polygon5383"
             points="1420.24,929.706 1425.56,931.4 1415.01,935.081 1418.4,924.427 "
             style="fill:none;fill-opacity:0;stroke:#000000;stroke-width:2" />
        </g>
        <g
           id="g5385">
          <path
             id="path5387"
             d="m 1413.65,1031.66 a 11.0016,11.0016 0 1 0 9.06,-15.8"
             style="fill:none;fill-opacity:0;stroke:#000000;stroke-width:2"
             inkscape:connector-curvature="0" />
          <polygon
             id="polygon5389"
             points="1422.44,1012.18 1427.76,1013.87 1417.21,1017.56 1420.6,1006.9 "
             style="fill:#000000" />
          <polygon
             id="polygon5391"
             points="1422.44,1012.18 1427.76,1013.87 1417.21,1017.56 1420.6,1006.9 "
             style="fill:none;fill-opacity:0;stroke:#000000;stroke-width:2" />
        </g>
        <g
           id="g5393">
          <path
             id="path5395"
             d="m 1415.35,1116.13 a 11.0016,11.0016 0 1 0 9.06,-15.8"
             style="fill:none;fill-opacity:0;stroke:#000000;stroke-width:2"
             inkscape:connector-curvature="0" />
          <polygon
             id="polygon5397"
             points="1424.14,1096.65 1429.46,1098.35 1418.91,1102.03 1422.3,1091.38 "
             style="fill:#000000" />
          <polygon
             id="polygon5399"
             points="1424.14,1096.65 1429.46,1098.35 1418.91,1102.03 1422.3,1091.38 "
             style="fill:none;fill-opacity:0;stroke:#000000;stroke-width:2" />
        </g>
        <text
           id="text5401"
           y="890.75"
           x="1397.71"
           style="font-style:normal;font-weight:normal;font-size:12.80000019px;font-family:sans-serif;text-anchor:start;fill:#000000"
           font-size="12.8">
          <tspan
             id="tspan5403"
             y="890.75"
             x="1397.71">2.local</tspan>
          <tspan
             id="tspan5405"
             y="906.75"
             x="1397.71">record</tspan>
        </text>
        <g
           id="g5407">
          <path
             id="path5409"
             d="M 1646.24,949.71 C 1735.2,655.906 1352.83,806.212 1257.99,806.212"
             style="fill:none;fill-opacity:0;stroke:#000000;stroke-width:2;stroke-dasharray:4"
             inkscape:connector-curvature="0" />
          <polygon
             id="polygon5411"
             points="1257.99,806.212 1260.49,811.212 1250.49,806.212 1260.49,801.212 "
             style="fill:#000000" />
          <polygon
             id="polygon5413"
             points="1257.99,806.212 1260.49,811.212 1250.49,806.212 1260.49,801.212 "
             style="fill:none;fill-opacity:0;stroke:#000000;stroke-width:2" />
        </g>
        <text
           id="text5415"
           y="806.93402"
           x="1439.6899"
           style="font-style:normal;font-weight:normal;font-size:12.80000019px;font-family:sans-serif;text-anchor:start;fill:#000000"
           font-size="12.8">
          <tspan
             id="tspan5417"
             y="806.93402"
             x="1439.6899">1. Lock</tspan>
        </text>
        <text
           id="text5419"
           y="979.90997"
           x="1400.3199"
           style="font-style:normal;font-weight:normal;font-size:12.80000019px;font-family:sans-serif;text-anchor:start;fill:#000000"
           font-size="12.8">
          <tspan
             id="tspan5421"
             y="979.90997"
             x="1400.3199">2.local</tspan>
          <tspan
             id="tspan5423"
             y="995.90997"
             x="1400.3199">record</tspan>
        </text>
        <text
           id="text5425"
           y="1061.9399"
           x="1402.34"
           style="font-style:normal;font-weight:normal;font-size:12.80000019px;font-family:sans-serif;text-anchor:start;fill:#000000"
           font-size="12.8">
          <tspan
             id="tspan5427"
             y="1061.9399"
             x="1402.34">2.local</tspan>
          <tspan
             id="tspan5429"
             y="1077.9399"
             x="1402.34">record</tspan>
        </text>
        <text
           id="text5431"
           y="1141.58"
           x="1404.37"
           style="font-style:normal;font-weight:normal;font-size:12.80000019px;font-family:sans-serif;text-anchor:start;fill:#000000"
           font-size="12.8">
          <tspan
             id="tspan5433"
             y="1141.58"
             x="1404.37">2.local</tspan>
          <tspan
             id="tspan5435"
             y="1157.58"
             x="1404.37">record</tspan>
        </text>
        <text
           id="text5437"
           y="927.60797"
           x="1483.33"
           style="font-style:normal;font-weight:normal;font-size:12.80000019px;font-family:sans-serif;text-anchor:start;fill:#000000"
           font-size="12.8">
          <tspan
             id="tspan5439"
             y="927.60797"
             x="1483.33">3. combiner traverse list</tspan>
        </text>
        <g
           id="g5441">
          <path
             id="path5443"
             d="m 1515.72,1073.34 0,-2.44 0.49,-1.95 0.49,-1.22 0.96,-1.47 0.98,-0.97 1.71,-1.48 0.98,-0.48 1.22,-0.49 1.22,-0.23 0.98,0 1.46,0.23 0.97,0.25 1.96,0.72 1.46,1.48 0.98,0.97 0.96,1.71 0.49,1.47 0.5,1.94 0,0.74 0,1.46 -2.93,-0.24 0,-1.22 0,-0.74 -0.25,-1.22 -0.48,-0.72 -0.5,-0.98 -0.47,-0.73 -0.75,-0.74 -0.97,-0.48 -0.97,-0.49 -0.73,-0.25 -0.98,0 -1.21,0 -0.99,0.49 -1.46,0.98 -0.97,1.22 -0.74,1.46 -0.24,1.22 -0.48,1.46 0.23,1.46 -2.92,-0.72 z"
             style="fill:#b7b79d"
             inkscape:connector-curvature="0" />
          <path
             id="path5445"
             d="m 1509.13,1082.85 5.36,-5.36 26.35,0 -5.61,5.36 -26.1,0 z"
             style="fill:#c9c9b6"
             inkscape:connector-curvature="0" />
          <path
             id="path5447"
             d="m 1509.13,1082.85 5.36,-5.36 26.35,0 -5.61,5.36 -26.1,0"
             style="fill:none;fill-opacity:0;stroke:#494936;stroke-width:0.02"
             inkscape:connector-curvature="0" />
          <path
             id="path5449"
             d="m 1535.23,1102.37 5.61,-5.37 0,-19.51 -5.61,5.36 0,19.52 z"
             style="fill:#7a7a5a"
             inkscape:connector-curvature="0" />
          <path
             id="path5451"
             d="m 1535.23,1102.37 5.61,-5.37 0,-19.51 -5.61,5.36 0,19.52"
             style="fill:none;fill-opacity:0;stroke:#494936;stroke-width:0.02"
             inkscape:connector-curvature="0" />
          <path
             id="path5453"
             d="m 1509.13,1082.85 0,19.76 26.1,0 0,-19.76 -26.1,0 z"
             style="fill:#b7b79d"
             inkscape:connector-curvature="0" />
          <path
             id="path5455"
             d="m 1509.13,1082.85 0,19.76 26.1,0 0,-19.76 -26.1,0"
             style="fill:none;fill-opacity:0;stroke:#494936;stroke-width:0.02"
             inkscape:connector-curvature="0" />
          <path
             id="path5457"
             d="m 1525.95,1091.14 0,-0.15 -0.01,-0.15 -0.02,-0.14 -0.03,-0.15 -0.03,-0.14 -0.04,-0.14 -0.05,-0.14 -0.05,-0.14 -0.06,-0.14 -0.07,-0.13 -0.08,-0.12 -0.09,-0.13 -0.08,-0.11 -0.09,-0.12 -0.1,-0.12 -0.1,-0.1 -0.12,-0.09 -0.11,-0.1 -0.12,-0.09 -0.12,-0.08 -0.12,-0.07 -0.14,-0.07 -0.14,-0.07 -0.14,-0.05 -0.13,-0.05 -0.14,-0.04 -0.15,-0.03 -0.14,-0.03 -0.15,-0.02 -0.15,0 -0.15,-0.02 0,0 -0.15,0.02 -0.15,0 -0.15,0.02 -0.14,0.03 -0.15,0.03 -0.14,0.04 -0.13,0.05 -0.14,0.05 -0.14,0.07 -0.12,0.07 -0.14,0.07 -0.12,0.08 -0.11,0.09 -0.13,0.1 -0.11,0.09 -0.1,0.1 -0.1,0.12 -0.09,0.12 -0.09,0.11 -0.08,0.13 -0.08,0.12 -0.07,0.13 -0.06,0.14 -0.05,0.14 -0.05,0.14 -0.04,0.14 -0.03,0.14 -0.03,0.15 -0.02,0.14 -0.01,0.15 -0.01,0.15 0,0 0.01,0.15 0.01,0.15 0.02,0.14 0.03,0.15 0.03,0.14 0.04,0.14 0.05,0.15 0.05,0.13 0.06,0.14 0.07,0.13 0.08,0.13 0.08,0.12 0.09,0.12 0.09,0.11 0.1,0.11 0.1,0.11 0.11,0.1 0.13,0.09 0.11,0.08 0.12,0.09 0.14,0.07 0.12,0.07 0.14,0.06 0.14,0.06 0.13,0.05 0.14,0.04 0.15,0.03 0.14,0.03 0.15,0.02 0.15,0 0.15,0.01 0,0 0.15,-0.01 0.15,0 0.15,-0.02 0.14,-0.03 0.15,-0.03 0.14,-0.04 0.13,-0.05 0.14,-0.06 0.14,-0.06 0.14,-0.07 0.12,-0.07 0.12,-0.09 0.12,-0.08 0.11,-0.09 0.12,-0.1 0.1,-0.11 0.1,-0.11 0.09,-0.11 0.08,-0.12 0.09,-0.12 0.08,-0.13 0.07,-0.13 0.06,-0.14 0.05,-0.13 0.05,-0.15 0.04,-0.14 0.03,-0.14 0.03,-0.15 0.02,-0.14 0.01,-0.15 0,-0.15 z"
             style="fill:#000000"
             inkscape:connector-curvature="0" />
          <path
             id="path5459"
             d="m 1525.72,1090.9 0,-0.15 -0.01,-0.14 -0.03,-0.15 -0.02,-0.15 -0.03,-0.15 -0.04,-0.13 -0.05,-0.14 -0.06,-0.14 -0.06,-0.15 -0.07,-0.12 -0.07,-0.12 -0.08,-0.13 -0.1,-0.13 -0.09,-0.11 -0.1,-0.11 -0.09,-0.1 -0.12,-0.1 -0.11,-0.09 -0.12,-0.09 -0.12,-0.09 -0.14,-0.07 -0.12,-0.08 -0.14,-0.05 -0.14,-0.06 -0.13,-0.04 -0.14,-0.05 -0.16,-0.03 -0.14,-0.02 -0.15,-0.03 -0.15,-0.01 -0.15,0 0,0 -0.14,0 -0.15,0.01 -0.15,0.03 -0.14,0.02 -0.16,0.03 -0.14,0.05 -0.14,0.04 -0.13,0.06 -0.15,0.05 -0.12,0.08 -0.12,0.07 -0.13,0.09 -0.13,0.09 -0.11,0.09 -0.11,0.1 -0.1,0.1 -0.1,0.11 -0.09,0.11 -0.1,0.13 -0.08,0.13 -0.07,0.12 -0.08,0.12 -0.05,0.15 -0.06,0.14 -0.04,0.14 -0.04,0.13 -0.04,0.15 -0.02,0.15 -0.02,0.15 -0.02,0.14 0,0.15 0,0 0,0.14 0.02,0.16 0.02,0.14 0.02,0.15 0.04,0.15 0.04,0.14 0.04,0.14 0.06,0.14 0.05,0.13 0.08,0.13 0.07,0.13 0.08,0.13 0.1,0.11 0.09,0.12 0.1,0.11 0.1,0.1 0.11,0.1 0.11,0.1 0.13,0.09 0.13,0.08 0.12,0.08 0.12,0.06 0.15,0.06 0.13,0.06 0.14,0.04 0.14,0.05 0.16,0.03 0.14,0.02 0.15,0.02 0.15,0.03 0.14,0 0,0 0.15,0 0.15,-0.03 0.15,-0.02 0.14,-0.02 0.16,-0.03 0.14,-0.05 0.13,-0.04 0.14,-0.06 0.14,-0.06 0.12,-0.06 0.14,-0.08 0.12,-0.08 0.12,-0.09 0.11,-0.1 0.12,-0.1 0.09,-0.1 0.1,-0.11 0.09,-0.12 0.1,-0.11 0.08,-0.13 0.07,-0.13 0.07,-0.13 0.06,-0.13 0.06,-0.14 0.05,-0.14 0.04,-0.14 0.03,-0.15 0.02,-0.15 0.03,-0.14 0.01,-0.16 0,-0.14"
             style="fill:none;fill-opacity:0;stroke:#000000;stroke-width:0.02"
             inkscape:connector-curvature="0" />
          <path
             id="path5461"
             d="m 1522.07,1090.41 1.7,0 0,8.79 -1.7,0 0,-8.79 z"
             style="fill:#000000"
             inkscape:connector-curvature="0" />
          <path
             id="path5463"
             d="m 1522.07,1090.41 1.7,0 0,8.78 -1.7,0 0,-8.78"
             style="fill:none;fill-opacity:0;stroke:#000000;stroke-width:0.02"
             inkscape:connector-curvature="0" />
          <path
             id="path5465"
             d="m 1515.72,1080.65 2.92,-2.92 2.93,0 -2.93,2.92 -2.92,0 z"
             style="fill:#93936c"
             inkscape:connector-curvature="0" />
          <path
             id="path5467"
             d="m 1530.83,1080.4 2.94,-2.67 2.92,0 -2.92,2.67 -2.94,0 z"
             style="fill:#93936c"
             inkscape:connector-curvature="0" />
          <path
             id="path5469"
             d="m 1533.76,1080.4 0,-0.04 -0.01,-0.05 -0.01,-0.05 -0.01,-0.05 -0.02,-0.05 -0.02,-0.05 -0.03,-0.04 -0.03,-0.05 -0.03,-0.05 -0.04,-0.04 -0.04,-0.05 -0.04,-0.03 -0.05,-0.04 -0.05,-0.05 -0.06,-0.03 -0.05,-0.03 -0.06,-0.04 -0.06,-0.02 -0.07,-0.04 -0.06,-0.03 -0.08,-0.01 -0.06,-0.04 -0.07,-0.01 -0.09,-0.02 -0.07,-0.02 -0.08,0 -0.07,-0.02 -0.07,-0.01 -0.08,-0.01 -0.09,0 -0.07,0 0,0 -0.1,0 -0.07,0 -0.09,0.01 -0.07,0.01 -0.07,0.02 -0.08,0 -0.07,0.02 -0.09,0.02 -0.06,0.01 -0.07,0.04 -0.07,0.01 -0.07,0.03 -0.07,0.04 -0.06,0.02 -0.06,0.04 -0.05,0.03 -0.06,0.03 -0.04,0.05 -0.06,0.04 -0.03,0.03 -0.05,0.05 -0.04,0.04 -0.03,0.05 -0.03,0.05 -0.02,0.04 -0.03,0.05 -0.02,0.05 0,0.05 -0.02,0.05 -0.01,0.05 0,0.04 0,0 0,0.05 0.01,0.05 0.02,0.05 0,0.05 0.02,0.05 0.03,0.04 0.02,0.05 0.03,0.05 0.03,0.04 0.04,0.05 0.05,0.05 0.03,0.03 0.06,0.04 0.04,0.04 0.06,0.03 0.05,0.05 0.06,0.03 0.06,0.02 0.07,0.03 0.07,0.04 0.07,0.02 0.07,0.03 0.06,0.02 0.09,0.01 0.07,0.02 0.08,0 0.07,0.02 0.07,0 0.09,0.01 0.07,0.01 0.1,0 0,0 0.07,0 0.09,-0.01 0.08,-0.01 0.07,0 0.07,-0.02 0.08,0 0.07,-0.02 0.09,-0.01 0.07,-0.02 0.06,-0.03 0.08,-0.02 0.06,-0.04 0.07,-0.03 0.06,-0.02 0.06,-0.03 0.05,-0.05 0.06,-0.03 0.05,-0.04 0.05,-0.04 0.04,-0.03 0.04,-0.05 0.04,-0.05 0.03,-0.04 0.03,-0.05 0.03,-0.05 0.02,-0.04 0.02,-0.05 0.01,-0.05 0.01,-0.05 0.01,-0.05 0,-0.05 z"
             style="fill:#b7b79d"
             inkscape:connector-curvature="0" />
          <path
             id="path5471"
             d="m 1533.53,1080.17 0,-0.05 0,-0.05 -0.02,-0.05 -0.01,-0.05 -0.02,-0.05 -0.01,-0.05 -0.03,-0.05 -0.03,-0.04 -0.02,-0.05 -0.05,-0.03 -0.03,-0.05 -0.04,-0.05 -0.05,-0.03 -0.04,-0.04 -0.06,-0.04 -0.04,-0.03 -0.05,-0.03 -0.07,-0.03 -0.05,-0.03 -0.07,-0.03 -0.07,-0.03 -0.07,-0.02 -0.06,-0.02 -0.07,-0.01 -0.06,-0.03 -0.08,-0.02 -0.07,0 -0.08,-0.01 -0.07,0 -0.07,-0.02 -0.07,0 0,0 -0.09,0 -0.06,0.02 -0.07,0 -0.08,0.01 -0.08,0 -0.07,0.02 -0.07,0.03 -0.07,0.01 -0.06,0.02 -0.06,0.02 -0.07,0.03 -0.06,0.03 -0.07,0.03 -0.05,0.03 -0.06,0.03 -0.04,0.03 -0.06,0.04 -0.05,0.04 -0.04,0.03 -0.04,0.05 -0.04,0.05 -0.03,0.03 -0.02,0.05 -0.03,0.04 -0.02,0.05 -0.03,0.05 -0.02,0.05 0,0.05 -0.01,0.05 -0.02,0.05 0,0.05 0,0 0,0.04 0.02,0.05 0.01,0.05 0,0.05 0.02,0.06 0.03,0.04 0.02,0.05 0.03,0.05 0.02,0.04 0.03,0.04 0.04,0.05 0.04,0.04 0.04,0.04 0.05,0.04 0.06,0.03 0.04,0.04 0.06,0.03 0.05,0.04 0.07,0.02 0.06,0.03 0.07,0.03 0.06,0.01 0.06,0.03 0.07,0.01 0.07,0.02 0.07,0.02 0.08,0 0.08,0.02 0.07,0 0.06,0.01 0.09,0 0,0 0.07,0 0.07,-0.01 0.07,0 0.08,-0.02 0.07,0 0.08,-0.02 0.06,-0.02 0.07,-0.01 0.06,-0.03 0.07,-0.01 0.07,-0.03 0.07,-0.03 0.05,-0.02 0.07,-0.04 0.05,-0.03 0.04,-0.04 0.06,-0.03 0.04,-0.04 0.05,-0.04 0.04,-0.04 0.03,-0.05 0.05,-0.04 0.02,-0.04 0.03,-0.05 0.03,-0.05 0.01,-0.04 0.02,-0.06 0.01,-0.05 0.02,-0.05 0,-0.05 0,-0.04"
             style="fill:none;fill-opacity:0;stroke:#494936;stroke-width:0.02"
             inkscape:connector-curvature="0" />
          <path
             id="path5473"
             d="m 1533.76,1072.85 -0.01,-0.53 -0.03,-0.51 -0.06,-0.51 -0.08,-0.52 -0.11,-0.5 -0.13,-0.51 -0.15,-0.48 -0.16,-0.48 -0.2,-0.48 -0.21,-0.45 -0.24,-0.46 -0.26,-0.43 -0.27,-0.41 -0.3,-0.42 -0.3,-0.36 -0.33,-0.38 -0.34,-0.34 -0.37,-0.34 -0.36,-0.3 -0.39,-0.29 -0.4,-0.25 -0.41,-0.25 -0.43,-0.22 -0.42,-0.19 -0.45,-0.17 -0.44,-0.14 -0.45,-0.12 -0.46,-0.08 -0.46,-0.07 -0.47,-0.05 -0.44,0 -0.47,0 -0.46,0.05 -0.46,0.07 -0.47,0.08 -0.45,0.12 -0.44,0.14 -0.45,0.17 -0.42,0.19 -0.42,0.22 -0.41,0.25 -0.41,0.25 -0.38,0.29 -0.37,0.3 -0.35,0.34 -0.35,0.34 -0.32,0.38 -0.32,0.36 -0.29,0.42 -0.27,0.41 -0.26,0.43 -0.23,0.46 -0.22,0.45 -0.2,0.48 -0.16,0.48 -0.17,0.48 -0.11,0.51 -0.11,0.5 -0.08,0.52 -0.06,0.51 -0.04,0.51 -0.01,0.53"
             style="fill:none;fill-opacity:0;stroke:#494936;stroke-width:0.02"
             inkscape:connector-curvature="0" />
          <path
             id="path5475"
             d="m 1530.83,1073.34 2.7,0 0,7.06 -2.7,0 0,-7.06 z"
             style="fill:#b7b79d"
             inkscape:connector-curvature="0" />
          <path
             id="path5477"
             d="m 1533.53,1080.16 0,-7.31"
             style="fill:none;fill-opacity:0;stroke:#494936;stroke-width:0.02"
             inkscape:connector-curvature="0" />
          <path
             id="path5479"
             d="m 1530.6,1080.16 0,-7.31"
             style="fill:none;fill-opacity:0;stroke:#000000;stroke-width:0.02"
             inkscape:connector-curvature="0" />
          <path
             id="path5481"
             d="m 1518.64,1080.4 0,-0.04 -0.01,-0.05 -0.01,-0.05 -0.02,-0.05 -0.01,-0.05 -0.02,-0.05 -0.03,-0.04 -0.03,-0.05 -0.03,-0.05 -0.05,-0.04 -0.03,-0.05 -0.05,-0.03 -0.04,-0.04 -0.05,-0.05 -0.06,-0.03 -0.06,-0.03 -0.06,-0.04 -0.06,-0.02 -0.06,-0.04 -0.06,-0.03 -0.08,-0.01 -0.07,-0.04 -0.07,-0.01 -0.08,-0.02 -0.07,-0.02 -0.08,0 -0.08,-0.02 -0.07,-0.01 -0.09,-0.01 -0.08,0 -0.08,0 0,0 -0.08,0 -0.08,0 -0.08,0.01 -0.07,0.01 -0.08,0.02 -0.09,0 -0.08,0.02 -0.06,0.02 -0.08,0.01 -0.07,0.04 -0.07,0.01 -0.07,0.03 -0.06,0.04 -0.06,0.02 -0.06,0.04 -0.06,0.03 -0.05,0.03 -0.05,0.05 -0.05,0.04 -0.04,0.03 -0.05,0.05 -0.04,0.04 -0.03,0.05 -0.03,0.05 -0.02,0.04 -0.03,0.05 -0.01,0.05 -0.02,0.05 -0.01,0.05 0,0.05 0,0.04 0,0 0,0.05 0,0.05 0.01,0.05 0.02,0.05 0.01,0.05 0.03,0.04 0.02,0.05 0.03,0.05 0.03,0.04 0.04,0.05 0.05,0.05 0.04,0.03 0.05,0.04 0.05,0.04 0.05,0.03 0.06,0.05 0.06,0.03 0.06,0.02 0.06,0.03 0.07,0.04 0.07,0.02 0.07,0.03 0.08,0.02 0.06,0.01 0.08,0.02 0.09,0 0.08,0.02 0.07,0 0.08,0.01 0.08,0.01 0.08,0 0,0 0.08,0 0.08,-0.01 0.09,-0.01 0.07,0 0.08,-0.02 0.08,0 0.07,-0.02 0.08,-0.01 0.07,-0.02 0.07,-0.03 0.08,-0.02 0.06,-0.04 0.06,-0.03 0.06,-0.02 0.06,-0.03 0.06,-0.05 0.06,-0.03 0.05,-0.04 0.04,-0.04 0.05,-0.03 0.03,-0.05 0.05,-0.05 0.03,-0.04 0.03,-0.05 0.03,-0.05 0.02,-0.04 0.01,-0.05 0.02,-0.05 0.01,-0.05 0.01,-0.05 0,-0.05 z"
             style="fill:#b7b79d"
             inkscape:connector-curvature="0" />
          <path
             id="path5483"
             d="m 1518.41,1080.17 0,-0.05 -0.01,-0.05 -0.02,-0.05 0,-0.05 -0.02,-0.05 -0.01,-0.05 -0.03,-0.05 -0.03,-0.04 -0.03,-0.05 -0.04,-0.03 -0.03,-0.05 -0.04,-0.05 -0.04,-0.03 -0.05,-0.04 -0.06,-0.04 -0.04,-0.03 -0.06,-0.03 -0.07,-0.03 -0.06,-0.03 -0.06,-0.03 -0.06,-0.03 -0.06,-0.02 -0.06,-0.02 -0.08,-0.01 -0.06,-0.03 -0.08,-0.02 -0.07,0 -0.08,-0.01 -0.08,0 -0.06,-0.02 -0.08,0 0,0 -0.08,0 -0.06,0.02 -0.08,0 -0.08,0.01 -0.07,0 -0.08,0.02 -0.06,0.03 -0.07,0.01 -0.06,0.02 -0.07,0.02 -0.06,0.03 -0.07,0.03 -0.05,0.03 -0.07,0.03 -0.06,0.03 -0.04,0.03 -0.06,0.04 -0.05,0.04 -0.03,0.03 -0.04,0.05 -0.04,0.05 -0.04,0.03 -0.03,0.05 -0.02,0.04 -0.03,0.05 -0.02,0.05 -0.02,0.05 -0.01,0.05 -0.01,0.05 -0.01,0.05 0,0.05 0,0 0,0.04 0.01,0.05 0.01,0.05 0.01,0.05 0.02,0.06 0.02,0.04 0.03,0.05 0.02,0.05 0.03,0.04 0.04,0.04 0.04,0.05 0.04,0.04 0.03,0.04 0.05,0.04 0.06,0.03 0.04,0.04 0.06,0.03 0.07,0.04 0.05,0.02 0.07,0.03 0.06,0.03 0.07,0.01 0.06,0.03 0.07,0.01 0.06,0.02 0.08,0.02 0.07,0 0.08,0.02 0.08,0 0.06,0.01 0.08,0 0,0 0.08,0 0.06,-0.01 0.08,0 0.08,-0.02 0.07,0 0.08,-0.02 0.06,-0.02 0.08,-0.01 0.06,-0.03 0.06,-0.01 0.06,-0.03 0.06,-0.03 0.06,-0.02 0.07,-0.04 0.06,-0.03 0.04,-0.04 0.06,-0.03 0.05,-0.04 0.04,-0.04 0.04,-0.04 0.03,-0.05 0.04,-0.04 0.03,-0.04 0.03,-0.05 0.03,-0.05 0.01,-0.04 0.02,-0.06 0,-0.05 0.02,-0.05 0.01,-0.05 0,-0.04"
             style="fill:none;fill-opacity:0;stroke:#494936;stroke-width:0.02"
             inkscape:connector-curvature="0" />
          <path
             id="path5485"
             d="m 1515.72,1073.34 2.69,0 0,7.06 -2.69,0 0,-7.06 z"
             style="fill:#7a7a5a"
             inkscape:connector-curvature="0" />
          <path
             id="path5487"
             d="m 1530.83,1073.32 -0.01,-0.38 -0.02,-0.39 -0.04,-0.39 -0.05,-0.37 -0.07,-0.38 -0.08,-0.39 -0.1,-0.36 -0.12,-0.36 -0.13,-0.36 -0.13,-0.34 -0.16,-0.34 -0.17,-0.32 -0.18,-0.32 -0.2,-0.31 -0.2,-0.29 -0.21,-0.28 -0.22,-0.27 -0.25,-0.24 -0.23,-0.24 -0.27,-0.22 -0.27,-0.21 -0.26,-0.18 -0.28,-0.17 -0.3,-0.13 -0.29,-0.15 -0.29,-0.11 -0.3,-0.11 -0.31,-0.06 -0.3,-0.07 -0.32,-0.04 -0.3,-0.01 -0.31,0 -0.3,0.01 -0.31,0.04 -0.31,0.07 -0.3,0.06 -0.31,0.11 -0.29,0.11 -0.29,0.15 -0.28,0.13 -0.3,0.17 -0.26,0.18 -0.26,0.21 -0.27,0.22 -0.23,0.24 -0.24,0.24 -0.24,0.27 -0.2,0.28 -0.21,0.29 -0.2,0.31 -0.18,0.32 -0.17,0.32 -0.15,0.34 -0.14,0.34 -0.13,0.36 -0.11,0.36 -0.09,0.36 -0.09,0.39 -0.07,0.38 -0.06,0.37 -0.04,0.39 -0.02,0.39 0,0.38"
             style="fill:none;fill-opacity:0;stroke:#494936;stroke-width:0.02"
             inkscape:connector-curvature="0" />
          <path
             id="path5489"
             d="m 1515.72,1073.34 2.69,0 0,7.06 -2.69,0 0,-7.06 z"
             style="fill:#b7b79d"
             inkscape:connector-curvature="0" />
          <path
             id="path5491"
             d="m 1515.47,1080.16 0,-7.31"
             style="fill:none;fill-opacity:0;stroke:#494936;stroke-width:0.02"
             inkscape:connector-curvature="0" />
          <path
             id="path5493"
             d="m 1518.41,1080.16 0,-7.31"
             style="fill:none;fill-opacity:0;stroke:#000000;stroke-width:0.02"
             inkscape:connector-curvature="0" />
          <path
             id="path5495"
             d="m 1524.33,1063.34 -0.42,-0.01 -0.44,0.02 -0.42,0.06 -0.44,0.07 -0.43,0.11 -0.41,0.14 -0.41,0.16 -0.4,0.19 -0.39,0.21 -0.39,0.24 -0.38,0.28 -0.37,0.28 -0.33,0.32 -0.35,0.34 -0.31,0.36 -0.3,0.38 -0.29,0.39 -0.26,0.43 -0.26,0.43 -0.23,0.45 -0.21,0.48"
             style="fill:none;fill-opacity:0;stroke:#dbdbce;stroke-width:0.63999999"
             inkscape:connector-curvature="0" />
          <path
             id="path5497"
             d="m 1502.54,1094.08 -0.24,1.21 0.24,1.23 0.5,0.96 0.49,0.74 0.73,0.49 0.72,0.49 0.75,0.24 0.72,0 0.5,0 0.96,-0.49 0.73,-0.24 0.49,-0.49 0.25,-0.25 0.49,-0.49 0.24,-0.73 0.25,-0.97 0,-0.49 0,-0.97 -0.25,-0.74 -0.49,-0.49 -0.24,-0.49 -2.19,-0.49 -0.74,0.75 0.74,0.23 0.48,0 0.24,0.49 0.49,0.5 0.24,0.48 0.25,0.73 0,0.49 -0.25,0.74 -0.24,0.48 -0.49,0.24 -0.49,0.5 -0.47,0 -0.74,0 -0.98,-0.26 -0.48,-0.24 -0.49,-0.49 -0.25,-0.73 -0.25,-0.48 0.25,-0.98 0.5,-0.72 0.47,-0.5 0.49,-0.25 0.26,-0.72 -0.75,-0.74 -1.22,0.48 -0.97,1.23 -0.25,0.74 z"
             style="fill:#93936c"
             inkscape:connector-curvature="0" />
          <path
             id="path5499"
             d="m 1502.54,1094.08 -0.24,1.21 0.24,1.23 0.5,0.96 0.49,0.74 0.73,0.49 0.72,0.49 0.75,0.24 0.72,0 0.5,0 0.96,-0.49 0.73,-0.24 0.49,-0.49 0.25,-0.25 0.49,-0.49 0.24,-0.73 0.25,-0.97 0,-0.49 0,-0.97 -0.25,-0.74 -0.49,-0.49 -0.24,-0.49 -2.19,-0.49 -0.74,0.75 0.74,0.23 0.48,0 0.24,0.49 0.49,0.5 0.24,0.48 0.25,0.73 0,0.49 -0.25,0.74 -0.24,0.48 -0.49,0.24 -0.49,0.5 -0.47,0 -0.74,0 -0.98,-0.26 -0.48,-0.24 -0.49,-0.49 -0.25,-0.73 -0.25,-0.48 0.25,-0.98 0.5,-0.72 0.47,-0.5 0.49,-0.25 0.26,-0.72 -0.75,-0.74 -1.22,0.48 -0.97,1.23 -0.25,0.74"
             style="fill:none;fill-opacity:0;stroke:#93936c;stroke-width:0.02"
             inkscape:connector-curvature="0" />
          <path
             id="path5501"
             d="m 1509.38,1089.92 2.2,0 0,-1.45 1.95,0 0,1.45 0.72,0 0,-1.45 1.71,0 0,1.45 9.52,0 0,0 0,0.25 0,0.24 0,0.25 0.24,0.24 -0.24,0.25 0,0.24 0,0.49 -0.24,0.23 0,0.26 -0.25,0.23 -9.03,0 0,1.72 -1.71,0 0,-1.72 -0.72,0 0,1.72 -1.95,0 0,-1.72 -2.2,0 0,-2.68 z"
             style="fill:#93936c"
             inkscape:connector-curvature="0" />
          <path
             id="path5503"
             d="m 1509.38,1089.92 2.2,0 0,-1.45 1.95,0 0,1.45 0.72,0 0,-1.45 1.71,0 0,1.45 9.52,0 0,0.25 0,0.24 0,0.25 0.24,0.24 -0.24,0.25 0,0.24 0,0.49 -0.24,0.23 0,0.26 -0.25,0.23 -9.03,0 0,1.72 -1.71,0 0,-1.72 -0.72,0 0,1.72 -1.95,0 0,-1.72 -2.2,0 0,-2.68 z"
             style="fill:#93936c"
             inkscape:connector-curvature="0" />
          <path
             id="path5505"
             d="m 1509.38,1089.92 2.2,0 0,-1.45 1.95,0 0,1.45 0.72,0 0,-1.45 1.71,0 0,1.45 9.52,0 0,0.25 0,0.24 0,0.25 0.24,0.24 -0.24,0.25 0,0.24 0,0.49 -0.24,0.23 0,0.26 -0.25,0.23 -9.03,0 0,1.72 -1.71,0 0,-1.72 -0.72,0 0,1.72 -1.95,0 0,-1.72 -2.2,0"
             style="fill:none;fill-opacity:0;stroke:#494936;stroke-width:0.02"
             inkscape:connector-curvature="0" />
          <path
             id="path5507"
             d="m 1509.62,1090.41 15.59,0"
             style="fill:none;fill-opacity:0;stroke:#dbdbce;stroke-width:0.02"
             inkscape:connector-curvature="0" />
          <path
             id="path5509"
             d="m 1514.74,1088.95 0,1.45"
             style="fill:none;fill-opacity:0;stroke:#000000;stroke-width:0.02"
             inkscape:connector-curvature="0" />
          <path
             id="path5511"
             d="m 1514.74,1092.6 0,1.46"
             style="fill:none;fill-opacity:0;stroke:#000000;stroke-width:0.02"
             inkscape:connector-curvature="0" />
          <path
             id="path5513"
             d="m 1509.38,1092.11 15.37,0"
             style="fill:none;fill-opacity:0;stroke:#626248;stroke-width:0.02"
             inkscape:connector-curvature="0" />
          <path
             id="path5515"
             d="m 1504.26,1090.17 0,2.69 5.12,0 0,-2.69 -5.12,0 z"
             style="fill:#93936c"
             inkscape:connector-curvature="0" />
          <path
             id="path5517"
             d="m 1504.75,1093.58 0.98,-0.49 0.72,-0.23 0.74,0.23 -0.98,-0.98 -1.46,0.26 0,1.21 z"
             style="fill:#93936c"
             inkscape:connector-curvature="0" />
          <path
             id="path5519"
             d="m 1504.75,1089.44 0.98,0.48 0.72,0 0.74,0 -0.98,0.98 -1.46,-0.49 0,-0.97 z"
             style="fill:#93936c"
             inkscape:connector-curvature="0" />
          <path
             id="path5521"
             d="m 1502.54,1088.7 -0.24,-0.73 0,-0.48 0,-0.74 0.24,-0.49 0.25,-0.49 0.25,-0.48 0.24,-0.48 0.48,-0.5 0.5,-0.24 0.72,-0.49 0.75,0 0.72,-0.24 0.5,0.24 0.47,0 0.49,0 0.73,0.49 0.74,0.74 0.49,0.48 0.24,0.74 0.25,0.96 0,0.5 0,0.98 -0.25,0.72 -0.49,0.5 -0.24,0.48 -2.19,0.73 -0.74,-0.98 0.74,0 0.72,-0.48 0.49,-0.49 0.24,-0.74 0.25,-0.98 -0.25,-0.72 -0.49,-0.74 -0.48,-0.48 -0.72,-0.25 -0.99,0 -0.49,0 -0.49,0.25 -0.23,0.24 -0.49,0.5 -0.25,0.72 -0.25,0.74 0.25,0.98 0.5,0.48 0.24,0.49 0.72,0.25 0.26,0.72 -1.97,-0.24 -1.22,-1.22 0,-0.25 z"
             style="fill:#93936c"
             inkscape:connector-curvature="0" />
          <path
             id="path5523"
             d="m 1502.54,1088.7 -0.24,-0.73 0,-0.48 0,-0.74 0.24,-0.49 0.25,-0.49 0.25,-0.48 0.24,-0.48 0.48,-0.5 0.5,-0.24 0.72,-0.49 0.75,0 0.72,-0.24 0.5,0.24 0.47,0 0.49,0 0.73,0.49 0.74,0.74 0.49,0.48 0.24,0.74 0.25,0.96 0,0.5 0,0.98 -0.25,0.72 -0.49,0.5 -0.24,0.48 -2.19,0.73 -0.74,-0.98 0.74,0 0.72,-0.48 0.49,-0.49 0.24,-0.74 0.25,-0.98 -0.25,-0.72 -0.49,-0.74 -0.48,-0.48 -0.72,-0.25 -0.99,0 -0.49,0 -0.49,0.25 -0.23,0.24 -0.49,0.5 -0.25,0.72 -0.25,0.74 0.25,0.98 0.5,0.48 0.24,0.49 0.72,0.25 0.26,0.72 -1.97,-0.24 -1.22,-1.22 0,-0.25"
             style="fill:none;fill-opacity:0;stroke:#93936c;stroke-width:0.02"
             inkscape:connector-curvature="0" />
          <path
             id="path5525"
             d="m 1502.54,1088.47 -0.73,0 -0.47,0 -0.74,0.23 -0.5,0.25 -0.47,0.49 -0.49,0.48 0,0.49 -0.24,0.49 0,0.49 0,0.72 0,0.26 0.48,0.72 0,0.25 0.49,0.24 0.49,0.5 0.73,0.24 0.72,0 0.98,-0.24 0.49,-1.22 -0.24,0.23 -0.5,0 -0.48,0.25 -0.25,0 -0.47,0 -0.74,-0.48 -0.24,-0.26 -0.26,-0.23 -0.23,-0.49 0,-0.49 0,-0.49 0.23,-0.49 0.5,-0.49 0.49,-0.23 0.48,-0.25 0.73,0 0.74,0.25 0.49,0.72 0.23,0.49 0,0.49 0,0.49 -0.23,0.49 1.22,-0.49 0,-1.47 -1.47,-1.22 -0.74,-0.72 z"
             style="fill:#93936c"
             inkscape:connector-curvature="0" />
          <path
             id="path5527"
             d="m 1502.54,1088.47 -0.73,0 -0.47,0 -0.74,0.23 -0.5,0.25 -0.47,0.49 -0.49,0.48 0,0.49 -0.24,0.49 0,0.49 0,0.72 0,0.26 0.48,0.72 0,0.25 0.49,0.24 0.49,0.5 0.73,0.24 0.72,0 0.98,-0.24 0.49,-1.22 -0.24,0.23 -0.5,0 -0.48,0.25 -0.25,0 -0.47,0 -0.74,-0.48 -0.24,-0.26 -0.26,-0.23 -0.23,-0.49 0,-0.49 0,-0.49 0.23,-0.49 0.5,-0.49 0.49,-0.23 0.48,-0.25 0.73,0 0.74,0.25 0.49,0.72 0.23,0.49 0,0.49 0,0.49 -0.23,0.49 1.22,-0.49 0,-1.47 -1.47,-1.22 -0.74,-0.72"
             style="fill:none;fill-opacity:0;stroke:#93936c;stroke-width:0.02"
             inkscape:connector-curvature="0" />
          <path
             id="path5529"
             d="m 1512.07,1088.95 0,1.45"
             style="fill:none;fill-opacity:0;stroke:#dbdbce;stroke-width:0.02"
             inkscape:connector-curvature="0" />
          <path
             id="path5531"
             d="m 1512.07,1092.6 0,1.46"
             style="fill:none;fill-opacity:0;stroke:#000000;stroke-width:0.02"
             inkscape:connector-curvature="0" />
          <path
             id="path5533"
             d="m 1508.65,1087.23 0,-0.14 -0.01,-0.12 -0.02,-0.13 -0.02,-0.14 -0.02,-0.14 -0.04,-0.12 -0.04,-0.13 -0.04,-0.13 -0.06,-0.12 -0.06,-0.11 -0.06,-0.13 -0.06,-0.12 -0.08,-0.1 -0.07,-0.12 -0.09,-0.08 -0.09,-0.11 -0.08,-0.09 -0.11,-0.08 -0.1,-0.09 -0.1,-0.07 -0.1,-0.06 -0.11,-0.07 -0.11,-0.06 -0.12,-0.04 -0.11,-0.06 -0.13,-0.03 -0.11,-0.02 -0.13,-0.03 -0.12,-0.02 -0.12,-0.01 -0.13,0 0,0 -0.12,0 -0.13,0.01 -0.12,0.02 -0.11,0.03 -0.13,0.02 -0.12,0.03 -0.12,0.06 -0.12,0.04 -0.11,0.06 -0.1,0.07 -0.11,0.06 -0.1,0.07 -0.1,0.09 -0.1,0.08 -0.09,0.09 -0.09,0.11 -0.08,0.08 -0.08,0.12 -0.08,0.1 -0.06,0.12 -0.07,0.13 -0.06,0.11 -0.05,0.12 -0.04,0.13 -0.05,0.13 -0.03,0.12 -0.03,0.14 -0.02,0.14 -0.01,0.13 -0.02,0.12 0,0.14 0,0 0,0.14 0.02,0.14 0.01,0.13 0.02,0.14 0.03,0.14 0.03,0.12 0.05,0.13 0.04,0.13 0.05,0.12 0.06,0.12 0.07,0.12 0.06,0.11 0.08,0.11 0.08,0.11 0.08,0.1 0.09,0.1 0.09,0.08 0.1,0.09 0.1,0.09 0.1,0.07 0.11,0.06 0.1,0.07 0.11,0.05 0.12,0.06 0.12,0.05 0.12,0.03 0.13,0.02 0.11,0.04 0.12,0.01 0.13,0.01 0.12,0 0,0 0.13,0 0.12,-0.01 0.12,-0.01 0.13,-0.04 0.11,-0.02 0.13,-0.03 0.11,-0.05 0.12,-0.06 0.11,-0.05 0.11,-0.07 0.1,-0.06 0.1,-0.07 0.1,-0.09 0.11,-0.09 0.08,-0.08 0.09,-0.1 0.09,-0.1 0.07,-0.11 0.08,-0.11 0.06,-0.11 0.06,-0.12 0.06,-0.12 0.06,-0.12 0.04,-0.13 0.04,-0.13 0.04,-0.12 0.02,-0.14 0.02,-0.14 0.02,-0.13 0.01,-0.14 0,-0.14"
             style="fill:none;fill-opacity:0;stroke:#494936;stroke-width:0.02"
             inkscape:connector-curvature="0" />
          <path
             id="path5535"
             d="m 1508.65,1095.29 0,-0.13 -0.01,-0.12 -0.02,-0.12 -0.02,-0.12 -0.02,-0.11 -0.04,-0.13 -0.04,-0.12 -0.04,-0.12 -0.06,-0.11 -0.06,-0.11 -0.06,-0.1 -0.06,-0.1 -0.08,-0.11 -0.07,-0.1 -0.09,-0.09 -0.09,-0.08 -0.08,-0.09 -0.11,-0.07 -0.1,-0.09 -0.1,-0.05 -0.1,-0.07 -0.11,-0.06 -0.11,-0.05 -0.12,-0.05 -0.11,-0.04 -0.13,-0.03 -0.11,-0.04 -0.13,-0.01 -0.12,-0.01 -0.12,-0.01 -0.13,0 0,0 -0.12,0 -0.13,0.01 -0.12,0.01 -0.11,0.01 -0.13,0.04 -0.12,0.03 -0.12,0.04 -0.12,0.05 -0.11,0.05 -0.1,0.06 -0.11,0.07 -0.1,0.05 -0.1,0.09 -0.1,0.07 -0.09,0.09 -0.09,0.08 -0.08,0.09 -0.08,0.1 -0.08,0.11 -0.06,0.1 -0.07,0.1 -0.06,0.11 -0.05,0.11 -0.04,0.12 -0.05,0.12 -0.03,0.13 -0.03,0.11 -0.02,0.12 -0.01,0.12 -0.02,0.12 0,0.13 0,0 0,0.12 0.02,0.13 0.01,0.12 0.02,0.12 0.03,0.12 0.03,0.12 0.05,0.12 0.04,0.11 0.05,0.12 0.06,0.1 0.07,0.11 0.06,0.11 0.08,0.09 0.08,0.1 0.08,0.09 0.09,0.09 0.09,0.08 0.1,0.09 0.1,0.07 0.1,0.06 0.11,0.07 0.1,0.05 0.11,0.06 0.12,0.04 0.12,0.04 0.12,0.03 0.13,0.04 0.11,0.02 0.12,0.02 0.13,0.01 0.12,0 0,0 0.13,0 0.12,-0.01 0.12,-0.02 0.13,-0.02 0.11,-0.04 0.13,-0.03 0.11,-0.04 0.12,-0.04 0.11,-0.06 0.11,-0.05 0.1,-0.07 0.1,-0.06 0.1,-0.07 0.11,-0.09 0.08,-0.08 0.09,-0.09 0.09,-0.09 0.07,-0.1 0.08,-0.09 0.06,-0.11 0.06,-0.11 0.06,-0.1 0.06,-0.12 0.04,-0.11 0.04,-0.12 0.04,-0.12 0.02,-0.12 0.02,-0.12 0.02,-0.12 0.01,-0.13 0,-0.12"
             style="fill:none;fill-opacity:0;stroke:#494936;stroke-width:0.02"
             inkscape:connector-curvature="0" />
          <path
             id="path5537"
             d="m 1503.76,1091.39 0,-0.1 0,-0.09 -0.01,-0.11 -0.02,-0.1 -0.03,-0.09 -0.02,-0.1 -0.03,-0.1 -0.04,-0.08 -0.05,-0.09 -0.04,-0.09 -0.05,-0.08 -0.05,-0.09 -0.06,-0.08 -0.07,-0.07 -0.06,-0.09 -0.08,-0.06 -0.07,-0.06 -0.07,-0.07 -0.09,-0.05 -0.07,-0.06 -0.09,-0.04 -0.09,-0.05 -0.08,-0.05 -0.1,-0.04 -0.1,-0.02 -0.09,-0.03 -0.1,-0.03 -0.09,-0.02 -0.1,0 -0.1,-0.01 -0.1,0 0,0 -0.1,0 -0.09,0.01 -0.11,0 -0.09,0.02 -0.1,0.03 -0.08,0.03 -0.1,0.02 -0.1,0.04 -0.08,0.05 -0.09,0.05 -0.08,0.04 -0.08,0.06 -0.09,0.05 -0.08,0.07 -0.07,0.06 -0.07,0.06 -0.07,0.09 -0.07,0.07 -0.05,0.08 -0.05,0.09 -0.06,0.08 -0.03,0.09 -0.05,0.09 -0.04,0.08 -0.02,0.1 -0.03,0.1 -0.03,0.09 -0.02,0.1 -0.01,0.11 -0.01,0.09 0,0.1 0,0 0,0.1 0.01,0.09 0.01,0.1 0.02,0.1 0.03,0.1 0.03,0.09 0.02,0.11 0.04,0.08 0.05,0.09 0.03,0.09 0.06,0.08 0.05,0.09 0.05,0.08 0.07,0.07 0.07,0.08 0.07,0.07 0.07,0.06 0.08,0.06 0.09,0.06 0.08,0.06 0.08,0.04 0.09,0.05 0.08,0.05 0.1,0.04 0.1,0.02 0.08,0.02 0.1,0.04 0.09,0.02 0.11,0 0.09,0.01 0.1,0 0,0 0.1,0 0.1,-0.01 0.1,0 0.09,-0.02 0.1,-0.04 0.09,-0.02 0.1,-0.02 0.1,-0.04 0.08,-0.05 0.09,-0.05 0.09,-0.04 0.07,-0.06 0.09,-0.06 0.07,-0.06 0.07,-0.06 0.08,-0.07 0.06,-0.08 0.07,-0.07 0.06,-0.08 0.05,-0.09 0.05,-0.08 0.04,-0.09 0.05,-0.09 0.04,-0.08 0.03,-0.11 0.02,-0.09 0.03,-0.1 0.02,-0.1 0.01,-0.1 0,-0.09 0,-0.1"
             style="fill:none;fill-opacity:0;stroke:#494936;stroke-width:0.02"
             inkscape:connector-curvature="0" />
          <path
             id="path5539"
             d="m 1502.59,1088.6 -0.16,-0.04 -0.14,-0.03 -0.15,-0.02 -0.16,-0.03 -0.14,-0.01 -0.15,0 -0.16,0 -0.16,0.01 -0.13,0.03 -0.15,0.02 -0.15,0.03 -0.15,0.04 -0.14,0.04 -0.14,0.06 -0.14,0.07 -0.13,0.06 -0.14,0.08 -0.13,0.08 -0.12,0.1 -0.12,0.08 -0.11,0.1 -0.11,0.12 -0.11,0.11 -0.09,0.1 -0.1,0.14 -0.07,0.12 -0.1,0.12 -0.06,0.15 -0.07,0.13 -0.06,0.14 -0.05,0.14 -0.05,0.15 -0.04,0.15 -0.02,0.14 -0.02,0.15 -0.02,0.16 0,0.15 0,0.15 0,0.15 0.02,0.16 0.02,0.15 0.02,0.14 0.04,0.15 0.05,0.15 0.05,0.14 0.06,0.13 0.07,0.14 0.08,0.14 0.08,0.13 0.07,0.12 0.1,0.12 0.1,0.12 0.1,0.11 0.12,0.1 0.12,0.1 0.1,0.11 0.13,0.08 0.12,0.08 0.14,0.08 0.14,0.06 0.14,0.06 0.13,0.06 0.15,0.05 0.15,0.04 0.15,0.03 0.14,0.02 0.16,0.02 0.14,0.02 0.15,0 0.16,0 0.16,-0.02 0.13,-0.02 0.16,-0.02 0.15,-0.04 0.14,-0.04"
             style="fill:none;fill-opacity:0;stroke:#494936;stroke-width:0.02"
             inkscape:connector-curvature="0" />
          <path
             id="path5541"
             d="m 1509.53,1090.24 0.13,-0.16 0.13,-0.17 0.12,-0.16 0.11,-0.17 0.09,-0.19 0.09,-0.19 0.08,-0.18 0.08,-0.19 0.06,-0.19 0.05,-0.21 0.04,-0.2 0.03,-0.21 0.03,-0.2 0.01,-0.2 0,-0.21 -0.01,-0.21 -0.02,-0.21 -0.03,-0.19 -0.04,-0.21 -0.05,-0.2 -0.05,-0.19 -0.07,-0.19 -0.08,-0.2 -0.09,-0.19 -0.09,-0.17 -0.12,-0.19 -0.11,-0.17 -0.12,-0.16 -0.12,-0.16 -0.14,-0.15 -0.15,-0.14 -0.16,-0.14 -0.16,-0.13 -0.16,-0.12 -0.18,-0.12 -0.17,-0.1 -0.18,-0.09 -0.19,-0.1 -0.19,-0.07 -0.2,-0.07 -0.19,-0.07 -0.21,-0.04 -0.19,-0.03 -0.2,-0.03 -0.2,-0.02 -0.21,-0.01 -0.2,0 -0.22,0.02 -0.2,0.01 -0.2,0.05 -0.21,0.03 -0.19,0.06 -0.19,0.06 -0.19,0.07 -0.2,0.09 -0.19,0.08 -0.17,0.11 -0.18,0.1 -0.18,0.12 -0.15,0.12 -0.15,0.14 -0.15,0.13 -0.15,0.16 -0.14,0.16 -0.12,0.16 -0.12,0.16 -0.11,0.18 -0.1,0.18 -0.09,0.17 -0.08,0.2 -0.08,0.19 -0.06,0.2 -0.06,0.19 -0.05,0.21 -0.02,0.2 -0.03,0.2 -0.02,0.21 0,0.21 0.01,0.2 0.02,0.21 0.02,0.21 0.03,0.2 0.05,0.19"
             style="fill:none;fill-opacity:0;stroke:#494936;stroke-width:0.02"
             inkscape:connector-curvature="0" />
          <path
             id="path5543"
             d="m 1506.44,1083.83 -0.18,0.01 -0.19,0.01 -0.18,0.02 -0.19,0.03 -0.17,0.05 -0.18,0.05 -0.17,0.06 -0.17,0.06 -0.18,0.07 -0.15,0.1 -0.17,0.09 -0.15,0.1 -0.15,0.11 -0.14,0.12 -0.14,0.12 -0.14,0.13 -0.11,0.14 -0.13,0.15 -0.11,0.15 -0.1,0.15 -0.08,0.15 -0.11,0.17 -0.07,0.16 -0.06,0.19 -0.07,0.17 -0.04,0.17 -0.05,0.19 -0.03,0.17 -0.02,0.19 -0.01,0.18 -0.01,0.18"
             style="fill:none;fill-opacity:0;stroke:#ecece7;stroke-width:0.02"
             inkscape:connector-curvature="0" />
          <path
             id="path5545"
             d="m 1501.29,1088.74 -0.13,0.03 -0.13,0.03 -0.13,0.05 -0.13,0.04 -0.12,0.06 -0.11,0.06 -0.13,0.06 -0.11,0.08 -0.11,0.08 -0.09,0.1 -0.11,0.08 -0.11,0.11 -0.08,0.1 -0.09,0.11 -0.08,0.12 -0.06,0.12 -0.08,0.11 -0.06,0.14 -0.07,0.12 -0.05,0.14 -0.05,0.14 -0.04,0.13"
             style="fill:none;fill-opacity:0;stroke:#ecece7;stroke-width:0.02"
             inkscape:connector-curvature="0" />
          <path
             id="path5547"
             d="m 1502.43,1094.25 -0.05,0.2 -0.03,0.21 -0.03,0.2 -0.01,0.21 -0.01,0.2 0,0.22 0.02,0.19 0.03,0.2 0.03,0.22 0.05,0.2 0.05,0.2 0.06,0.19 0.08,0.19 0.09,0.19 0.09,0.19 0.11,0.19 0.11,0.17 0.12,0.17 0.12,0.16 0.14,0.15 0.15,0.14 0.15,0.16 0.17,0.13 0.16,0.12 0.17,0.12 0.17,0.1 0.19,0.1 0.19,0.1 0.19,0.07 0.19,0.08 0.19,0.06 0.21,0.05 0.2,0.03 0.21,0.05 0.21,0.01 0.2,0.01 0.21,0 0.21,-0.01 0.21,-0.03 0.2,-0.03 0.2,-0.04 0.2,-0.05 0.19,-0.07 0.2,-0.07 0.19,-0.09 0.18,-0.08 0.19,-0.1 0.17,-0.11 0.19,-0.12 0.14,-0.12 0.18,-0.14 0.14,-0.13 0.15,-0.16 0.14,-0.15 0.12,-0.17 0.12,-0.16 0.11,-0.19 0.1,-0.17 0.1,-0.19 0.08,-0.19 0.07,-0.2 0.07,-0.19 0.05,-0.21 0.05,-0.2 0.03,-0.2 0.03,-0.2 0.01,-0.22 0,-0.19 -0.01,-0.22 -0.02,-0.21 -0.03,-0.19 -0.04,-0.22 -0.04,-0.19 -0.06,-0.2 -0.07,-0.2 -0.08,-0.19 -0.09,-0.18 -0.09,-0.19 -0.11,-0.19 -0.12,-0.16 -0.12,-0.17 -0.14,-0.16"
             style="fill:none;fill-opacity:0;stroke:#494936;stroke-width:0.02"
             inkscape:connector-curvature="0" />
          <path
             id="path5549"
             d="m 1504.5,1092.63 -0.16,0.1 -0.16,0.1 -0.15,0.12 -0.13,0.14 -0.14,0.13 -0.13,0.14 -0.12,0.14 -0.11,0.16 -0.11,0.16 -0.09,0.17 -0.08,0.16 -0.08,0.17 -0.07,0.19 -0.05,0.18 -0.05,0.18 -0.04,0.2 -0.02,0.18 -0.01,0.19 -0.01,0.19"
             style="fill:none;fill-opacity:0;stroke:#ecece7;stroke-width:0.02"
             inkscape:connector-curvature="0" />
        </g>
        <text
           id="text5551"
           y="1050.09"
           x="1495.23"
           style="font-style:normal;font-weight:normal;font-size:12.80000019px;font-family:sans-serif;text-anchor:start;fill:#000000"
           font-size="12.8">
          <tspan
             id="tspan5553"
             y="1050.09"
             x="1495.23">4. Lock</tspan>
        </text>
        <text
           id="text5555"
           y="901.53802"
           x="1148.63"
           style="font-style:italic;font-weight:700;font-size:11.7968998px;font-family:sans-serif;text-anchor:start;fill:#000000"
           font-size="11.7969">
          <tspan
             id="tspan5557"
             y="901.53802"
             x="1148.63">Publication List</tspan>
        </text>
        <text
           id="text5559"
           y="987.724"
           x="1148.87"
           style="font-style:italic;font-weight:700;font-size:11.7968998px;font-family:sans-serif;text-anchor:start;fill:#000000"
           font-size="11.7969">
          <tspan
             id="tspan5561"
             y="987.724"
             x="1148.87">Publication List</tspan>
        </text>
        <text
           id="text5563"
           y="1071.53"
           x="1148.51"
           style="font-style:italic;font-weight:700;font-size:11.7968998px;font-family:sans-serif;text-anchor:start;fill:#000000"
           font-size="11.7969">
          <tspan
             id="tspan5565"
             y="1071.53"
             x="1148.51">Publication List</tspan>
        </text>
      </g>
    </g>
  </g>
</svg>
