<?xml version="1.0" encoding="UTF-8" standalone="no"?>
<!-- Created by diasvg.py -->
<svg width="28.759cm" height="20.179cm" viewBox="-1.009 3.366 27.750 23.545"
 xmlns="http://www.w3.org/2000/svg"
 xmlns:xlink="http://www.w3.org/1999/xlink">
<rect x="11.094" y="4.683" width="6.582" height="7.479" fill="#FFFFFF" stroke="none" stroke-width="0"/>
<rect x="11.094" y="4.683" width="6.582" height="7.479" fill="none" stroke="#000000" stroke-width="0.100" />
<text x="13.246" y="3.961"  fill="#000000" text-anchor="start" font-size="0.80" font-family="sans" font-style="normal" font-weight="400">
VMA1</text>
<polygon fill="#FFFFFF" stroke="none" stroke-width="0.050" points="11.976,9.102 16.731,9.102 16.731,10.152 11.976,10.152 "/>
<polygon fill="none" stroke="#000000" stroke-width="0.050"  points="11.976,9.102 16.731,9.102 16.731,10.152 11.976,10.152 "/>
<polygon fill="#FFFFFF" stroke="none" stroke-width="0.050" points="11.986,10.126 16.776,10.126 16.776,11.176 11.986,11.176 "/>
<polygon fill="none" stroke="#000000" stroke-width="0.050"  points="11.986,10.126 16.776,10.126 16.776,11.176 11.986,11.176 "/>
<text x="12.469" y="9.821"  fill="#000000" text-anchor="start" font-size="0.80" font-family="sans" font-style="normal" font-weight="400">
Add Mark : 0</text>
<text x="12.631" y="10.852"  fill="#000000" text-anchor="start" font-size="0.80" font-family="sans" font-style="normal" font-weight="400">
Del Mark : 0</text>
<rect x="0.141" y="13.707" width="4.905" height="3.023" fill="#FFFFFF" stroke="none" stroke-width="0"/>
<rect x="0.141" y="13.707" width="4.905" height="3.023" fill="none" stroke="#000000" stroke-width="0.100" />
<text x="0.213" y="13.125"  fill="#000000" text-anchor="start" font-size="0.80" font-family="sans" font-style="normal" font-weight="400">
address_space Interval Tree</text>
<text x="1.720" y="15.511"  fill="#000000" text-anchor="start" font-size="0.80" font-family="sans" font-style="normal" font-weight="400">
HEAD</text>
<rect x="0.231" y="17.664" width="4.905" height="3.023" fill="#FFFFFF" stroke="none" stroke-width="0"/>
<rect x="0.231" y="17.664" width="4.905" height="3.023" fill="none" stroke="#000000" stroke-width="0.100" />
<rect x="0.866" y="18.401" width="4.905" height="3.023" fill="#FFFFFF" stroke="none" stroke-width="0"/>
<rect x="0.866" y="18.401" width="4.905" height="3.023" fill="none" stroke="#000000" stroke-width="0.100" />
<rect x="1.752" y="19.372" width="4.905" height="3.023" fill="#FFFFFF" stroke="none" stroke-width="0"/>
<rect x="1.752" y="19.372" width="4.905" height="3.023" fill="none" stroke="#000000" stroke-width="0.100" />
<line x1="2.621" y1="16.733" x2="2.621" y2="17.344" stroke="#000000" stroke-width="0.050" />
<polygon fill="#000000" stroke="none" stroke-width="0.050" points="2.621,17.719 2.371,17.219 2.621,17.344 2.871,17.219 "/>
<polygon fill="none" stroke="#000000" stroke-width="0.050"  points="2.621,17.719 2.371,17.219 2.621,17.344 2.871,17.219 "/>
<text x="3.147" y="21.073"  fill="#000000" text-anchor="start" font-size="0.80" font-family="sans" font-style="normal" font-weight="400">
VMAX</text>
<rect x="20.018" y="4.715" width="6.582" height="7.479" fill="#FFFFFF" stroke="none" stroke-width="0"/>
<rect x="20.018" y="4.715" width="6.582" height="7.479" fill="none" stroke="#000000" stroke-width="0.100" />
<text x="22.170" y="3.993"  fill="#000000" text-anchor="start" font-size="0.80" font-family="sans" font-style="normal" font-weight="400">
VMA1</text>
<polygon fill="#FFFFFF" stroke="none" stroke-width="0.050" points="20.900,9.134 25.655,9.134 25.655,10.184 20.900,10.184 "/>
<polygon fill="none" stroke="#000000" stroke-width="0.050"  points="20.900,9.134 25.655,9.134 25.655,10.184 20.900,10.184 "/>
<polygon fill="#FFFFFF" stroke="none" stroke-width="0.050" points="20.911,10.158 25.700,10.158 25.700,11.208 20.911,11.208 "/>
<polygon fill="none" stroke="#000000" stroke-width="0.050"  points="20.911,10.158 25.700,10.158 25.700,11.208 20.911,11.208 "/>
<rect x="10.188" y="15.648" width="4.905" height="3.023" fill="#FFFFFF" stroke="none" stroke-width="0"/>
<rect x="10.188" y="15.648" width="4.905" height="3.023" fill="none" stroke="#000000" stroke-width="0.100" />
<text x="10.260" y="15.066"  fill="#000000" text-anchor="start" font-size="0.80" font-family="sans" font-style="normal" font-weight="400">
address_space lock-less list</text>
<text x="11.768" y="17.452"  fill="#000000" text-anchor="start" font-size="0.80" font-family="sans" font-style="normal" font-weight="400">
HEAD</text>
<text x="0.854" y="5.820"  fill="#FF0000" text-anchor="start" font-size="0.80" font-family="sans" font-style="normal" font-weight="400">
1. VMA1 - ADD</text>
<text x="0.854" y="6.768"  fill="#000000" text-anchor="start" font-size="0.80" font-family="sans" font-style="normal" font-weight="400">
2. VMA2 - ADD</text>
<text x="0.854" y="7.716"  fill="#000000" text-anchor="start" font-size="0.80" font-family="sans" font-style="normal" font-weight="400">
3. VMA2 - DEL</text>
<text x="0.854" y="8.665"  fill="#000000" text-anchor="start" font-size="0.80" font-family="sans" font-style="normal" font-weight="400">
4. VMA1 - DEL</text>
<text x="0.854" y="9.613"  fill="#000000" text-anchor="start" font-size="0.80" font-family="sans" font-style="normal" font-weight="400">
5. VMA1 - ADD</text>
<text x="21.388" y="9.937"  fill="#000000" text-anchor="start" font-size="0.80" font-family="sans" font-style="normal" font-weight="400">
Add Mark : 0</text>
<text x="21.550" y="10.968"  fill="#000000" text-anchor="start" font-size="0.80" font-family="sans" font-style="normal" font-weight="400">
Del Mark : 0</text>
</svg>