<?xml version="1.0" encoding="UTF-8" standalone="no"?>
<!-- Created with Inkscape (http://www.inkscape.org/) -->

<svg
   xmlns:dc="http://purl.org/dc/elements/1.1/"
   xmlns:cc="http://creativecommons.org/ns#"
   xmlns:rdf="http://www.w3.org/1999/02/22-rdf-syntax-ns#"
   xmlns:svg="http://www.w3.org/2000/svg"
   xmlns="http://www.w3.org/2000/svg"
   xmlns:sodipodi="http://sodipodi.sourceforge.net/DTD/sodipodi-0.dtd"
   xmlns:inkscape="http://www.inkscape.org/namespaces/inkscape"
   width="210mm"
   height="140mm"
   viewBox="0 0 744.09449 496.06299"
   id="svg2"
   version="1.1"
   inkscape:version="0.91 r13725"
   sodipodi:docname="file_rmap_default.svg">
  <defs
     id="defs4" />
  <sodipodi:namedview
     id="base"
     pagecolor="#ffffff"
     bordercolor="#666666"
     borderopacity="1.0"
     inkscape:pageopacity="0.0"
     inkscape:pageshadow="2"
     inkscape:zoom="1.979899"
     inkscape:cx="269.00341"
     inkscape:cy="289.61783"
     inkscape:document-units="px"
     inkscape:current-layer="layer1"
     showgrid="false"
     inkscape:window-width="2880"
     inkscape:window-height="1577"
     inkscape:window-x="0"
     inkscape:window-y="0"
     inkscape:window-maximized="1" />
  <metadata
     id="metadata7">
    <rdf:RDF>
      <cc:Work
         rdf:about="">
        <dc:format>image/svg+xml</dc:format>
        <dc:type
           rdf:resource="http://purl.org/dc/dcmitype/StillImage" />
        <dc:title></dc:title>
      </cc:Work>
    </rdf:RDF>
  </metadata>
  <g
     inkscape:label="Layer 1"
     inkscape:groupmode="layer"
     id="layer1"
     transform="translate(0,-556.29922)">
    <g
       id="g4686"
       transform="matrix(1.8796034,0,0,1.9597104,-1109.3747,-238.79991)">
      <path
         inkscape:connector-curvature="0"
         style="fill:#ffffff"
         d="m 665.863,521.35 c 7.819,0 46.915,0 54.734,0 7.819,0 7.819,0 7.819,11.195 0,11.195 0,33.585 0,44.78 0,11.195 0,11.195 -7.819,11.195 -7.819,0 -46.915,0 -54.734,0 -7.819,0 -7.819,0 -7.819,-11.195 0,-11.195 0,-33.585 0,-44.78 0,-11.195 0,-11.195 7.819,-11.195 z"
         id="path4688" />
      <path
         inkscape:connector-curvature="0"
         style="fill:none;fill-opacity:0;stroke:#000000;stroke-width:1"
         d="m 665.863,521.35 c 7.819,0 46.915,0 54.734,0 7.819,0 7.819,0 7.819,11.195 0,11.195 0,33.585 0,44.78 0,11.195 0,11.195 -7.819,11.195 -7.819,0 -46.915,0 -54.734,0 -7.819,0 -7.819,0 -7.819,-11.195 0,-11.195 0,-33.585 0,-44.78 0,-11.195 0,-11.195 7.819,-11.195"
         id="path4690" />
      <path
         inkscape:connector-curvature="0"
         style="fill:none;fill-opacity:0;stroke:#000000;stroke-width:0.1"
         d="m 665.863,521.35 c 7.819,0 46.915,0 54.734,0 7.819,0 7.819,0 7.819,11.195 0,11.195 0,33.585 0,44.78 0,11.195 0,11.195 -7.819,11.195 -7.819,0 -46.915,0 -54.734,0 -7.819,0 -7.819,0 -7.819,-11.195 0,-11.195 0,-33.585 0,-44.78 0,-11.195 0,-11.195 7.819,-11.195"
         id="path4692" />
      <line
         style="fill:none;fill-opacity:0;stroke:#000000;stroke-width:0.1"
         x1="665.86298"
         y1="588.52002"
         x2="720.59698"
         y2="588.52002"
         id="line4694" />
      <line
         style="fill:none;fill-opacity:0;stroke:#000000;stroke-width:0.1"
         x1="728.41602"
         y1="532.54498"
         x2="728.41602"
         y2="577.32501"
         id="line4696" />
      <line
         style="fill:none;fill-opacity:0;stroke:#000000;stroke-width:0.1"
         x1="658.04401"
         y1="532.54498"
         x2="658.04401"
         y2="577.32501"
         id="line4698" />
      <line
         style="fill:none;fill-opacity:0;stroke:#000000;stroke-width:0.1"
         x1="665.86298"
         y1="521.34998"
         x2="720.59698"
         y2="521.34998"
         id="line4700" />
      <text
         font-size="12.8"
         style="font-style:normal;font-weight:normal;font-size:12.80000019px;font-family:sans-serif;text-anchor:middle;fill:#000000"
         x="693.22998"
         y="558.935"
         id="text4702">
        <tspan
           x="693.22998"
           y="558.935"
           id="tspan4704" />
      </text>
    </g>
    <g
       id="g4736"
       transform="matrix(1.8796034,0,0,1.9597104,-1109.3747,-238.79991)">
      <ellipse
         style="fill:#ffffff"
         cx="820.07599"
         cy="536.14099"
         rx="56.109798"
         ry="40.272499"
         id="ellipse4738" />
      <ellipse
         style="fill:none;fill-opacity:0;stroke:#000000;stroke-width:1;stroke-dasharray:4"
         cx="820.07599"
         cy="536.14099"
         rx="56.109798"
         ry="40.272499"
         id="ellipse4740" />
    </g>
    <text
       font-size="9.03111"
       style="font-style:normal;font-weight:normal;font-size:17.33285904px;font-family:'TeX Gyre Bonum';text-anchor:start;fill:#000000"
       x="147.64429"
       y="733.62012"
       id="text4774"
       transform="scale(0.97934827,1.0210872)">
      <tspan
         x="147.64429"
         y="733.62012"
         id="tspan4776">struct</tspan>
      <tspan
         x="147.64429"
         y="755.28632"
         id="tspan4778">address_space</tspan>
    </text>
    <text
       font-size="12.8"
       style="font-style:normal;font-weight:normal;font-size:24.56625938px;font-family:sans-serif;text-anchor:start;fill:#000000"
       x="182.75099"
       y="692.79785"
       id="text4780"
       transform="scale(0.97934827,1.0210872)">
      <tspan
         x="182.75099"
         y="692.79785"
         id="tspan4782" />
    </text>
    <text
       font-size="9.03111"
       style="font-style:normal;font-weight:normal;font-size:17.33285904px;font-family:'TeX Gyre Bonum';text-anchor:start;fill:#000000"
       x="394.67719"
       y="611.49127"
       id="text4784"
       transform="scale(0.97934827,1.0210872)">
      <tspan
         x="394.67719"
         y="611.49127"
         id="tspan4786">struct</tspan>
      <tspan
         x="394.67719"
         y="633.15753"
         id="tspan4788">inode</tspan>
    </text>
    <line
       style="fill:none;fill-opacity:0;stroke:#000000;stroke-width:3.83847809"
       x1="408.59296"
       y1="776.43201"
       x2="442.60629"
       y2="738.85651"
       id="line4790" />
    <line
       style="fill:none;fill-opacity:0;stroke:#000000;stroke-width:3.83847809"
       x1="477.46167"
       y1="775.3385"
       x2="442.91074"
       y2="737.58661"
       id="line4792" />
    <g
       id="g4794"
       transform="matrix(1.8796034,0,0,1.9597104,-1109.3747,-238.79991)">
      <path
         inkscape:connector-curvature="0"
         style="fill:#ffffff"
         d="m 796.411,454.354 c 4.893,0 29.358,0 34.251,0 4.893,0 4.893,0 4.893,5.172 0,5.172 0,15.517 0,20.689 0,5.172 0,5.172 -4.893,5.172 -4.893,0 -29.358,0 -34.251,0 -4.893,0 -4.893,0 -4.893,-5.172 0,-5.172 0,-15.517 0,-20.689 0,-5.172 0,-5.172 4.893,-5.172 z"
         id="path4796" />
      <path
         inkscape:connector-curvature="0"
         style="fill:none;fill-opacity:0;stroke:#000000;stroke-width:2"
         d="m 796.411,454.354 c 4.893,0 29.358,0 34.251,0 4.893,0 4.893,0 4.893,5.172 0,5.172 0,15.517 0,20.689 0,5.172 0,5.172 -4.893,5.172 -4.893,0 -29.358,0 -34.251,0 -4.893,0 -4.893,0 -4.893,-5.172 0,-5.172 0,-15.517 0,-20.689 0,-5.172 0,-5.172 4.893,-5.172"
         id="path4798" />
      <path
         inkscape:connector-curvature="0"
         style="fill:none;fill-opacity:0;stroke:#000000;stroke-width:0.2"
         d="m 796.411,454.354 c 4.893,0 29.358,0 34.251,0 4.893,0 4.893,0 4.893,5.172 0,5.172 0,15.517 0,20.689 0,5.172 0,5.172 -4.893,5.172 -4.893,0 -29.358,0 -34.251,0 -4.893,0 -4.893,0 -4.893,-5.172 0,-5.172 0,-15.517 0,-20.689 0,-5.172 0,-5.172 4.893,-5.172"
         id="path4800" />
      <line
         style="fill:none;fill-opacity:0;stroke:#000000;stroke-width:0.2"
         x1="796.41101"
         y1="485.38699"
         x2="830.66199"
         y2="485.38699"
         id="line4802" />
      <line
         style="fill:none;fill-opacity:0;stroke:#000000;stroke-width:0.2"
         x1="835.55499"
         y1="459.526"
         x2="835.55499"
         y2="480.215"
         id="line4804" />
      <line
         style="fill:none;fill-opacity:0;stroke:#000000;stroke-width:0.2"
         x1="791.51801"
         y1="459.526"
         x2="791.51801"
         y2="480.215"
         id="line4806" />
      <line
         style="fill:none;fill-opacity:0;stroke:#000000;stroke-width:0.2"
         x1="796.41101"
         y1="454.354"
         x2="830.66199"
         y2="454.354"
         id="line4808" />
      <text
         font-size="12.8"
         style="font-style:normal;font-weight:normal;font-size:12.80000019px;font-family:sans-serif;text-anchor:middle;fill:#000000"
         x="813.53699"
         y="473.871"
         id="text4810">
        <tspan
           x="813.53699"
           y="473.871"
           id="tspan4812" />
      </text>
    </g>
    <line
       style="fill:none;fill-opacity:0;stroke:#000000;stroke-width:3.83847809"
       x1="392.61267"
       y1="823.44147"
       x2="398.8642"
       y2="806.23529"
       id="line4814" />
    <line
       style="fill:none;fill-opacity:0;stroke:#000000;stroke-width:1.91923904"
       x1="128.8667"
       y1="825.29926"
       x2="260.76602"
       y2="825.51099"
       id="line4816" />
    <g
       id="g4818"
       transform="matrix(1.8796034,0,0,1.9597104,-1109.3747,-238.79991)">
      <path
         inkscape:connector-curvature="0"
         style="fill:none;fill-opacity:0;stroke:#000000;stroke-width:2"
         d="m 722.174,501.162 c 12.13,0 47.478,-31.292 59.608,-31.292"
         id="path4820" />
      <polygon
         style="fill:#000000"
         points="724.674,496.162 722.174,501.162 724.674,506.162 714.674,501.162 "
         id="polygon4822" />
      <polygon
         style="fill:none;fill-opacity:0;stroke:#000000;stroke-width:2"
         points="724.674,496.162 722.174,501.162 724.674,506.162 714.674,501.162 "
         id="polygon4824" />
      <polygon
         style="fill:#000000"
         points="779.282,474.87 781.782,469.87 779.282,464.87 789.282,469.87 "
         id="polygon4826" />
      <polygon
         style="fill:none;fill-opacity:0;stroke:#000000;stroke-width:2"
         points="779.282,474.87 781.782,469.87 779.282,464.87 789.282,469.87 "
         id="polygon4828" />
    </g>
    <line
       style="fill:none;fill-opacity:0;stroke:#000000;stroke-width:1.91923904"
       x1="128.52838"
       y1="871.76013"
       x2="260.43137"
       y2="871.9718"
       id="line4830" />
    <line
       style="fill:none;fill-opacity:0;stroke:#000000;stroke-width:3.83847809"
       x1="260.99521"
       y1="844.89258"
       x2="444.77911"
       y2="736.83411"
       id="line4832" />
    <text
       font-size="7.90222"
       style="font-style:normal;font-weight:normal;font-size:15.16624832px;font-family:sans-serif;text-anchor:start;fill:#000000"
       x="154.49213"
       y="837.17462"
       id="text4838"
       transform="scale(0.97934827,1.0210872)">
      <tspan
         x="154.49213"
         y="837.17462"
         id="tspan4840">TREE ROOT</tspan>
    </text>
    <g
       id="g4842"
       transform="matrix(1.8796034,0,0,1.9597104,-1109.3747,-238.79991)">
      <path
         inkscape:connector-curvature="0"
         style="fill:#ffffff"
         d="m 893.095,445.936 c 6.792,0 40.749,0 47.54,0 6.791,0 6.791,0 6.791,5.167 0,5.167 0,15.502 0,20.669 0,5.167 0,5.167 -6.791,5.167 -6.791,0 -40.748,0 -47.54,0 -6.791,0 -6.791,0 -6.791,-5.167 0,-5.167 0,-15.502 0,-20.669 0,-5.167 0,-5.167 6.791,-5.167 z"
         id="path4844" />
      <path
         inkscape:connector-curvature="0"
         style="fill:none;fill-opacity:0;stroke:#000000;stroke-width:2"
         d="m 893.095,445.936 c 6.792,0 40.749,0 47.54,0 6.791,0 6.791,0 6.791,5.167 0,5.167 0,15.502 0,20.669 0,5.167 0,5.167 -6.791,5.167 -6.791,0 -40.748,0 -47.54,0 -6.791,0 -6.791,0 -6.791,-5.167 0,-5.167 0,-15.502 0,-20.669 0,-5.167 0,-5.167 6.791,-5.167"
         id="path4846" />
      <path
         inkscape:connector-curvature="0"
         style="fill:none;fill-opacity:0;stroke:#000000;stroke-width:0.2"
         d="m 893.095,445.936 c 6.792,0 40.749,0 47.54,0 6.791,0 6.791,0 6.791,5.167 0,5.167 0,15.502 0,20.669 0,5.167 0,5.167 -6.791,5.167 -6.791,0 -40.748,0 -47.54,0 -6.791,0 -6.791,0 -6.791,-5.167 0,-5.167 0,-15.502 0,-20.669 0,-5.167 0,-5.167 6.791,-5.167"
         id="path4848" />
      <line
         style="fill:none;fill-opacity:0;stroke:#000000;stroke-width:0.2"
         x1="893.09497"
         y1="476.939"
         x2="940.63501"
         y2="476.939"
         id="line4850" />
      <line
         style="fill:none;fill-opacity:0;stroke:#000000;stroke-width:0.2"
         x1="947.42603"
         y1="451.103"
         x2="947.42603"
         y2="471.772"
         id="line4852" />
      <line
         style="fill:none;fill-opacity:0;stroke:#000000;stroke-width:0.2"
         x1="886.30402"
         y1="451.103"
         x2="886.30402"
         y2="471.772"
         id="line4854" />
      <line
         style="fill:none;fill-opacity:0;stroke:#000000;stroke-width:0.2"
         x1="893.09497"
         y1="445.936"
         x2="940.63501"
         y2="445.936"
         id="line4856" />
      <text
         font-size="12.8"
         style="font-style:normal;font-weight:normal;font-size:12.80000019px;font-family:sans-serif;text-anchor:middle;fill:#000000"
         x="916.86499"
         y="465.43701"
         id="text4858">
        <tspan
           x="916.86499"
           y="465.43701"
           id="tspan4860" />
      </text>
    </g>
    <path
       inkscape:connector-curvature="0"
       style="fill:none;fill-opacity:0;stroke:#000000;stroke-width:3.83847809"
       d="M 489.0062,777.42947 C 577.04306,727.3236 480.73218,665.48494 556.52531,665.48494"
       id="path4862" />
    <g
       id="g4868"
       transform="matrix(1.8796034,0,0,1.9597104,-1109.3747,-238.79991)">
      <path
         inkscape:connector-curvature="0"
         style="fill:#b7b79d"
         d="m 785.779,493.662 0,-0.965 0.195,-0.779 0.193,-0.488 0.383,-0.58 0.385,-0.392 0.68,-0.587 0.388,-0.192 0.486,-0.193 0.483,-0.094 0.388,0 0.577,0.094 0.388,0.096 0.775,0.289 0.582,0.587 0.387,0.392 0.39,0.676 0.19,0.586 0.193,0.773 0,0.295 0,0.58 -1.16,-0.098 0,-0.482 0,-0.295 -0.099,-0.484 -0.192,-0.289 -0.191,-0.391 -0.199,-0.291 -0.287,-0.292 -0.389,-0.197 -0.388,-0.192 -0.291,-0.096 -0.385,0 -0.483,0 -0.386,0.197 -0.584,0.387 -0.387,0.484 -0.287,0.584 -0.096,0.484 -0.195,0.584 0.092,0.584 -1.156,-0.295 z"
         id="path4870" />
      <path
         inkscape:connector-curvature="0"
         style="fill:#c9c9b6"
         d="m 783.164,497.452 2.226,-2.136 10.358,0 -2.228,2.136 -10.356,0 z"
         id="path4872" />
      <path
         inkscape:connector-curvature="0"
         style="fill:none;fill-opacity:0;stroke:#494936;stroke-width:0.02"
         d="m 783.164,497.452 2.226,-2.136 10.358,0 -2.228,2.136 -10.356,0"
         id="path4874" />
      <path
         inkscape:connector-curvature="0"
         style="fill:#7a7a5a"
         d="m 793.52,505.23 2.324,-2.241 0,-7.771 -2.324,2.331 0,7.681 z"
         id="path4876" />
      <path
         inkscape:connector-curvature="0"
         style="fill:none;fill-opacity:0;stroke:#494936;stroke-width:0.02"
         d="m 793.52,505.23 2.324,-2.241 0,-7.771 -2.324,2.331 0,7.681"
         id="path4878" />
      <path
         inkscape:connector-curvature="0"
         style="fill:#b7b79d"
         d="m 783.164,497.452 0,7.872 10.356,0 0,-7.872 -10.356,0 z"
         id="path4880" />
      <path
         inkscape:connector-curvature="0"
         style="fill:none;fill-opacity:0;stroke:#494936;stroke-width:0.02"
         d="m 783.164,497.452 0,7.872 10.356,0 0,-7.872 -10.356,0"
         id="path4882" />
      <path
         inkscape:connector-curvature="0"
         style="fill:#000000"
         d="m 789.839,500.757 0,-0.059 -0.004,-0.061 -0.007,-0.057 -0.013,-0.057 -0.011,-0.061 -0.018,-0.055 -0.019,-0.057 -0.02,-0.053 -0.024,-0.054 -0.028,-0.051 -0.031,-0.05 -0.031,-0.053 -0.037,-0.043 -0.037,-0.048 -0.04,-0.046 -0.039,-0.042 -0.046,-0.037 -0.044,-0.04 -0.048,-0.032 -0.05,-0.031 -0.053,-0.033 -0.05,-0.024 -0.055,-0.026 -0.054,-0.022 -0.055,-0.02 -0.055,-0.017 -0.059,-0.009 -0.057,-0.011 -0.059,-0.011 -0.057,0 -0.059,-0.004 0,0 -0.057,0.004 -0.063,0 -0.057,0.011 -0.059,0.011 -0.057,0.009 -0.055,0.017 -0.055,0.02 -0.054,0.022 -0.055,0.026 -0.053,0.024 -0.05,0.033 -0.052,0.031 -0.044,0.032 -0.044,0.04 -0.048,0.037 -0.042,0.042 -0.037,0.046 -0.037,0.048 -0.035,0.043 -0.031,0.053 -0.03,0.05 -0.031,0.051 -0.024,0.054 -0.02,0.053 -0.022,0.057 -0.013,0.055 -0.013,0.061 -0.011,0.057 -0.006,0.057 -0.007,0.061 0,0.059 0,0 0,0.057 0.007,0.059 0.006,0.059 0.011,0.059 0.013,0.055 0.013,0.057 0.022,0.057 0.02,0.052 0.024,0.055 0.031,0.052 0.03,0.053 0.031,0.046 0.035,0.05 0.037,0.044 0.037,0.044 0.042,0.041 0.048,0.04 0.044,0.039 0.044,0.035 0.052,0.033 0.05,0.028 0.053,0.027 0.055,0.026 0.054,0.024 0.055,0.018 0.055,0.015 0.057,0.013 0.059,0.011 0.057,0.007 0.063,0.004 0.057,0.002 0,0 0.059,-0.002 0.057,-0.004 0.059,-0.007 0.057,-0.011 0.059,-0.013 0.055,-0.015 0.055,-0.018 0.054,-0.024 0.055,-0.026 0.05,-0.027 0.053,-0.028 0.05,-0.033 0.048,-0.035 0.044,-0.039 0.046,-0.04 0.039,-0.041 0.04,-0.044 0.037,-0.044 0.037,-0.05 0.031,-0.046 0.031,-0.053 0.028,-0.052 0.024,-0.055 0.02,-0.052 0.019,-0.057 0.018,-0.057 0.011,-0.055 0.013,-0.059 0.007,-0.059 0.004,-0.059 0,-0.057 z"
         id="path4884" />
      <path
         inkscape:connector-curvature="0"
         style="fill:none;fill-opacity:0;stroke:#000000;stroke-width:0.02"
         d="m 789.743,500.661 0,-0.062 -0.007,-0.056 -0.006,-0.06 -0.007,-0.056 -0.015,-0.062 -0.02,-0.054 -0.02,-0.055 -0.022,-0.055 -0.019,-0.055 -0.029,-0.05 -0.03,-0.05 -0.033,-0.053 -0.031,-0.046 -0.035,-0.048 -0.044,-0.044 -0.041,-0.039 -0.044,-0.042 -0.048,-0.037 -0.046,-0.033 -0.05,-0.035 -0.049,-0.03 -0.05,-0.029 -0.055,-0.024 -0.054,-0.02 -0.055,-0.017 -0.059,-0.022 -0.055,-0.011 -0.057,-0.011 -0.063,-0.004 -0.057,-0.007 -0.059,0 0,0 -0.061,0 -0.055,0.007 -0.057,0.004 -0.059,0.011 -0.055,0.011 -0.061,0.022 -0.055,0.017 -0.055,0.02 -0.054,0.024 -0.048,0.029 -0.055,0.03 -0.044,0.035 -0.048,0.033 -0.044,0.037 -0.046,0.042 -0.044,0.039 -0.037,0.044 -0.041,0.048 -0.031,0.046 -0.035,0.053 -0.026,0.05 -0.031,0.05 -0.024,0.055 -0.022,0.055 -0.015,0.055 -0.018,0.054 -0.017,0.062 -0.007,0.056 -0.006,0.06 -0.011,0.056 0,0.062 0,0 0,0.059 0.011,0.057 0.006,0.059 0.007,0.059 0.017,0.059 0.018,0.055 0.015,0.054 0.022,0.055 0.024,0.055 0.031,0.052 0.026,0.053 0.035,0.052 0.031,0.044 0.041,0.044 0.037,0.048 0.044,0.039 0.046,0.038 0.044,0.039 0.048,0.037 0.044,0.031 0.055,0.033 0.048,0.028 0.054,0.02 0.055,0.024 0.055,0.017 0.061,0.02 0.055,0.011 0.059,0.011 0.057,0.007 0.055,0.006 0.061,0 0,0 0.059,0 0.057,-0.006 0.063,-0.007 0.057,-0.011 0.055,-0.011 0.059,-0.02 0.055,-0.017 0.054,-0.024 0.055,-0.02 0.05,-0.028 0.049,-0.033 0.05,-0.031 0.046,-0.037 0.048,-0.039 0.044,-0.038 0.041,-0.039 0.044,-0.048 0.035,-0.044 0.031,-0.044 0.033,-0.052 0.03,-0.053 0.029,-0.052 0.019,-0.055 0.022,-0.055 0.02,-0.054 0.02,-0.055 0.015,-0.059 0.007,-0.059 0.006,-0.059 0.007,-0.057 0,-0.059"
         id="path4886" />
      <path
         inkscape:connector-curvature="0"
         style="fill:#000000"
         d="m 788.296,500.468 0.676,0 0,3.495 -0.676,0 0,-3.495 z"
         id="path4888" />
      <path
         inkscape:connector-curvature="0"
         style="fill:none;fill-opacity:0;stroke:#000000;stroke-width:0.02"
         d="m 788.296,500.468 0.674,0 0,3.493 -0.674,0 0,-3.493"
         id="path4890" />
      <path
         inkscape:connector-curvature="0"
         style="fill:#93936c"
         d="m 785.779,496.478 1.156,-1.065 1.166,0 -1.166,1.065 -1.156,0 z"
         id="path4892" />
      <path
         inkscape:connector-curvature="0"
         style="fill:#93936c"
         d="m 791.78,496.478 1.158,-1.065 1.162,0 -1.162,1.065 -1.158,0 z"
         id="path4894" />
      <path
         inkscape:connector-curvature="0"
         style="fill:#b7b79d"
         d="m 792.938,496.478 0,-0.015 0,-0.022 -0.007,-0.019 -0.006,-0.018 -0.007,-0.022 -0.006,-0.017 -0.009,-0.02 -0.013,-0.018 -0.013,-0.017 -0.016,-0.015 -0.019,-0.022 -0.013,-0.016 -0.022,-0.013 -0.02,-0.017 -0.02,-0.013 -0.022,-0.014 -0.022,-0.013 -0.026,-0.011 -0.026,-0.015 -0.029,-0.013 -0.026,-0.009 -0.028,-0.009 -0.029,-0.008 -0.033,-0.005 -0.026,-0.008 -0.03,-0.003 -0.031,-0.004 -0.031,-0.007 -0.033,-0.002 -0.032,0 -0.033,0 0,0 -0.031,0 -0.033,0 -0.032,0.002 -0.029,0.007 -0.033,0.004 -0.028,0.003 -0.033,0.008 -0.031,0.005 -0.026,0.008 -0.031,0.009 -0.028,0.009 -0.024,0.013 -0.026,0.015 -0.024,0.011 -0.024,0.013 -0.02,0.014 -0.024,0.013 -0.018,0.017 -0.019,0.013 -0.018,0.016 -0.017,0.022 -0.018,0.015 -0.013,0.017 -0.011,0.018 -0.011,0.02 -0.009,0.017 -0.004,0.022 -0.007,0.018 -0.006,0.019 0,0.022 0,0.015 0,0 0,0.022 0,0.018 0.006,0.022 0.007,0.019 0.004,0.016 0.009,0.022 0.011,0.017 0.011,0.022 0.013,0.015 0.018,0.018 0.017,0.017 0.018,0.018 0.019,0.015 0.018,0.015 0.024,0.016 0.02,0.013 0.024,0.013 0.024,0.011 0.026,0.013 0.024,0.009 0.028,0.011 0.031,0.011 0.026,0.006 0.031,0.009 0.033,0.004 0.028,0.007 0.033,0.002 0.029,0.002 0.032,0.007 0.033,0.002 0.031,0 0,0 0.033,0 0.032,-0.002 0.033,-0.007 0.031,-0.002 0.031,-0.002 0.03,-0.007 0.026,-0.004 0.033,-0.009 0.029,-0.006 0.028,-0.011 0.026,-0.011 0.029,-0.009 0.026,-0.013 0.026,-0.011 0.022,-0.013 0.022,-0.013 0.02,-0.016 0.02,-0.015 0.022,-0.015 0.013,-0.018 0.019,-0.017 0.016,-0.018 0.013,-0.015 0.013,-0.022 0.009,-0.017 0.006,-0.022 0.007,-0.016 0.006,-0.019 0.007,-0.022 0,-0.018 0,-0.022 z"
         id="path4896" />
      <path
         inkscape:connector-curvature="0"
         style="fill:none;fill-opacity:0;stroke:#494936;stroke-width:0.02"
         d="m 792.842,496.387 0,-0.02 0,-0.022 -0.007,-0.018 -0.002,-0.017 -0.011,-0.024 -0.002,-0.018 -0.013,-0.019 -0.009,-0.018 -0.011,-0.017 -0.015,-0.014 -0.018,-0.021 -0.015,-0.018 -0.016,-0.013 -0.019,-0.013 -0.02,-0.018 -0.02,-0.013 -0.022,-0.011 -0.026,-0.015 -0.022,-0.011 -0.026,-0.013 -0.026,-0.011 -0.024,-0.004 -0.024,-0.011 -0.029,-0.005 -0.026,-0.011 -0.028,-0.004 -0.033,-0.007 -0.029,-0.002 -0.028,0 -0.029,-0.002 -0.033,0 0,0 -0.026,0 -0.028,0.002 -0.033,0 -0.028,0.002 -0.031,0.007 -0.031,0.004 -0.024,0.011 -0.03,0.005 -0.025,0.011 -0.024,0.004 -0.028,0.011 -0.02,0.013 -0.024,0.011 -0.024,0.015 -0.024,0.011 -0.02,0.013 -0.022,0.018 -0.015,0.013 -0.017,0.013 -0.014,0.018 -0.017,0.021 -0.013,0.014 -0.011,0.017 -0.011,0.018 -0.013,0.019 -0.007,0.018 -0.006,0.024 -0.005,0.017 -0.006,0.018 0,0.022 0,0.02 0,0 0,0.017 0,0.02 0.006,0.022 0.005,0.017 0.006,0.024 0.007,0.016 0.013,0.017 0.011,0.022 0.011,0.017 0.013,0.014 0.017,0.017 0.014,0.022 0.017,0.013 0.015,0.015 0.022,0.016 0.02,0.013 0.024,0.011 0.024,0.015 0.024,0.013 0.02,0.011 0.028,0.009 0.024,0.006 0.025,0.007 0.03,0.009 0.024,0.004 0.031,0.011 0.031,0 0.028,0.009 0.033,0 0.028,0.002 0.026,0 0,0 0.033,0 0.029,-0.002 0.028,0 0.029,-0.009 0.033,0 0.028,-0.011 0.026,-0.004 0.029,-0.009 0.024,-0.007 0.024,-0.006 0.026,-0.009 0.026,-0.011 0.022,-0.013 0.026,-0.015 0.022,-0.011 0.02,-0.013 0.02,-0.016 0.019,-0.015 0.016,-0.013 0.015,-0.022 0.018,-0.017 0.015,-0.014 0.011,-0.017 0.009,-0.022 0.013,-0.017 0.002,-0.016 0.011,-0.024 0.002,-0.017 0.007,-0.022 0,-0.02 0,-0.017"
         id="path4898" />
      <path
         inkscape:connector-curvature="0"
         style="fill:none;fill-opacity:0;stroke:#494936;stroke-width:0.02"
         d="m 792.931,493.469 -0.002,-0.208 -0.017,-0.203 -0.022,-0.206 -0.035,-0.206 -0.042,-0.199 -0.046,-0.199 -0.063,-0.195 -0.066,-0.195 -0.076,-0.183 -0.088,-0.182 -0.09,-0.186 -0.103,-0.169 -0.109,-0.164 -0.114,-0.164 -0.127,-0.149 -0.127,-0.148 -0.135,-0.138 -0.14,-0.134 -0.156,-0.12 -0.149,-0.114 -0.157,-0.105 -0.169,-0.096 -0.16,-0.086 -0.175,-0.074 -0.17,-0.068 -0.182,-0.061 -0.177,-0.044 -0.182,-0.037 -0.184,-0.022 -0.179,-0.022 -0.184,0 -0.184,0 -0.181,0.022 -0.187,0.022 -0.179,0.037 -0.175,0.044 -0.182,0.061 -0.17,0.068 -0.171,0.074 -0.169,0.086 -0.164,0.096 -0.157,0.105 -0.149,0.114 -0.151,0.12 -0.145,0.134 -0.135,0.138 -0.127,0.148 -0.127,0.149 -0.116,0.164 -0.105,0.164 -0.103,0.169 -0.09,0.186 -0.085,0.182 -0.079,0.183 -0.068,0.195 -0.061,0.195 -0.048,0.199 -0.046,0.199 -0.033,0.206 -0.022,0.206 -0.015,0.203 -0.005,0.208"
         id="path4900" />
      <path
         inkscape:connector-curvature="0"
         style="fill:#b7b79d"
         d="m 791.78,493.662 1.062,0 0,2.816 -1.062,0 0,-2.816 z"
         id="path4902" />
      <path
         inkscape:connector-curvature="0"
         style="fill:none;fill-opacity:0;stroke:#494936;stroke-width:0.02"
         d="m 792.842,496.382 0,-2.913"
         id="path4904" />
      <path
         inkscape:connector-curvature="0"
         style="fill:none;fill-opacity:0;stroke:#000000;stroke-width:0.02"
         d="m 791.682,496.382 0,-2.913"
         id="path4906" />
      <path
         inkscape:connector-curvature="0"
         style="fill:#b7b79d"
         d="m 786.933,496.478 0,-0.015 0,-0.022 -0.009,-0.019 -0.002,-0.018 -0.007,-0.022 -0.011,-0.017 -0.011,-0.02 -0.009,-0.018 -0.015,-0.017 -0.015,-0.015 -0.018,-0.022 -0.017,-0.016 -0.018,-0.013 -0.019,-0.017 -0.022,-0.013 -0.02,-0.014 -0.026,-0.013 -0.024,-0.011 -0.029,-0.015 -0.024,-0.013 -0.026,-0.009 -0.031,-0.009 -0.028,-0.008 -0.031,-0.005 -0.03,-0.008 -0.031,-0.003 -0.029,-0.004 -0.03,-0.007 -0.033,-0.002 -0.031,0 -0.03,0 0,0 -0.035,0 -0.031,0 -0.035,0.002 -0.026,0.007 -0.031,0.004 -0.03,0.003 -0.031,0.008 -0.031,0.005 -0.028,0.008 -0.031,0.009 -0.028,0.009 -0.022,0.013 -0.029,0.015 -0.026,0.011 -0.022,0.013 -0.024,0.014 -0.02,0.013 -0.017,0.017 -0.02,0.013 -0.017,0.016 -0.018,0.022 -0.017,0.015 -0.013,0.017 -0.011,0.018 -0.009,0.02 -0.011,0.017 -0.007,0.022 -0.004,0.018 -0.007,0.019 -0.002,0.022 0,0.015 0,0 0,0.022 0.002,0.018 0.007,0.022 0.004,0.019 0.007,0.016 0.011,0.022 0.009,0.017 0.011,0.022 0.013,0.015 0.017,0.018 0.018,0.017 0.017,0.018 0.02,0.015 0.017,0.015 0.02,0.016 0.024,0.013 0.022,0.013 0.026,0.011 0.029,0.013 0.022,0.009 0.028,0.011 0.031,0.011 0.028,0.006 0.031,0.009 0.031,0.004 0.03,0.007 0.031,0.002 0.026,0.002 0.035,0.007 0.031,0.002 0.035,0 0,0 0.03,0 0.031,-0.002 0.033,-0.007 0.03,-0.002 0.029,-0.002 0.031,-0.007 0.03,-0.004 0.031,-0.009 0.028,-0.006 0.031,-0.011 0.026,-0.011 0.024,-0.009 0.029,-0.013 0.024,-0.011 0.026,-0.013 0.02,-0.013 0.022,-0.016 0.019,-0.015 0.018,-0.015 0.017,-0.018 0.018,-0.017 0.015,-0.018 0.015,-0.015 0.009,-0.022 0.011,-0.017 0.011,-0.022 0.007,-0.016 0.002,-0.019 0.009,-0.022 0,-0.018 0,-0.022 z"
         id="path4908" />
      <path
         inkscape:connector-curvature="0"
         style="fill:none;fill-opacity:0;stroke:#494936;stroke-width:0.02"
         d="m 786.843,496.387 0,-0.02 -0.007,-0.022 0,-0.018 -0.006,-0.017 -0.007,-0.024 -0.009,-0.018 -0.008,-0.019 -0.011,-0.018 -0.011,-0.017 -0.013,-0.014 -0.013,-0.021 -0.018,-0.018 -0.017,-0.013 -0.02,-0.013 -0.022,-0.018 -0.02,-0.013 -0.019,-0.011 -0.025,-0.015 -0.024,-0.011 -0.024,-0.013 -0.028,-0.011 -0.024,-0.004 -0.026,-0.011 -0.031,-0.005 -0.024,-0.011 -0.031,-0.004 -0.03,-0.007 -0.025,-0.002 -0.03,0 -0.031,-0.002 -0.03,0 0,0 -0.031,0 -0.024,0.002 -0.031,0 -0.03,0.002 -0.024,0.007 -0.031,0.004 -0.024,0.011 -0.031,0.005 -0.028,0.011 -0.027,0.004 -0.024,0.011 -0.024,0.013 -0.024,0.011 -0.028,0.015 -0.02,0.011 -0.017,0.013 -0.02,0.018 -0.022,0.013 -0.02,0.013 -0.013,0.018 -0.015,0.021 -0.015,0.014 -0.011,0.017 -0.011,0.018 -0.009,0.019 -0.009,0.018 -0.009,0.024 0,0.017 -0.006,0.018 -0.005,0.022 0,0.02 0,0 0,0.017 0.005,0.02 0.006,0.022 0,0.017 0.009,0.024 0.009,0.016 0.009,0.017 0.011,0.022 0.011,0.017 0.015,0.014 0.015,0.017 0.013,0.022 0.02,0.013 0.022,0.015 0.02,0.016 0.017,0.013 0.02,0.011 0.028,0.015 0.024,0.013 0.024,0.011 0.024,0.009 0.027,0.006 0.028,0.007 0.031,0.009 0.024,0.004 0.031,0.011 0.024,0 0.03,0.009 0.031,0 0.024,0.002 0.031,0 0,0 0.03,0 0.031,-0.002 0.03,0 0.025,-0.009 0.03,0 0.031,-0.011 0.024,-0.004 0.031,-0.009 0.026,-0.007 0.024,-0.006 0.028,-0.009 0.024,-0.011 0.024,-0.013 0.025,-0.015 0.019,-0.011 0.02,-0.013 0.022,-0.016 0.02,-0.015 0.017,-0.013 0.018,-0.022 0.013,-0.017 0.013,-0.014 0.011,-0.017 0.011,-0.022 0.008,-0.017 0.009,-0.016 0.007,-0.024 0.006,-0.017 0,-0.022 0.007,-0.02 0,-0.017"
         id="path4910" />
      <path
         inkscape:connector-curvature="0"
         style="fill:#7a7a5a"
         d="m 785.779,493.662 1.064,0 0,2.816 -1.064,0 0,-2.816 z"
         id="path4912" />
      <path
         inkscape:connector-curvature="0"
         style="fill:none;fill-opacity:0;stroke:#494936;stroke-width:0.02"
         d="m 791.774,493.66 0,-0.154 -0.011,-0.153 -0.013,-0.157 -0.02,-0.149 -0.031,-0.151 -0.035,-0.151 -0.037,-0.145 -0.044,-0.144 -0.054,-0.142 -0.055,-0.136 -0.061,-0.136 -0.066,-0.131 -0.072,-0.127 -0.075,-0.123 -0.083,-0.111 -0.085,-0.11 -0.092,-0.109 -0.096,-0.098 -0.092,-0.095 -0.103,-0.089 -0.11,-0.083 -0.105,-0.07 -0.114,-0.068 -0.109,-0.055 -0.116,-0.055 -0.116,-0.046 -0.12,-0.039 -0.123,-0.033 -0.12,-0.02 -0.123,-0.017 -0.122,-0.009 -0.125,0 -0.123,0.009 -0.118,0.017 -0.125,0.02 -0.118,0.033 -0.125,0.039 -0.118,0.046 -0.109,0.055 -0.114,0.055 -0.116,0.068 -0.103,0.07 -0.109,0.083 -0.099,0.089 -0.096,0.095 -0.098,0.098 -0.09,0.109 -0.086,0.11 -0.078,0.111 -0.075,0.123 -0.076,0.127 -0.064,0.131 -0.063,0.136 -0.055,0.136 -0.05,0.142 -0.044,0.144 -0.042,0.145 -0.03,0.151 -0.031,0.151 -0.024,0.149 -0.013,0.157 -0.009,0.153 -0.002,0.154"
         id="path4914" />
      <path
         inkscape:connector-curvature="0"
         style="fill:#b7b79d"
         d="m 785.779,493.662 1.064,0 0,2.816 -1.064,0 0,-2.816 z"
         id="path4916" />
      <path
         inkscape:connector-curvature="0"
         style="fill:none;fill-opacity:0;stroke:#494936;stroke-width:0.02"
         d="m 785.676,496.382 0,-2.913"
         id="path4918" />
      <path
         inkscape:connector-curvature="0"
         style="fill:none;fill-opacity:0;stroke:#000000;stroke-width:0.02"
         d="m 786.843,496.382 0,-2.913"
         id="path4920" />
      <path
         inkscape:connector-curvature="0"
         style="fill:none;fill-opacity:0;stroke:#dbdbce;stroke-width:0.63999999"
         d="m 789.196,489.681 -0.171,-0.002 -0.171,0.011 -0.171,0.019 -0.175,0.027 -0.164,0.048 -0.164,0.054 -0.164,0.062 -0.158,0.079 -0.159,0.083 -0.156,0.096 -0.146,0.107 -0.14,0.114 -0.138,0.129 -0.136,0.134 -0.127,0.144 -0.116,0.151 -0.116,0.16 -0.107,0.166 -0.101,0.177 -0.09,0.178 -0.085,0.186"
         id="path4922" />
    </g>
    <g
       id="g4924"
       transform="matrix(1.8796034,0,0,1.9597104,-1109.3747,-238.79991)">
      <path
         inkscape:connector-curvature="0"
         style="fill:#b7b79d"
         d="m 686.497,528.029 0,-0.822 0.166,-0.664 0.164,-0.416 0.327,-0.494 0.328,-0.333 0.579,-0.5 0.33,-0.164 0.414,-0.164 0.412,-0.08 0.33,0 0.492,0.08 0.33,0.082 0.66,0.246 0.495,0.5 0.33,0.333 0.332,0.576 0.162,0.5 0.164,0.658 0,0.251 0,0.494 -0.988,-0.083 0,-0.411 0,-0.251 -0.083,-0.412 -0.164,-0.246 -0.163,-0.334 -0.169,-0.248 -0.244,-0.248 -0.332,-0.167 -0.33,-0.164 -0.248,-0.082 -0.328,0 -0.412,0 -0.328,0.167 -0.498,0.33 -0.33,0.412 -0.244,0.498 -0.082,0.412 -0.166,0.497 0.079,0.498 -0.985,-0.251 z"
         id="path4926" />
      <path
         inkscape:connector-curvature="0"
         style="fill:#c9c9b6"
         d="m 684.27,531.257 1.896,-1.819 8.822,0 -1.898,1.819 -8.82,0 z"
         id="path4928" />
      <path
         inkscape:connector-curvature="0"
         style="fill:none;fill-opacity:0;stroke:#494936;stroke-width:0.02"
         d="m 684.27,531.257 1.896,-1.819 8.822,0 -1.898,1.819 -8.82,0"
         id="path4930" />
      <path
         inkscape:connector-curvature="0"
         style="fill:#7a7a5a"
         d="m 693.09,537.881 1.98,-1.908 0,-6.619 -1.98,1.985 0,6.542 z"
         id="path4932" />
      <path
         inkscape:connector-curvature="0"
         style="fill:none;fill-opacity:0;stroke:#494936;stroke-width:0.02"
         d="m 693.09,537.881 1.98,-1.908 0,-6.619 -1.98,1.985 0,6.542"
         id="path4934" />
      <path
         inkscape:connector-curvature="0"
         style="fill:#b7b79d"
         d="m 684.27,531.257 0,6.704 8.82,0 0,-6.704 -8.82,0 z"
         id="path4936" />
      <path
         inkscape:connector-curvature="0"
         style="fill:none;fill-opacity:0;stroke:#494936;stroke-width:0.02"
         d="m 684.27,531.257 0,6.704 8.82,0 0,-6.704 -8.82,0"
         id="path4938" />
      <path
         inkscape:connector-curvature="0"
         style="fill:#000000"
         d="m 689.955,534.071 0,-0.05 -0.004,-0.052 -0.005,-0.049 -0.011,-0.048 -0.01,-0.052 -0.015,-0.047 -0.017,-0.048 -0.016,-0.045 -0.021,-0.047 -0.024,-0.042 -0.026,-0.043 -0.026,-0.045 -0.032,-0.037 -0.032,-0.041 -0.033,-0.04 -0.034,-0.035 -0.039,-0.032 -0.037,-0.033 -0.041,-0.028 -0.043,-0.026 -0.045,-0.028 -0.043,-0.021 -0.046,-0.022 -0.047,-0.019 -0.046,-0.016 -0.047,-0.015 -0.05,-0.008 -0.049,-0.009 -0.05,-0.009 -0.049,0 -0.05,-0.004 0,0 -0.048,0.004 -0.054,0 -0.049,0.009 -0.05,0.009 -0.049,0.008 -0.046,0.015 -0.047,0.016 -0.046,0.019 -0.047,0.022 -0.045,0.021 -0.043,0.028 -0.044,0.026 -0.038,0.028 -0.037,0.033 -0.041,0.032 -0.035,0.035 -0.032,0.04 -0.032,0.041 -0.03,0.037 -0.026,0.045 -0.026,0.043 -0.026,0.042 -0.02,0.047 -0.017,0.045 -0.019,0.048 -0.011,0.047 -0.011,0.052 -0.009,0.048 -0.006,0.049 -0.006,0.052 0,0.05 0,0 0,0.049 0.006,0.05 0.006,0.051 0.009,0.05 0.011,0.046 0.011,0.049 0.019,0.048 0.017,0.045 0.02,0.047 0.026,0.044 0.026,0.045 0.026,0.039 0.03,0.043 0.032,0.037 0.032,0.038 0.035,0.035 0.041,0.034 0.037,0.033 0.038,0.03 0.044,0.028 0.043,0.024 0.045,0.023 0.047,0.022 0.046,0.021 0.047,0.014 0.046,0.013 0.049,0.012 0.05,0.009 0.049,0.006 0.054,0.003 0.048,0.002 0,0 0.05,-0.002 0.049,-0.003 0.05,-0.006 0.049,-0.009 0.05,-0.012 0.047,-0.013 0.046,-0.014 0.047,-0.021 0.046,-0.022 0.043,-0.023 0.045,-0.024 0.043,-0.028 0.041,-0.03 0.037,-0.033 0.039,-0.034 0.034,-0.035 0.033,-0.038 0.032,-0.037 0.032,-0.043 0.026,-0.039 0.026,-0.045 0.024,-0.044 0.021,-0.047 0.016,-0.045 0.017,-0.048 0.015,-0.049 0.01,-0.046 0.011,-0.05 0.005,-0.051 0.004,-0.05 0,-0.049 z"
         id="path4940" />
      <path
         inkscape:connector-curvature="0"
         style="fill:none;fill-opacity:0;stroke:#000000;stroke-width:0.02"
         d="m 689.873,533.989 0,-0.052 -0.006,-0.048 -0.005,-0.051 -0.006,-0.048 -0.013,-0.052 -0.017,-0.047 -0.016,-0.046 -0.019,-0.047 -0.017,-0.047 -0.024,-0.042 -0.026,-0.043 -0.028,-0.045 -0.026,-0.039 -0.03,-0.041 -0.037,-0.038 -0.036,-0.033 -0.037,-0.035 -0.041,-0.032 -0.039,-0.028 -0.043,-0.03 -0.041,-0.026 -0.043,-0.024 -0.046,-0.021 -0.047,-0.017 -0.047,-0.014 -0.05,-0.019 -0.047,-0.009 -0.048,-0.01 -0.054,-0.003 -0.049,-0.006 -0.05,0 0,0 -0.052,0 -0.047,0.006 -0.048,0.003 -0.05,0.01 -0.047,0.009 -0.052,0.019 -0.047,0.014 -0.046,0.017 -0.047,0.021 -0.041,0.024 -0.047,0.026 -0.037,0.03 -0.041,0.028 -0.037,0.032 -0.039,0.035 -0.038,0.033 -0.031,0.038 -0.036,0.041 -0.026,0.039 -0.03,0.045 -0.022,0.043 -0.026,0.042 -0.021,0.047 -0.018,0.047 -0.013,0.046 -0.015,0.047 -0.015,0.052 -0.006,0.048 -0.005,0.051 -0.01,0.048 0,0.052 0,0 0,0.051 0.01,0.048 0.005,0.051 0.006,0.05 0.015,0.05 0.015,0.047 0.013,0.046 0.018,0.047 0.021,0.047 0.026,0.044 0.022,0.045 0.03,0.045 0.026,0.037 0.036,0.037 0.031,0.041 0.038,0.034 0.039,0.032 0.037,0.033 0.041,0.032 0.037,0.026 0.047,0.028 0.041,0.024 0.047,0.017 0.046,0.02 0.047,0.015 0.052,0.017 0.047,0.009 0.05,0.01 0.048,0.005 0.047,0.006 0.052,0 0,0 0.05,0 0.049,-0.006 0.054,-0.005 0.048,-0.01 0.047,-0.009 0.05,-0.017 0.047,-0.015 0.047,-0.02 0.046,-0.017 0.043,-0.024 0.041,-0.028 0.043,-0.026 0.039,-0.032 0.041,-0.033 0.037,-0.032 0.036,-0.034 0.037,-0.041 0.03,-0.037 0.026,-0.037 0.028,-0.045 0.026,-0.045 0.024,-0.044 0.017,-0.047 0.019,-0.047 0.016,-0.046 0.017,-0.047 0.013,-0.05 0.006,-0.05 0.005,-0.051 0.006,-0.048 0,-0.051"
         id="path4942" />
      <path
         inkscape:connector-curvature="0"
         style="fill:#000000"
         d="m 688.641,533.825 0.576,0 0,2.977 -0.576,0 0,-2.977 z"
         id="path4944" />
      <path
         inkscape:connector-curvature="0"
         style="fill:none;fill-opacity:0;stroke:#000000;stroke-width:0.02"
         d="m 688.641,533.825 0.574,0 0,2.975 -0.574,0 0,-2.975"
         id="path4946" />
      <path
         inkscape:connector-curvature="0"
         style="fill:#93936c"
         d="m 686.497,530.427 0.985,-0.907 0.993,0 -0.993,0.907 -0.985,0 z"
         id="path4948" />
      <path
         inkscape:connector-curvature="0"
         style="fill:#93936c"
         d="m 691.608,530.427 0.986,-0.907 0.99,0 -0.99,0.907 -0.986,0 z"
         id="path4950" />
      <path
         inkscape:connector-curvature="0"
         style="fill:#b7b79d"
         d="m 692.594,530.427 0,-0.013 0,-0.018 -0.005,-0.017 -0.006,-0.015 -0.005,-0.019 -0.006,-0.014 -0.007,-0.017 -0.012,-0.015 -0.011,-0.015 -0.013,-0.013 -0.017,-0.019 -0.011,-0.013 -0.018,-0.011 -0.017,-0.015 -0.017,-0.011 -0.019,-0.011 -0.018,-0.011 -0.023,-0.01 -0.022,-0.013 -0.024,-0.011 -0.023,-0.007 -0.024,-0.008 -0.024,-0.007 -0.028,-0.004 -0.022,-0.008 -0.027,-10e-4 -0.026,-0.004 -0.026,-0.006 -0.028,-0.002 -0.028,0 -0.028,0 0,0 -0.026,0 -0.028,0 -0.028,0.002 -0.024,0.006 -0.028,0.004 -0.024,10e-4 -0.028,0.008 -0.026,0.004 -0.022,0.007 -0.027,0.008 -0.024,0.007 -0.02,0.011 -0.023,0.013 -0.02,0.01 -0.021,0.011 -0.016,0.011 -0.021,0.011 -0.015,0.015 -0.017,0.011 -0.015,0.013 -0.014,0.019 -0.015,0.013 -0.012,0.015 -0.009,0.015 -0.009,0.017 -0.008,0.014 -0.003,0.019 -0.006,0.015 -0.006,0.017 0,0.018 0,0.013 0,0 0,0.019 0,0.015 0.006,0.019 0.006,0.016 0.003,0.013 0.008,0.019 0.009,0.015 0.009,0.019 0.012,0.013 0.015,0.015 0.014,0.014 0.015,0.015 0.017,0.013 0.015,0.014 0.021,0.013 0.016,0.011 0.021,0.011 0.02,0.009 0.023,0.011 0.02,0.008 0.024,0.009 0.027,0.01 0.022,0.005 0.026,0.008 0.028,0.003 0.024,0.006 0.028,0.002 0.024,0.002 0.028,0.005 0.028,0.002 0.026,0 0,0 0.028,0 0.028,-0.002 0.028,-0.005 0.026,-0.002 0.026,-0.002 0.027,-0.006 0.022,-0.003 0.028,-0.008 0.024,-0.005 0.024,-0.01 0.023,-0.009 0.024,-0.008 0.022,-0.011 0.023,-0.009 0.018,-0.011 0.019,-0.011 0.017,-0.013 0.017,-0.014 0.018,-0.013 0.011,-0.015 0.017,-0.014 0.013,-0.015 0.011,-0.013 0.012,-0.019 0.007,-0.015 0.006,-0.019 0.005,-0.013 0.006,-0.016 0.005,-0.019 0,-0.015 0,-0.019 z"
         id="path4952" />
      <path
         inkscape:connector-curvature="0"
         style="fill:none;fill-opacity:0;stroke:#494936;stroke-width:0.02"
         d="m 692.512,530.349 0,-0.017 0,-0.018 -0.005,-0.015 -0.002,-0.015 -0.009,-0.021 -0.002,-0.015 -0.011,-0.016 -0.008,-0.015 -0.009,-0.015 -0.013,-0.011 -0.015,-0.019 -0.013,-0.015 -0.013,-0.011 -0.017,-0.011 -0.017,-0.015 -0.017,-0.011 -0.018,-0.01 -0.023,-0.013 -0.018,-0.009 -0.023,-0.011 -0.022,-0.009 -0.021,-0.004 -0.02,-0.01 -0.024,-0.003 -0.023,-0.01 -0.024,-0.003 -0.028,-0.006 -0.024,-0.002 -0.024,0 -0.025,-0.002 -0.027,0 0,0 -0.023,0 -0.024,0.002 -0.028,0 -0.024,0.002 -0.026,0.006 -0.026,0.003 -0.021,0.01 -0.026,0.003 -0.021,0.01 -0.02,0.004 -0.024,0.009 -0.017,0.011 -0.021,0.009 -0.02,0.013 -0.021,0.01 -0.016,0.011 -0.019,0.015 -0.013,0.011 -0.015,0.011 -0.011,0.015 -0.015,0.019 -0.011,0.011 -0.01,0.015 -0.009,0.015 -0.011,0.016 -0.006,0.015 -0.005,0.021 -0.004,0.015 -0.006,0.015 0,0.018 0,0.017 0,0 0,0.015 0,0.017 0.006,0.018 0.004,0.015 0.005,0.021 0.006,0.013 0.011,0.015 0.009,0.018 0.01,0.015 0.011,0.012 0.015,0.014 0.011,0.019 0.015,0.011 0.013,0.013 0.019,0.013 0.016,0.012 0.021,0.009 0.02,0.013 0.021,0.011 0.017,0.009 0.024,0.008 0.02,0.006 0.021,0.005 0.026,0.008 0.021,0.003 0.026,0.01 0.026,0 0.024,0.007 0.028,0 0.024,0.002 0.023,0 0,0 0.027,0 0.025,-0.002 0.024,0 0.024,-0.007 0.028,0 0.024,-0.01 0.023,-0.003 0.024,-0.008 0.02,-0.005 0.021,-0.006 0.022,-0.008 0.023,-0.009 0.018,-0.011 0.023,-0.013 0.018,-0.009 0.017,-0.012 0.017,-0.013 0.017,-0.013 0.013,-0.011 0.013,-0.019 0.015,-0.014 0.013,-0.012 0.009,-0.015 0.008,-0.018 0.011,-0.015 0.002,-0.013 0.009,-0.021 0.002,-0.015 0.005,-0.018 0,-0.017 0,-0.015"
         id="path4954" />
      <path
         inkscape:connector-curvature="0"
         style="fill:none;fill-opacity:0;stroke:#494936;stroke-width:0.02"
         d="m 692.589,527.865 -0.002,-0.178 -0.015,-0.173 -0.019,-0.175 -0.029,-0.175 -0.036,-0.17 -0.039,-0.17 -0.054,-0.165 -0.056,-0.166 -0.065,-0.157 -0.075,-0.155 -0.076,-0.158 -0.088,-0.144 -0.093,-0.139 -0.097,-0.14 -0.108,-0.127 -0.108,-0.127 -0.116,-0.117 -0.119,-0.114 -0.132,-0.102 -0.127,-0.097 -0.134,-0.09 -0.144,-0.082 -0.136,-0.072 -0.149,-0.064 -0.145,-0.058 -0.155,-0.052 -0.151,-0.037 -0.155,-0.032 -0.156,-0.018 -0.153,-0.019 -0.157,0 -0.156,0 -0.155,0.019 -0.159,0.018 -0.152,0.032 -0.149,0.037 -0.155,0.052 -0.146,0.058 -0.145,0.064 -0.143,0.072 -0.14,0.082 -0.134,0.09 -0.127,0.097 -0.129,0.102 -0.123,0.114 -0.115,0.117 -0.109,0.127 -0.108,0.127 -0.098,0.14 -0.09,0.139 -0.087,0.144 -0.077,0.158 -0.073,0.155 -0.067,0.157 -0.057,0.166 -0.053,0.165 -0.041,0.17 -0.039,0.17 -0.028,0.175 -0.018,0.175 -0.013,0.173 -0.004,0.178"
         id="path4956" />
      <path
         inkscape:connector-curvature="0"
         style="fill:#b7b79d"
         d="m 691.608,528.029 0.904,0 0,2.398 -0.904,0 0,-2.398 z"
         id="path4958" />
      <path
         inkscape:connector-curvature="0"
         style="fill:none;fill-opacity:0;stroke:#494936;stroke-width:0.02"
         d="m 692.512,530.345 0,-2.48"
         id="path4960" />
      <path
         inkscape:connector-curvature="0"
         style="fill:none;fill-opacity:0;stroke:#000000;stroke-width:0.02"
         d="m 691.524,530.345 0,-2.48"
         id="path4962" />
      <path
         inkscape:connector-curvature="0"
         style="fill:#b7b79d"
         d="m 687.48,530.427 0,-0.013 0,-0.018 -0.008,-0.017 -0.002,-0.015 -0.005,-0.019 -0.01,-0.014 -0.009,-0.017 -0.007,-0.015 -0.013,-0.015 -0.013,-0.013 -0.015,-0.019 -0.015,-0.013 -0.015,-0.011 -0.017,-0.015 -0.019,-0.011 -0.016,-0.011 -0.023,-0.011 -0.02,-0.01 -0.024,-0.013 -0.021,-0.011 -0.022,-0.007 -0.026,-0.008 -0.025,-0.007 -0.026,-0.004 -0.026,-0.008 -0.026,-10e-4 -0.024,-0.004 -0.026,-0.006 -0.028,-0.002 -0.026,0 -0.026,0 0,0 -0.03,0 -0.026,0 -0.03,0.002 -0.022,0.006 -0.027,0.004 -0.026,10e-4 -0.026,0.008 -0.026,0.004 -0.024,0.007 -0.026,0.008 -0.024,0.007 -0.019,0.011 -0.024,0.013 -0.023,0.01 -0.018,0.011 -0.021,0.011 -0.017,0.011 -0.015,0.015 -0.016,0.011 -0.015,0.013 -0.015,0.019 -0.015,0.013 -0.011,0.015 -0.01,0.015 -0.007,0.017 -0.009,0.014 -0.006,0.019 -0.004,0.015 -0.005,0.017 -0.002,0.018 0,0.013 0,0 0,0.019 0.002,0.015 0.005,0.019 0.004,0.016 0.006,0.013 0.009,0.019 0.007,0.015 0.01,0.019 0.011,0.013 0.015,0.015 0.015,0.014 0.015,0.015 0.016,0.013 0.015,0.014 0.017,0.013 0.021,0.011 0.018,0.011 0.023,0.009 0.024,0.011 0.019,0.008 0.024,0.009 0.026,0.01 0.024,0.005 0.026,0.008 0.026,0.003 0.026,0.006 0.027,0.002 0.022,0.002 0.03,0.005 0.026,0.002 0.03,0 0,0 0.026,0 0.026,-0.002 0.028,-0.005 0.026,-0.002 0.024,-0.002 0.026,-0.006 0.026,-0.003 0.026,-0.008 0.025,-0.005 0.026,-0.01 0.022,-0.009 0.021,-0.008 0.024,-0.011 0.02,-0.009 0.023,-0.011 0.016,-0.011 0.019,-0.013 0.017,-0.014 0.015,-0.013 0.015,-0.015 0.015,-0.014 0.013,-0.015 0.013,-0.013 0.007,-0.019 0.009,-0.015 0.01,-0.019 0.005,-0.013 0.002,-0.016 0.008,-0.019 0,-0.015 0,-0.019 z"
         id="path4964" />
      <path
         inkscape:connector-curvature="0"
         style="fill:none;fill-opacity:0;stroke:#494936;stroke-width:0.02"
         d="m 687.403,530.349 0,-0.017 -0.005,-0.018 0,-0.015 -0.006,-0.015 -0.005,-0.021 -0.008,-0.015 -0.007,-0.016 -0.01,-0.015 -0.009,-0.015 -0.011,-0.011 -0.011,-0.019 -0.015,-0.015 -0.015,-0.011 -0.017,-0.011 -0.019,-0.015 -0.016,-0.011 -0.017,-0.01 -0.021,-0.013 -0.02,-0.009 -0.021,-0.011 -0.024,-0.009 -0.02,-0.004 -0.023,-0.01 -0.026,-0.003 -0.02,-0.01 -0.027,-0.003 -0.026,-0.006 -0.02,-0.002 -0.026,0 -0.026,-0.002 -0.026,0 0,0 -0.026,0 -0.021,0.002 -0.026,0 -0.026,0.002 -0.021,0.006 -0.026,0.003 -0.02,0.01 -0.026,0.003 -0.025,0.01 -0.022,0.004 -0.02,0.009 -0.021,0.011 -0.02,0.009 -0.025,0.013 -0.016,0.01 -0.015,0.011 -0.017,0.015 -0.019,0.011 -0.017,0.011 -0.011,0.015 -0.013,0.019 -0.013,0.011 -0.009,0.015 -0.01,0.015 -0.007,0.016 -0.007,0.015 -0.008,0.021 0,0.015 -0.005,0.015 -0.004,0.018 0,0.017 0,0 0,0.015 0.004,0.017 0.005,0.018 0,0.015 0.008,0.021 0.007,0.013 0.007,0.015 0.01,0.018 0.009,0.015 0.013,0.012 0.013,0.014 0.011,0.019 0.017,0.011 0.019,0.013 0.017,0.013 0.015,0.012 0.016,0.009 0.025,0.013 0.02,0.011 0.021,0.009 0.02,0.008 0.022,0.006 0.025,0.005 0.026,0.008 0.02,0.003 0.026,0.01 0.021,0 0.026,0.007 0.026,0 0.021,0.002 0.026,0 0,0 0.026,0 0.026,-0.002 0.026,0 0.02,-0.007 0.026,0 0.027,-0.01 0.02,-0.003 0.026,-0.008 0.023,-0.005 0.02,-0.006 0.024,-0.008 0.021,-0.009 0.02,-0.011 0.021,-0.013 0.017,-0.009 0.016,-0.012 0.019,-0.013 0.017,-0.013 0.015,-0.011 0.015,-0.019 0.011,-0.014 0.011,-0.012 0.009,-0.015 0.01,-0.018 0.007,-0.015 0.008,-0.013 0.005,-0.021 0.006,-0.015 0,-0.018 0.005,-0.017 0,-0.015"
         id="path4966" />
      <path
         inkscape:connector-curvature="0"
         style="fill:#7a7a5a"
         d="m 686.497,528.029 0.906,0 0,2.398 -0.906,0 0,-2.398 z"
         id="path4968" />
      <path
         inkscape:connector-curvature="0"
         style="fill:none;fill-opacity:0;stroke:#494936;stroke-width:0.02"
         d="m 691.603,528.027 0,-0.131 -0.01,-0.13 -0.011,-0.134 -0.017,-0.127 -0.026,-0.129 -0.029,-0.128 -0.032,-0.123 -0.037,-0.123 -0.047,-0.122 -0.047,-0.115 -0.052,-0.116 -0.056,-0.112 -0.061,-0.108 -0.064,-0.104 -0.07,-0.095 -0.073,-0.093 -0.078,-0.094 -0.082,-0.083 -0.079,-0.081 -0.087,-0.076 -0.094,-0.071 -0.089,-0.059 -0.097,-0.058 -0.093,-0.047 -0.099,-0.046 -0.099,-0.04 -0.102,-0.033 -0.105,-0.028 -0.102,-0.017 -0.104,-0.015 -0.105,-0.007 -0.106,0 -0.105,0.007 -0.1,0.015 -0.106,0.017 -0.101,0.028 -0.106,0.033 -0.101,0.04 -0.093,0.046 -0.097,0.047 -0.099,0.058 -0.087,0.059 -0.094,0.071 -0.084,0.076 -0.082,0.081 -0.083,0.083 -0.077,0.094 -0.073,0.093 -0.067,0.095 -0.063,0.104 -0.065,0.108 -0.054,0.112 -0.054,0.116 -0.047,0.115 -0.043,0.122 -0.037,0.123 -0.036,0.123 -0.026,0.128 -0.026,0.129 -0.02,0.127 -0.011,0.134 -0.008,0.13 -0.002,0.131"
         id="path4970" />
      <path
         inkscape:connector-curvature="0"
         style="fill:#b7b79d"
         d="m 686.497,528.029 0.906,0 0,2.398 -0.906,0 0,-2.398 z"
         id="path4972" />
      <path
         inkscape:connector-curvature="0"
         style="fill:none;fill-opacity:0;stroke:#494936;stroke-width:0.02"
         d="m 686.41,530.345 0,-2.48"
         id="path4974" />
      <path
         inkscape:connector-curvature="0"
         style="fill:none;fill-opacity:0;stroke:#000000;stroke-width:0.02"
         d="m 687.403,530.345 0,-2.48"
         id="path4976" />
      <path
         inkscape:connector-curvature="0"
         style="fill:none;fill-opacity:0;stroke:#dbdbce;stroke-width:0.63999999"
         d="m 689.407,524.638 -0.145,-0.002 -0.146,0.009 -0.145,0.017 -0.149,0.023 -0.14,0.041 -0.14,0.046 -0.14,0.052 -0.134,0.068 -0.136,0.07 -0.132,0.082 -0.125,0.092 -0.119,0.097 -0.118,0.11 -0.115,0.113 -0.109,0.123 -0.098,0.129 -0.099,0.136 -0.091,0.142 -0.086,0.151 -0.077,0.151 -0.072,0.158"
         id="path4978" />
    </g>
    <text
       font-size="12.8"
       style="font-style:normal;font-weight:normal;font-size:24.56625938px;font-family:sans-serif;text-anchor:start;fill:#000000"
       x="326.05292"
       y="928.37292"
       id="text4984"
       transform="scale(0.97934827,1.0210872)">
      <tspan
         x="326.05292"
         y="928.37292"
         id="tspan4986" />
    </text>
    <g
       id="g4988"
       transform="matrix(1.8796034,0,0,1.9597104,-1109.3747,-238.79991)">
      <circle
         r="8.0331497"
         style="fill:#ffffff"
         cx="805.55701"
         cy="526.005"
         id="ellipse4990" />
      <circle
         r="8.0331497"
         style="fill:none;fill-opacity:0;stroke:#000000;stroke-width:1"
         cx="805.55701"
         cy="526.005"
         id="ellipse4992" />
      <circle
         r="8.0331497"
         style="fill:none;fill-opacity:0;stroke:#000000;stroke-width:1"
         cx="805.55701"
         cy="526.005"
         id="ellipse4994" />
    </g>
    <g
       id="g4996"
       transform="matrix(1.8796034,0,0,1.9597104,-1109.3747,-238.79991)">
      <circle
         r="8.0331497"
         style="fill:#ffffff"
         cx="796.78497"
         cy="548.80902"
         id="ellipse4998" />
      <circle
         r="8.0331497"
         style="fill:none;fill-opacity:0;stroke:#000000;stroke-width:1"
         cx="796.78497"
         cy="548.80902"
         id="ellipse5000" />
      <circle
         r="8.0331497"
         style="fill:none;fill-opacity:0;stroke:#000000;stroke-width:1"
         cx="796.78497"
         cy="548.80902"
         id="ellipse5002" />
    </g>
    <g
       id="g5004"
       transform="matrix(1.8796034,0,0,1.9597104,-1109.3747,-238.79991)">
      <circle
         r="8.0331497"
         style="fill:#ffffff"
         cx="842.90503"
         cy="522.64099"
         id="ellipse5006" />
      <circle
         r="8.0331497"
         style="fill:none;fill-opacity:0;stroke:#000000;stroke-width:1"
         cx="842.90503"
         cy="522.64099"
         id="ellipse5008" />
      <circle
         r="8.0331497"
         style="fill:none;fill-opacity:0;stroke:#000000;stroke-width:1"
         cx="842.90503"
         cy="522.64099"
         id="ellipse5010" />
    </g>
    <text
       font-size="9.03111"
       style="font-style:normal;font-weight:normal;font-size:17.33285904px;font-family:'TeX Gyre Bonum';text-anchor:start;fill:#000000"
       x="23.949316"
       y="944.7287"
       id="text5012"
       transform="scale(0.97934827,1.0210872)">
      <tspan
         x="23.949316"
         y="944.7287"
         id="tspan5014">struct page</tspan>
    </text>
    <g
       id="g5016"
       transform="matrix(1.8796034,0,0,1.9597104,-1109.3747,-238.79991)">
      <path
         inkscape:connector-curvature="0"
         style="fill:#ffffff"
         d="m 627.138,621.04 c 2.976,0 17.856,0 20.832,0 2.975,0 2.975,0 2.975,3.818 0,3.818 0,11.455 0,15.273 0,3.818 0,3.818 -2.975,3.818 -2.976,0 -17.856,0 -20.832,0 -2.976,0 -2.976,0 -2.976,-3.818 0,-3.818 0,-11.455 0,-15.273 0,-3.818 0,-3.818 2.976,-3.818 z"
         id="path5018" />
      <path
         inkscape:connector-curvature="0"
         style="fill:none;fill-opacity:0;stroke:#000000;stroke-width:1"
         d="m 627.138,621.04 c 2.976,0 17.856,0 20.832,0 2.975,0 2.975,0 2.975,3.818 0,3.818 0,11.455 0,15.273 0,3.818 0,3.818 -2.975,3.818 -2.976,0 -17.856,0 -20.832,0 -2.976,0 -2.976,0 -2.976,-3.818 0,-3.818 0,-11.455 0,-15.273 0,-3.818 0,-3.818 2.976,-3.818"
         id="path5020" />
      <path
         inkscape:connector-curvature="0"
         style="fill:none;fill-opacity:0;stroke:#000000;stroke-width:0.1"
         d="m 627.138,621.04 c 2.976,0 17.856,0 20.832,0 2.975,0 2.975,0 2.975,3.818 0,3.818 0,11.455 0,15.273 0,3.818 0,3.818 -2.975,3.818 -2.976,0 -17.856,0 -20.832,0 -2.976,0 -2.976,0 -2.976,-3.818 0,-3.818 0,-11.455 0,-15.273 0,-3.818 0,-3.818 2.976,-3.818"
         id="path5022" />
      <line
         style="fill:none;fill-opacity:0;stroke:#000000;stroke-width:0.1"
         x1="627.138"
         y1="643.94897"
         x2="647.96997"
         y2="643.94897"
         id="line5024" />
      <line
         style="fill:none;fill-opacity:0;stroke:#000000;stroke-width:0.1"
         x1="650.94501"
         y1="624.85797"
         x2="650.94501"
         y2="640.13098"
         id="line5026" />
      <line
         style="fill:none;fill-opacity:0;stroke:#000000;stroke-width:0.1"
         x1="624.16199"
         y1="624.85797"
         x2="624.16199"
         y2="640.13098"
         id="line5028" />
      <line
         style="fill:none;fill-opacity:0;stroke:#000000;stroke-width:0.1"
         x1="627.138"
         y1="621.03998"
         x2="647.96997"
         y2="621.03998"
         id="line5030" />
      <text
         font-size="12.8"
         style="font-style:normal;font-weight:normal;font-size:12.80000019px;font-family:sans-serif;text-anchor:middle;fill:#000000"
         x="637.55402"
         y="636.495"
         id="text5032">
        <tspan
           x="637.55402"
           y="636.495"
           id="tspan5034" />
      </text>
    </g>
    <text
       font-size="9.03111"
       style="font-style:normal;font-weight:normal;font-size:17.33285904px;font-family:'TeX Gyre Bonum';text-anchor:start;fill:#000000"
       x="560.16937"
       y="592.99744"
       id="text5056"
       transform="scale(0.97934827,1.0210872)">
      <tspan
         x="560.16937"
         y="592.99744"
         id="tspan5058">struct</tspan>
      <tspan
         x="560.16937"
         y="614.6637"
         id="tspan5060">vm_area_struct</tspan>
    </text>
    <g
       id="g5088"
       transform="matrix(1.8796034,0,0,1.9597104,-1109.3747,-238.79991)">
      <path
         inkscape:connector-curvature="0"
         style="fill:none;fill-opacity:0;stroke:#000000;stroke-width:2"
         d="m 696.562,533.72 c 30.924,0 55.675,-35.51 76.863,-35.51"
         id="path5090" />
      <polygon
         style="fill:#000000"
         points="770.925,503.21 773.425,498.21 770.925,493.21 780.925,498.21 "
         id="polygon5092" />
      <polygon
         style="fill:none;fill-opacity:0;stroke:#000000;stroke-width:2"
         points="770.925,503.21 773.425,498.21 770.925,493.21 780.925,498.21 "
         id="polygon5094" />
    </g>
    <g
       id="g5124"
       transform="matrix(1.8796034,0,0,1.9597104,-1109.3747,-238.79991)">
      <path
         inkscape:connector-curvature="0"
         style="fill:none;fill-opacity:0;stroke:#000000;stroke-width:2"
         d="m 653.636,635.352 c 45.958,4.596 -50.07,-84.66 -4.656,-83.664"
         id="path5126" />
      <polygon
         style="fill:#000000"
         points="646.371,556.632 648.98,551.688 646.591,546.635 656.478,551.853 "
         id="polygon5128" />
      <polygon
         style="fill:none;fill-opacity:0;stroke:#000000;stroke-width:2"
         points="646.371,556.632 648.98,551.688 646.591,546.635 656.478,551.853 "
         id="polygon5130" />
    </g>
  </g>
</svg>
