<?xml version="1.0" encoding="UTF-8" standalone="no"?>
<!-- Created with Inkscape (http://www.inkscape.org/) -->

<svg
   xmlns:dc="http://purl.org/dc/elements/1.1/"
   xmlns:cc="http://creativecommons.org/ns#"
   xmlns:rdf="http://www.w3.org/1999/02/22-rdf-syntax-ns#"
   xmlns:svg="http://www.w3.org/2000/svg"
   xmlns="http://www.w3.org/2000/svg"
   xmlns:sodipodi="http://sodipodi.sourceforge.net/DTD/sodipodi-0.dtd"
   xmlns:inkscape="http://www.inkscape.org/namespaces/inkscape"
   width="210mm"
   height="150mm"
   viewBox="0 0 744.09449 531.49607"
   id="svg2"
   version="1.1"
   inkscape:version="0.91 r13725"
   sodipodi:docname="bosaivm.svg">
  <defs
     id="defs4" />
  <sodipodi:namedview
     id="base"
     pagecolor="#ffffff"
     bordercolor="#666666"
     borderopacity="1.0"
     inkscape:pageopacity="0.0"
     inkscape:pageshadow="2"
     inkscape:zoom="0.7"
     inkscape:cx="-83.60758"
     inkscape:cy="149.39122"
     inkscape:document-units="px"
     inkscape:current-layer="g9901"
     showgrid="false"
     inkscape:window-width="2880"
     inkscape:window-height="1577"
     inkscape:window-x="0"
     inkscape:window-y="0"
     inkscape:window-maximized="1" />
  <metadata
     id="metadata7">
    <rdf:RDF>
      <cc:Work
         rdf:about="">
        <dc:format>image/svg+xml</dc:format>
        <dc:type
           rdf:resource="http://purl.org/dc/dcmitype/StillImage" />
        <dc:title></dc:title>
      </cc:Work>
    </rdf:RDF>
  </metadata>
  <g
     inkscape:label="Layer 1"
     inkscape:groupmode="layer"
     id="layer1"
     transform="translate(0,-520.86615)">
    <g
       id="g9901"
       transform="matrix(1.7908843,0,0,1.563484,-1125.9026,25.770136)">
      <text
         font-size="15.2287"
         style="font-style:italic;font-weight:700;font-size:7.92812538px;font-family:sans-serif;text-anchor:start;fill:#ef0000;fill-opacity:1"
         x="932.51349"
         y="318.00391"
         id="text4346"
         transform="scale(0.92027264,1.0866345)">
        <tspan
           x="932.51349"
           y="318.00391"
           id="tspan4348"
           style="fill:#ef0000;fill-opacity:1">mmap/munmap</tspan>
      </text>
      <text
         id="text9489"
         y="482.82999"
         x="685.43799"
         style="font-style:normal;font-weight:normal;font-size:12.80000019px;font-family:sans-serif;text-anchor:start;fill:#000000"
         font-size="12.8">
        <tspan
           id="tspan9491"
           y="482.82999"
           x="685.43799" />
      </text>
      <text
         id="text9891"
         y="605.57397"
         x="760.104"
         style="font-style:normal;font-weight:normal;font-size:12.80000019px;font-family:sans-serif;text-anchor:start;fill:#000000"
         font-size="12.8">
        <tspan
           id="tspan9893"
           y="605.57397"
           x="760.104" />
      </text>
      <path
         inkscape:connector-curvature="0"
         style="fill:none;fill-opacity:0;stroke:#000000;stroke-width:1.04120851;stroke-linecap:round"
         d="m 655.92522,320.63904 c 5.42578,4.27108 5.42578,8.54217 0,12.81325 -5.42579,4.27109 -5.42579,8.54217 0,12.81326"
         id="path4293" />
      <path
         inkscape:connector-curvature="0"
         style="fill:none;fill-opacity:0;stroke:#000000;stroke-width:1.04120851;stroke-linecap:round"
         d="m 703.88962,320.63904 c 5.42578,4.27108 5.42578,8.54217 0,12.81325 -5.42579,4.27109 -5.42579,8.54217 0,12.81326"
         id="path4295" />
      <path
         inkscape:connector-curvature="0"
         style="fill:none;fill-opacity:0;stroke:#000000;stroke-width:1.04120851;stroke-linecap:round"
         d="m 748.43805,320.63904 c 5.42578,4.27108 5.42578,8.54217 0,12.81325 -5.42578,4.27109 -5.42578,8.54217 0,12.81326"
         id="path4297" />
      <path
         inkscape:connector-curvature="0"
         style="fill:none;fill-opacity:0;stroke:#000000;stroke-width:1.04120851;stroke-linecap:round"
         d="m 932.185,324.08872 c 5.42818,4.27108 5.42818,8.54217 0,12.81325 -5.42339,4.27109 -5.42339,8.54217 0,12.81325"
         id="path4299" />
      <path
         inkscape:connector-curvature="0"
         style="fill:none;fill-opacity:0;stroke:#000000;stroke-width:1.04120851;stroke-linecap:round"
         d="m 980.15228,324.08872 c 5.42338,4.27108 5.42338,8.54217 0,12.81325 -5.42818,4.27109 -5.42818,8.54217 0,12.81325"
         id="path4301" />
      <path
         inkscape:connector-curvature="0"
         style="fill:none;fill-opacity:0;stroke:#000000;stroke-width:1.04120851;stroke-linecap:round"
         d="m 1024.6988,324.08872 c 5.4282,4.27108 5.4282,8.54217 0,12.81325 -5.4234,4.27109 -5.4234,8.54217 0,12.81325"
         id="path4303" />
      <g
         id="g4305"
         transform="matrix(0.47909783,0,0,0.56570652,332.99651,47.38582)">
        <ellipse
           style="fill:#1e90ff"
           cx="1047.2"
           cy="833.16602"
           rx="18.4799"
           ry="17.831499"
           id="ellipse4307" />
        <ellipse
           style="fill:none;fill-opacity:0;stroke:#000000;stroke-width:2"
           cx="1047.2"
           cy="833.16602"
           rx="18.4799"
           ry="17.831499"
           id="ellipse4309" />
      </g>
      <g
         id="g4311"
         transform="matrix(0.47909783,0,0,0.56570652,332.99651,47.38582)">
        <polygon
           style="fill:#1e90ff"
           points="980.94,918.654 998.69,951.154 963.19,951.154 "
           id="polygon4313" />
        <polygon
           style="fill:none;fill-opacity:0;stroke:#000000;stroke-width:2"
           points="980.94,918.654 998.69,951.154 963.19,951.154 "
           id="polygon4315" />
      </g>
      <g
         id="g4317"
         transform="matrix(0.47909783,0,0,0.56570652,332.99651,47.38582)">
        <polygon
           style="fill:#1e90ff"
           points="1028.64,1004.13 1046.39,1036.63 1010.89,1036.63 "
           id="polygon4319" />
        <polygon
           style="fill:none;fill-opacity:0;stroke:#000000;stroke-width:2"
           points="1028.64,1004.13 1046.39,1036.63 1010.89,1036.63 "
           id="polygon4321" />
      </g>
      <g
         id="g4323"
         transform="matrix(0.47909783,0,0,0.56570652,332.99651,47.38582)">
        <polygon
           style="fill:#1e90ff"
           points="1126.34,1007.1 1144.09,1039.6 1108.59,1039.6 "
           id="polygon4325" />
        <polygon
           style="fill:none;fill-opacity:0;stroke:#000000;stroke-width:2"
           points="1126.34,1007.1 1144.09,1039.6 1108.59,1039.6 "
           id="polygon4327" />
      </g>
      <g
         id="g4329"
         transform="matrix(0.47909783,0,0,0.56570652,332.99651,47.38582)">
        <ellipse
           style="fill:#1e90ff"
           cx="1078.1899"
           cy="962.15601"
           rx="18.4799"
           ry="17.831499"
           id="ellipse4331" />
        <ellipse
           style="fill:none;fill-opacity:0;stroke:#000000;stroke-width:2"
           cx="1078.1899"
           cy="962.15601"
           rx="18.4799"
           ry="17.831499"
           id="ellipse4333" />
      </g>
      <g
         id="g4335"
         transform="matrix(0.47909783,0,0,0.56570652,332.99651,47.38582)">
        <ellipse
           style="fill:#1e90ff"
           cx="1117.39"
           cy="900.13"
           rx="18.4799"
           ry="17.831499"
           id="ellipse4337" />
        <ellipse
           style="fill:none;fill-opacity:0;stroke:#000000;stroke-width:2"
           cx="1117.39"
           cy="900.13"
           rx="18.4799"
           ry="17.831499"
           id="ellipse4339" />
      </g>
      <g
         id="g4341"
         transform="matrix(0.47909783,0,0,0.56570652,332.99651,47.38582)">
        <polygon
           style="fill:#1e90ff"
           points="1178.54,960.08 1196.29,992.58 1160.79,992.58 "
           id="polygon4343" />
        <polygon
           style="fill:none;fill-opacity:0;stroke:#000000;stroke-width:2"
           points="1178.54,960.08 1196.29,992.58 1160.79,992.58 "
           id="polygon4345" />
      </g>
      <line
         style="fill:none;fill-opacity:0;stroke:#000000;stroke-width:1.04120851"
         x1="863.47278"
         y1="565.68384"
         x2="854.41785"
         y2="582.59454"
         id="line4347" />
      <line
         style="fill:none;fill-opacity:0;stroke:#000000;stroke-width:1.04120851"
         x1="873.81171"
         y1="565.09271"
         x2="894.20691"
         y2="596.74286"
         id="line4349" />
      <line
         style="fill:none;fill-opacity:0;stroke:#000000;stroke-width:1.04120851"
         x1="854.88257"
         y1="600.21063"
         x2="869.25555"
         y2="623.2298"
         id="line4351" />
      <line
         style="fill:none;fill-opacity:0;stroke:#000000;stroke-width:1.04120851"
         x1="844.13159"
         y1="600.35889"
         x2="829.91199"
         y2="623.10535"
         id="line4353" />
      <line
         style="fill:none;fill-opacity:0;stroke:#000000;stroke-width:1.04120851"
         x1="830.05573"
         y1="527.93652"
         x2="806.75861"
         y2="574.10669"
         id="line4355" />
      <line
         style="fill:none;fill-opacity:0;stroke:#000000;stroke-width:1.04120851"
         x1="841.35284"
         y1="526.19757"
         x2="861.69055"
         y2="549.11035"
         id="line4357" />
      <g
         id="g4359"
         transform="matrix(0.47909783,0,0,0.56570652,332.99651,47.38582)">
        <rect
           style="fill:#ffffff"
           x="1029.1899"
           y="763.15601"
           width="31.999901"
           height="24.999901"
           id="rect4361" />
        <rect
           style="fill:none;fill-opacity:0;stroke:#000000;stroke-width:2"
           x="1029.1899"
           y="763.15601"
           width="31.999901"
           height="24.999901"
           id="rect4363" />
      </g>
      <line
         style="fill:none;fill-opacity:0;stroke:#000000;stroke-width:1.04120851"
         x1="833.96997"
         y1="493.81256"
         x2="834.3916"
         y2="508.06552"
         id="line4365" />
      <g
         id="g4367"
         transform="matrix(0.47909783,0,0,0.56570652,332.99651,47.38582)"
         style="opacity:0.4">
        <rect
           style="fill:#e5e5e5"
           x="663.55798"
           y="552.57599"
           width="25.226801"
           height="85.771202"
           id="rect4369" />
        <rect
           style="fill:none;fill-opacity:0;stroke:#000000;stroke-width:2"
           x="663.55798"
           y="552.57599"
           width="25.226801"
           height="85.771202"
           id="rect4371" />
      </g>
      <g
         id="g4373"
         transform="matrix(0.47909783,0,0,0.56570652,332.99651,47.38582)"
         style="opacity:0.4">
        <rect
           style="fill:#e5e5e5"
           x="762.836"
           y="570.21802"
           width="25.226801"
           height="85.771202"
           id="rect4375" />
        <rect
           style="fill:none;fill-opacity:0;stroke:#000000;stroke-width:2"
           x="762.836"
           y="570.21802"
           width="25.226801"
           height="85.771202"
           id="rect4377" />
      </g>
      <g
         id="g4385"
         transform="matrix(0.47909783,0,0,0.56570652,332.99651,47.38582)"
         style="opacity:0.4;fill:#d38d5f">
        <rect
           style="fill:#d38d5f"
           x="851.50598"
           y="681.198"
           width="25.226801"
           height="85.771202"
           id="rect4387" />
        <rect
           style="fill:#d38d5f;fill-opacity:0;stroke:#000000;stroke-width:2"
           x="851.50598"
           y="681.198"
           width="25.226801"
           height="85.771202"
           id="rect4389" />
      </g>
      <path
         inkscape:connector-curvature="0"
         style="fill:none;fill-opacity:0;stroke:#000000;stroke-width:1.04120851"
         d="m 638.57565,425.30945 c 14.65177,16.20014 14.65177,-16.2007 29.30354,0 14.65224,16.20014 14.65224,-16.2007 29.30401,0 14.65177,16.20014 14.65177,-16.2007 29.30354,0 14.65225,16.20014 14.65225,-16.2007 29.30402,0"
         id="path4391" />
      <g
         id="g4393"
         transform="matrix(0.47909783,0,0,0.56570652,332.99651,47.38582)"
         style="opacity:0.4;fill:#d38d5f">
        <rect
           style="fill:#d38d5f"
           x="762.836"
           y="768.13599"
           width="25.226801"
           height="85.771202"
           id="rect4395" />
        <rect
           style="fill:#d38d5f;fill-opacity:0;stroke:#000000;stroke-width:2"
           x="762.836"
           y="768.13599"
           width="25.226801"
           height="85.771202"
           id="rect4397" />
      </g>
      <path
         inkscape:connector-curvature="0"
         style="fill:none;fill-opacity:0;stroke:#000000;stroke-width:1.04120851"
         d="m 637.69506,538.89314 c 14.65177,16.20014 14.65177,-16.2007 29.30354,0 14.65225,16.20014 14.65225,-16.2007 29.30402,0 14.65177,16.20014 14.65177,-16.2007 29.30354,0 14.65225,16.20014 14.65225,-16.2007 29.30402,0"
         id="path4399" />
      <g
         id="g4401"
         transform="matrix(0.47909783,0,0,0.56570652,332.99651,47.38582)"
         style="opacity:0.4">
        <rect
           style="fill:#e5e5e5"
           x="663.55798"
           y="896.19202"
           width="25.226801"
           height="85.771202"
           id="rect4403" />
        <rect
           style="fill:none;fill-opacity:0;stroke:#000000;stroke-width:2"
           x="663.55798"
           y="896.19202"
           width="25.226801"
           height="85.771202"
           id="rect4405" />
      </g>
      <g
         id="g4407"
         transform="matrix(0.47909783,0,0,0.56570652,332.99651,47.38582)"
         style="opacity:0.4">
        <rect
           style="fill:#e5e5e5"
           x="762.836"
           y="913.836"
           width="25.226801"
           height="85.771202"
           id="rect4409" />
        <rect
           style="fill:none;fill-opacity:0;stroke:#000000;stroke-width:2"
           x="762.836"
           y="913.836"
           width="25.226801"
           height="85.771202"
           id="rect4411" />
      </g>
      <g
         id="g4413"
         transform="matrix(0.47909783,0,0,0.56570652,332.99651,47.38582)"
         style="opacity:0.4">
        <rect
           style="fill:#e5e5e5"
           x="851.50598"
           y="900.36401"
           width="25.226801"
           height="40.244099"
           id="rect4415" />
        <rect
           style="fill:none;fill-opacity:0;stroke:#000000;stroke-width:2"
           x="851.50598"
           y="900.36401"
           width="25.226801"
           height="40.244099"
           id="rect4417" />
      </g>
      <text
         font-size="15.2287"
         style="font-style:normal;font-weight:normal;font-size:7.92812538px;font-family:sans-serif;text-anchor:start;fill:#000000"
         x="705.72021"
         y="440.63629"
         id="text4419"
         transform="scale(0.92027264,1.0866345)">
        <tspan
           x="705.72021"
           y="440.63629"
           id="tspan4421">sleep</tspan>
      </text>
      <text
         font-size="15.2287"
         style="font-style:normal;font-weight:normal;font-size:7.92812538px;font-family:sans-serif;text-anchor:start;fill:#000000"
         x="755.99182"
         y="421.42911"
         id="text4423"
         transform="scale(0.92027264,1.0866345)">
        <tspan
           x="755.99182"
           y="421.42911"
           id="tspan4425">sleep</tspan>
      </text>
      <text
         font-size="15.2287"
         style="font-style:normal;font-weight:normal;font-size:7.92812538px;font-family:sans-serif;text-anchor:start;fill:#000000"
         x="802.11426"
         y="470.64703"
         id="text4427"
         transform="scale(0.92027264,1.0866345)">
        <tspan
           x="802.11426"
           y="470.64703"
           id="tspan4429">sleep</tspan>
      </text>
      <g
         id="g4431"
         transform="matrix(0.47909783,0,0,0.56570652,332.99651,47.38582)">
        <polygon
           style="fill:#ffffff"
           points="1068.66,568.222 1068.66,585.837 1033.43,585.837 1033.43,621.067 1068.66,621.067 1068.66,638.682 1103.89,603.452 "
           id="polygon4433" />
        <polygon
           style="fill:none;fill-opacity:0;stroke:#000000;stroke-width:2"
           points="1068.66,568.222 1068.66,585.837 1033.43,585.837 1033.43,621.067 1068.66,621.067 1068.66,638.682 1103.89,603.452 "
           id="polygon4435" />
        <polygon
           style="fill:none;fill-opacity:0;stroke:#000000;stroke-width:2"
           points="1068.66,568.222 1068.66,585.837 1033.43,585.837 1033.43,621.067 1068.66,621.067 1068.66,638.682 1103.89,603.452 "
           id="polygon4437" />
      </g>
      <g
         id="g4439"
         transform="matrix(0.47909783,0,0,0.56570652,332.99651,47.38582)"
         style="opacity:0.51">
        <rect
           style="fill:#e5e5e5"
           x="1239.37"
           y="560.276"
           width="25.226801"
           height="85.771202"
           id="rect4441" />
        <rect
           style="fill:none;fill-opacity:0;stroke:#000000;stroke-width:2"
           x="1239.37"
           y="560.276"
           width="25.226801"
           height="85.771202"
           id="rect4443" />
      </g>
      <g
         id="g4445"
         transform="matrix(0.47909783,0,0,0.56570652,332.99651,47.38582)"
         style="opacity:0.51">
        <rect
           style="fill:#e5e5e5"
           x="1338.65"
           y="577.91803"
           width="25.226801"
           height="85.771202"
           id="rect4447" />
        <rect
           style="fill:none;fill-opacity:0;stroke:#000000;stroke-width:2"
           x="1338.65"
           y="577.91803"
           width="25.226801"
           height="85.771202"
           id="rect4449" />
      </g>
      <g
         id="g4451"
         transform="matrix(0.47909783,0,0,0.56570652,332.99651,47.38582)"
         style="opacity:0.51">
        <rect
           style="fill:#e5e5e5"
           x="1427.3199"
           y="564.448"
           width="25.226801"
           height="40.244099"
           id="rect4453" />
        <rect
           style="fill:none;fill-opacity:0;stroke:#000000;stroke-width:2"
           x="1427.3199"
           y="564.448"
           width="25.226801"
           height="40.244099"
           id="rect4455" />
      </g>
      <g
         id="g4457"
         transform="matrix(0.47909783,0,0,0.56570652,332.99651,47.38582)"
         style="opacity:0.51;fill:#d38d5f">
        <rect
           style="fill:#d38d5f"
           x="1427.3199"
           y="688.89801"
           width="25.226801"
           height="85.771202"
           id="rect4459" />
        <rect
           style="fill:#d38d5f;fill-opacity:0;stroke:#000000;stroke-width:2"
           x="1427.3199"
           y="688.89801"
           width="25.226801"
           height="85.771202"
           id="rect4461" />
      </g>
      <path
         inkscape:connector-curvature="0"
         style="fill:none;fill-opacity:0;stroke:#000000;stroke-width:1.04120851"
         d="m 914.44401,429.6654 c 14.6556,16.20013 14.6556,-16.20071 29.30641,0 14.65082,16.20013 14.65082,-16.20071 29.30163,0 14.6556,16.20013 14.6556,-16.20071 29.30645,0 14.6508,16.20013 14.6508,-16.20071 29.3016,0"
         id="path4463" />
      <g
         id="g4465"
         transform="matrix(0.47909783,0,0,0.56570652,332.99651,47.38582)"
         style="opacity:0.51;fill:#d38d5f">
        <rect
           style="fill:#d38d5f"
           x="1338.65"
           y="786.44"
           width="25.226801"
           height="75.167"
           id="rect4467" />
        <rect
           style="fill:#d38d5f;fill-opacity:0;stroke:#000000;stroke-width:2"
           x="1338.65"
           y="786.44"
           width="25.226801"
           height="75.167"
           id="rect4469" />
      </g>
      <path
         inkscape:connector-curvature="0"
         style="fill:none;fill-opacity:0;stroke:#000000;stroke-width:1.04120851"
         d="m 913.56726,543.24908 c 14.65081,16.20014 14.65081,-16.2007 29.30162,0 14.65082,16.20014 14.65082,-16.2007 29.30163,0 14.6556,16.20014 14.6556,-16.2007 29.30639,0 14.6508,16.20014 14.6508,-16.2007 29.3016,0"
         id="path4471" />
      <g
         id="g4473"
         transform="matrix(0.47909783,0,0,0.56570652,332.99651,47.38582)"
         style="opacity:0.51">
        <rect
           style="fill:#e5e5e5"
           x="1239.37"
           y="903.89398"
           width="25.226801"
           height="85.771202"
           id="rect4475" />
        <rect
           style="fill:none;fill-opacity:0;stroke:#000000;stroke-width:2"
           x="1239.37"
           y="903.89398"
           width="25.226801"
           height="85.771202"
           id="rect4477" />
      </g>
      <g
         id="g4479"
         transform="matrix(0.47909783,0,0,0.56570652,332.99651,47.38582)"
         style="opacity:0.51">
        <rect
           style="fill:#e5e5e5"
           x="1338.65"
           y="921.53601"
           width="25.226801"
           height="85.771202"
           id="rect4481" />
        <rect
           style="fill:none;fill-opacity:0;stroke:#000000;stroke-width:2"
           x="1338.65"
           y="921.53601"
           width="25.226801"
           height="85.771202"
           id="rect4483" />
      </g>
      <g
         id="g4485"
         transform="matrix(0.47909783,0,0,0.56570652,332.99651,47.38582)"
         style="opacity:0.51">
        <rect
           style="fill:#e5e5e5"
           x="1427.3199"
           y="908.06403"
           width="25.226801"
           height="40.244099"
           id="rect4487" />
        <rect
           style="fill:none;fill-opacity:0;stroke:#000000;stroke-width:2"
           x="1427.3199"
           y="908.06403"
           width="25.226801"
           height="40.244099"
           id="rect4489" />
      </g>
      <g
         id="g4491"
         transform="matrix(0.47909783,0,0,0.56570652,332.99651,47.38582)"
         style="opacity:0.51">
        <rect
           style="fill:#e5e5e5"
           x="1242.58"
           y="703.48199"
           width="25.226801"
           height="85.771202"
           id="rect4493" />
        <rect
           style="fill:none;fill-opacity:0;stroke:#000000;stroke-width:2"
           x="1242.58"
           y="703.48199"
           width="25.226801"
           height="85.771202"
           id="rect4495" />
      </g>
      <g
         id="g4497"
         transform="matrix(0.47909783,0,0,0.56570652,332.99651,47.38582)"
         style="opacity:0.51">
        <rect
           style="fill:#e5e5e5"
           x="1338.37"
           y="706.466"
           width="25.226801"
           height="40.244099"
           id="rect4499" />
        <rect
           style="fill:none;fill-opacity:0;stroke:#000000;stroke-width:2"
           x="1338.37"
           y="706.466"
           width="25.226801"
           height="40.244099"
           id="rect4501" />
      </g>
      <g
         id="g4503"
         transform="matrix(0.47909783,0,0,0.56570652,332.99651,47.38582)"
         style="opacity:0.51">
        <rect
           style="fill:#e5e5e5"
           x="1425.42"
           y="795.35999"
           width="25.226801"
           height="60.132198"
           id="rect4505" />
        <rect
           style="fill:none;fill-opacity:0;stroke:#000000;stroke-width:2"
           x="1425.42"
           y="795.35999"
           width="25.226801"
           height="60.132198"
           id="rect4507" />
      </g>
      <g
         id="g4509"
         transform="matrix(0.47909783,0,0,0.56570652,332.99651,47.38582)"
         style="opacity:0.51">
        <rect
           style="fill:#e5e5e5"
           x="1240.73"
           y="814.62402"
           width="25.226801"
           height="40.244099"
           id="rect4511" />
        <rect
           style="fill:none;fill-opacity:0;stroke:#000000;stroke-width:2"
           x="1240.73"
           y="814.62402"
           width="25.226801"
           height="40.244099"
           id="rect4513" />
      </g>
      <text
         font-size="15.2287"
         style="font-style:normal;font-weight:normal;font-size:7.92812538px;font-family:sans-serif;text-anchor:start;fill:#000000"
         x="1055.4518"
         y="446.48682"
         id="text4515"
         transform="scale(0.92027264,1.0866345)">
        <tspan
           x="1055.4518"
           y="446.48682"
           id="tspan4517">sleep</tspan>
      </text>
      <g
         id="g4519"
         transform="matrix(0.47909783,0,0,0.56570652,332.99651,47.38582)"
         style="opacity:0.3">
        <ellipse
           style="fill:#ffff00"
           cx="990.95203"
           cy="828.38"
           rx="18.4799"
           ry="17.831499"
           id="ellipse4521" />
        <ellipse
           style="fill:none;fill-opacity:0;stroke:#000000;stroke-width:2"
           cx="990.95203"
           cy="828.38"
           rx="18.4799"
           ry="17.831499"
           id="ellipse4523" />
      </g>
      <g
         id="g4525"
         transform="matrix(0.47909783,0,0,0.56570652,332.99651,47.38582)"
         style="opacity:0.3">
        <polygon
           style="fill:#ffff00"
           points="924.69,913.868 942.44,946.368 906.94,946.368 "
           id="polygon4527" />
        <polygon
           style="fill:none;fill-opacity:0;stroke:#000000;stroke-width:2"
           points="924.69,913.868 942.44,946.368 906.94,946.368 "
           id="polygon4529" />
      </g>
      <g
         id="g4531"
         transform="matrix(0.47909783,0,0,0.56570652,332.99651,47.38582)"
         style="opacity:0.3">
        <polygon
           style="fill:#ffff00"
           points="972.39,999.344 990.14,1031.84 954.64,1031.84 "
           id="polygon4533" />
        <polygon
           style="fill:none;fill-opacity:0;stroke:#000000;stroke-width:2"
           points="972.39,999.344 990.14,1031.84 954.64,1031.84 "
           id="polygon4535" />
      </g>
      <g
         id="g4537"
         transform="matrix(0.47909783,0,0,0.56570652,332.99651,47.38582)"
         style="opacity:0.3">
        <polygon
           style="fill:#ffff00"
           points="1070.09,1002.32 1087.84,1034.82 1052.34,1034.82 "
           id="polygon4539" />
        <polygon
           style="fill:none;fill-opacity:0;stroke:#000000;stroke-width:2"
           points="1070.09,1002.32 1087.84,1034.82 1052.34,1034.82 "
           id="polygon4541" />
      </g>
      <g
         id="g4543"
         transform="matrix(0.47909783,0,0,0.56570652,332.99651,47.38582)"
         style="opacity:0.3">
        <ellipse
           style="fill:#ffff00"
           cx="1021.94"
           cy="957.36798"
           rx="18.4799"
           ry="17.831499"
           id="ellipse4545" />
        <ellipse
           style="fill:none;fill-opacity:0;stroke:#000000;stroke-width:2"
           cx="1021.94"
           cy="957.36798"
           rx="18.4799"
           ry="17.831499"
           id="ellipse4547" />
      </g>
      <g
         id="g4549"
         transform="matrix(0.47909783,0,0,0.56570652,332.99651,47.38582)"
         style="opacity:0.3">
        <ellipse
           style="fill:#ffff00"
           cx="1061.14"
           cy="895.34399"
           rx="18.4799"
           ry="17.831499"
           id="ellipse4551" />
        <ellipse
           style="fill:none;fill-opacity:0;stroke:#000000;stroke-width:2"
           cx="1061.14"
           cy="895.34399"
           rx="18.4799"
           ry="17.831499"
           id="ellipse4553" />
      </g>
      <line
         style="fill:none;fill-opacity:0;stroke:#000000;stroke-width:1.04120851"
         x1="836.52356"
         y1="562.97638"
         x2="827.46857"
         y2="579.88593"
         id="line4555" />
      <line
         style="fill:none;fill-opacity:0;stroke:#000000;stroke-width:1.04120851"
         x1="827.93335"
         y1="597.50201"
         x2="842.30627"
         y2="620.52008"
         id="line4557" />
      <line
         style="fill:none;fill-opacity:0;stroke:#000000;stroke-width:1.04120851"
         x1="817.18237"
         y1="597.65082"
         x2="802.96368"
         y2="620.39557"
         id="line4559" />
      <line
         style="fill:none;fill-opacity:0;stroke:#000000;stroke-width:1.04120851"
         x1="803.10547"
         y1="525.22906"
         x2="779.80939"
         y2="571.39923"
         id="line4561" />
      <line
         style="fill:none;fill-opacity:0;stroke:#000000;stroke-width:1.04120851"
         x1="814.40363"
         y1="523.49005"
         x2="834.74133"
         y2="546.40289"
         id="line4563" />
      <line
         style="fill:none;fill-opacity:0;stroke:#000000;stroke-width:1.04120851"
         x1="827.09015"
         y1="493.81821"
         x2="814.33649"
         y2="508.45416"
         id="line4565" />
      <g
         id="g4567"
         transform="matrix(0.47909783,0,0,0.56570652,332.99651,47.38582)">
        <path
           inkscape:connector-curvature="0"
           style="fill:none;fill-opacity:0;stroke:#000000;stroke-width:2;stroke-dasharray:20, 8, 4, 8"
           d="m 1241.58,746.368 c -64.43,0 -243.588,183.75 -298.278,183.75"
           id="path4569" />
        <polygon
           style="fill:#000000"
           points="943.302,930.118 945.802,935.118 935.802,930.118 945.802,925.118 "
           id="polygon4571" />
        <polygon
           style="fill:none;fill-opacity:0;stroke:#000000;stroke-width:2"
           points="943.302,930.118 945.802,935.118 935.802,930.118 945.802,925.118 "
           id="polygon4573" />
      </g>
      <g
         id="g4575"
         transform="matrix(0.47909783,0,0,0.56570652,332.99651,47.38582)">
        <path
           inkscape:connector-curvature="0"
           style="fill:none;fill-opacity:0;stroke:#000000;stroke-width:2;stroke-dasharray:20"
           d="m 1337.65,824.024 c -74.08,0 -123.66,205.826 -188.01,205.826"
           id="path4577" />
        <polygon
           style="fill:#000000"
           points="1149.64,1029.85 1152.14,1034.85 1142.14,1029.85 1152.14,1024.85 "
           id="polygon4579" />
        <polygon
           style="fill:none;fill-opacity:0;stroke:#000000;stroke-width:2"
           points="1149.64,1029.85 1152.14,1034.85 1142.14,1029.85 1152.14,1024.85 "
           id="polygon4581" />
      </g>
      <text
         font-size="15.2287"
         style="font-style:italic;font-weight:700;font-size:7.92812538px;font-family:sans-serif;text-anchor:start;fill:#000000"
         x="932.99518"
         y="448.0195"
         id="text4583"
         transform="scale(0.92027264,1.0866345)">
        <tspan
           x="932.99518"
           y="448.0195"
           id="tspan4585">Read old</tspan>
        <tspan
           x="932.99518"
           y="457.92972"
           id="tspan4587">tree</tspan>
      </text>
      <text
         font-size="15.2287"
         style="font-style:italic;font-weight:700;font-size:7.92812538px;font-family:sans-serif;text-anchor:start;fill:#000000"
         x="989.14752"
         y="509.60486"
         id="text4589"
         transform="scale(0.92027264,1.0866345)">
        <tspan
           x="989.14752"
           y="509.60486"
           id="tspan4591">Read new</tspan>
        <tspan
           x="989.14752"
           y="519.51508"
           id="tspan4593">tree</tspan>
      </text>
      <text
         font-size="15.2287"
         style="font-style:italic;font-weight:700;font-size:7.92812538px;font-family:sans-serif;text-anchor:start;fill:#ef0000;fill-opacity:1"
         x="716.24475"
         y="341.19254"
         id="text4595"
         transform="scale(0.92027264,1.0866345)">
        <tspan
           x="716.24475"
           y="341.19254"
           id="tspan4597"
           style="fill:#ef0000;fill-opacity:1">Parallel page faults,</tspan>
        <tspan
           x="716.24475"
           y="351.10278"
           id="tspan4599"
           style="fill:#ef0000;fill-opacity:1">mmap/munmap delayed</tspan>
      </text>
      <text
         font-size="15.2287"
         style="font-style:italic;font-weight:700;font-size:7.92812538px;font-family:sans-serif;text-anchor:start;fill:#000000"
         x="885.88055"
         y="603.0752"
         id="text4601"
         transform="scale(0.92027264,1.0866345)">
        <tspan
           x="885.88055"
           y="603.0752"
           id="tspan4603">Bonsai tree</tspan>
      </text>
      <text
         font-size="15.2287"
         style="font-style:italic;font-weight:700;font-size:7.92812538px;font-family:sans-serif;text-anchor:start;fill:#f40000;fill-opacity:1"
         x="716.98816"
         y="434.35257"
         id="text4605"
         transform="scale(0.92027264,1.0866345)">
        <tspan
           x="716.98816"
           y="434.35257"
           id="tspan4607"
           style="fill:#f40000;fill-opacity:1">Serial mmap/munmap,</tspan>
        <tspan
           x="716.98816"
           y="444.26282"
           id="tspan4609"
           style="fill:#f40000;fill-opacity:1">page faults delayed</tspan>
      </text>
      <text
         font-size="15.2287"
         style="font-style:italic;font-weight:700;font-size:7.92812538px;font-family:sans-serif;text-anchor:start;fill:#f30000;fill-opacity:1"
         x="1015.0841"
         y="408.35049"
         id="text4611"
         transform="scale(0.92027264,1.0866345)">
        <tspan
           x="1015.0841"
           y="408.35049"
           id="tspan4613"
           style="fill:#f30000;fill-opacity:1">Parallel page faults,</tspan>
        <tspan
           x="1015.0841"
           y="418.26071"
           id="tspan4615"
           style="fill:#f30000;fill-opacity:1">mmap/munmap delayed</tspan>
      </text>
      <text
         font-size="15.2287"
         style="font-style:italic;font-weight:700;font-size:7.92812538px;font-family:sans-serif;text-anchor:start;fill:#000000"
         x="891.08136"
         y="428.45517"
         id="text4617"
         transform="scale(0.92027264,1.0866345)">
        <tspan
           x="891.08136"
           y="428.45517"
           id="tspan4619">One point</tspan>
        <tspan
           x="891.08136"
           y="438.36542"
           id="tspan4621">Update</tspan>
      </text>
      <text
         transform="scale(0.92027264,1.0866345)"
         id="text4303"
         y="421.42911"
         x="755.99182"
         style="font-style:normal;font-weight:normal;font-size:7.92812538px;font-family:sans-serif;text-anchor:start;fill:#00000f;fill-opacity:1;"
         font-size="15.2287">
        <tspan
           id="tspan4305"
           y="421.42911"
           x="755.99182"
           style="fill:#00000f;fill-opacity:1;">sleep</tspan>
      </text>
      <text
         font-size="15.2287"
         style="font-style:normal;font-weight:normal;font-size:7.92812538px;font-family:sans-serif;text-anchor:start;fill:#00000f;fill-opacity:1"
         x="801.06531"
         y="371.608"
         id="text4318"
         transform="scale(0.92027264,1.0866345)">
        <tspan
           style="fill:#00000f;fill-opacity:1"
           x="801.06531"
           y="371.608"
           id="tspan4320">sleep</tspan>
      </text>
      <g
         style="opacity:0.4;fill:#d38d5f"
         transform="matrix(0.43264733,0,0,0.1986605,474.70476,200.12535)"
         id="g4328">
        <rect
           id="rect4330"
           height="85.771202"
           width="25.226801"
           y="681.198"
           x="851.50598"
           style="fill:#d38d5f" />
        <rect
           id="rect4332"
           height="85.771202"
           width="25.226801"
           y="681.198"
           x="851.50598"
           style="fill:#d38d5f;fill-opacity:0;stroke:#000000;stroke-width:2" />
      </g>
      <g
         style="opacity:0.51000001"
         transform="matrix(0.41693019,0,0,0.20402289,261.54277,221.6422)"
         id="g4334">
        <rect
           id="rect4336"
           height="85.771202"
           width="25.226801"
           y="560.276"
           x="1239.37"
           style="fill:#e5e5e5" />
        <rect
           id="rect4338"
           height="85.771202"
           width="25.226801"
           y="560.276"
           x="1239.37"
           style="fill:none;fill-opacity:0;stroke:#000000;stroke-width:2" />
      </g>
      <text
         transform="scale(0.92027264,1.0866345)"
         id="text4340"
         y="318.00391"
         x="862.61609"
         style="font-style:italic;font-weight:700;font-size:7.92812538px;font-family:sans-serif;text-anchor:start;fill:#ef0000;fill-opacity:1"
         font-size="15.2287">
        <tspan
           style="fill:#ef0000;fill-opacity:1"
           id="tspan4342"
           y="318.00391"
           x="862.61609">page fault</tspan>
      </text>
    </g>
  </g>
</svg>
